<svg id="Ebene_2"  width="841" height="595"  xmlns="http://www.w3.org/2000/svg" viewBox="0 0 841.89 595.28"><defs><style>.cls-1{letter-spacing:-.01em;}.cls-2{letter-spacing:-.01em;}.cls-3{letter-spacing:-.01em;}.cls-4{letter-spacing:0em;}.cls-5,.cls-6{font-family:Sora-SemiBold, Sora;font-weight:600;}.cls-5,.cls-7{font-size:12px;}.cls-5,.cls-8{fill:#f7f6e8;}.cls-9{letter-spacing:0em;}.cls-10{letter-spacing:0em;}.cls-11{letter-spacing:0em;}.cls-12{letter-spacing:-.06em;}.cls-13{letter-spacing:-.06em;}.cls-14{letter-spacing:0em;}.cls-15{letter-spacing:0em;}.cls-16{letter-spacing:0em;}.cls-6{font-size:21px;}.cls-6,.cls-7{fill:#0d2a3e;}.cls-17{letter-spacing:0em;}.cls-18{letter-spacing:0em;}.cls-7{font-family:Sora-Regular, Sora;}.cls-19{letter-spacing:-.06em;}.cls-8,.cls-20,.cls-21,.cls-22{stroke-width:0px;}.cls-20{fill:#d3d926;}.cls-21{fill:#015d53;}.cls-22{fill:#9fc131;}.cls-23{letter-spacing:0em;}</style></defs><g id="Ebene_1-2"><rect class="cls-22" width="841.89" height="595.28" rx="17.83" ry="17.83"/><rect class="cls-8" x="190.82" y="215.04" width="460.26" height="165.19" rx="10.85" ry="10.85"/><rect class="cls-22" x="208.92" y="327.06" width="130.92" height="40.33" rx="6.68" ry="6.68"/><rect class="cls-21" x="501.7" y="327.06" width="130.92" height="40.33" rx="6.68" ry="6.68"/><rect class="cls-20" x="355.31" y="327.06" width="130.92" height="40.33" rx="6.68" ry="6.68"/><text class="cls-6" transform="translate(209.91 248.6)"><tspan x="0" y="0">Consent </tspan><tspan class="cls-3" x="96.39" y="0">R</tspan><tspan class="cls-9" x="111.3" y="0">equi</tspan><tspan class="cls-15" x="159.24" y="0">r</tspan><tspan x="167.91" y="0">ed</tspan></text><text class="cls-7" transform="translate(208.86 275.13)"><tspan class="cls-19" x="0" y="0">T</tspan><tspan x="6.36" y="0">o optimi</tspan><tspan class="cls-23" x="57.71" y="0">z</tspan><tspan x="63.5" y="0">e and continuously imp</tspan><tspan class="cls-4" x="204.65" y="0">r</tspan><tspan class="cls-2" x="209.49" y="0">ov</tspan><tspan x="224.07" y="0">e our </tspan><tspan class="cls-18" x="257.46" y="0">w</tspan><tspan x="267.51" y="0">ebsi</tspan><tspan class="cls-14" x="293.25" y="0">t</tspan><tspan x="298.32" y="0">e </tspan><tspan class="cls-14" x="308.4" y="0">f</tspan><tspan class="cls-10" x="312.9" y="0">or </tspan><tspan class="cls-1" x="328.67" y="0">y</tspan><tspan class="cls-10" x="335.11" y="0">ou, </tspan><tspan class="cls-1" x="356.64" y="0">w</tspan><tspan x="366.69" y="0">e use </tspan><tspan x="0" y="14.4">cookie</tspan><tspan class="cls-18" x="41.41" y="14.4">s</tspan><tspan x="47.72" y="14.4">. </tspan><tspan class="cls-12" x="53.6" y="14.4">Y</tspan><tspan x="60.76" y="14.4">ou can accept all cookies or choose only specific one</tspan><tspan class="cls-18" x="381.8" y="14.4">s</tspan><tspan x="388.11" y="14.4">. </tspan><tspan class="cls-13" x="0" y="28.8">Y</tspan><tspan x="7.15" y="28.8">ou can change these settings at a</tspan><tspan class="cls-11" x="208.77" y="28.8">n</tspan><tspan class="cls-10" x="216.41" y="28.8">y tim</tspan><tspan class="cls-16" x="246.13" y="28.8">e</tspan><tspan x="253.38" y="28.8">.</tspan></text><text class="cls-5" transform="translate(394.31 350.41)"><tspan x="0" y="0">Settings</tspan></text><text class="cls-5" transform="translate(248.02 350.41)"><tspan class="cls-17" x="0" y="0">R</tspan><tspan x="8.52" y="0">eject</tspan></text><text class="cls-5" transform="translate(544.3 350.41)"><tspan class="cls-16" x="0" y="0">A</tspan><tspan x="9.18" y="0">ccept</tspan></text></g></svg>