<?xml version="1.0" encoding="utf-8"?>
<!-- Generator: Adobe Illustrator 27.6.1, SVG Export Plug-In . SVG Version: 6.00 Build 0)  -->
<svg version="1.1" id="Ebene_1" xmlns="http://www.w3.org/2000/svg" xmlns:xlink="http://www.w3.org/1999/xlink" x="0px" y="0px"
	 viewBox="0 0 48 48" style="enable-background:new 0 0 48 48;" xml:space="preserve">
<style type="text/css">
	.st0{fill:#707070;}
</style>
<path class="st0" d="M9,47.4c-0.8,0-1.5-0.3-2.1-0.9S6,45.2,6,44.4v-30c0-0.8,0.3-1.5,0.9-2.1c0.6-0.6,1.3-0.9,2.1-0.9h20.2l-3,3H9
	v30h30V27l3-3v20.4c0,0.8-0.3,1.5-0.9,2.1c-0.6,0.6-1.3,0.9-2.1,0.9H9z M33.1,11.8l2.1,2.1L21,28.1v4.3h4.2l14.3-14.3l2.1,2.1
	L26.5,35.4H18v-8.5L33.1,11.8z M41.7,20.2l-8.5-8.4l5-5c0.6-0.6,1.3-0.8,2.1-0.8c0.8,0,1.6,0.3,2.1,0.9l4.2,4.2
	c0.6,0.6,0.9,1.3,0.9,2.1c0,0.8-0.3,1.5-0.9,2.1L41.7,20.2z"/>
</svg>
