
<svg xmlns="http://www.w3.org/2000/svg" xmlns:xlink="http://www.w3.org/1999/xlink" version="1.1" width="1000" height="1000" viewBox="0 0 1000 1000" xml:space="preserve">
<desc>Created with Fabric.js 3.5.0</desc>
    <defs>
</defs>
    <rect x="0" y="0" width="100%" height="100%" fill="#ffffff"/>
    <g transform="matrix(0.0001 0 0 0.0001 0 0)" id="787134">
<g style="" vector-effect="non-scaling-stroke">
</g>
</g>
    <g transform="matrix(27.5403 0 0 12.7102 450.4103 828.4514)" id="358781">
<g style="" vector-effect="non-scaling-stroke">
		<g transform="matrix(1 0 0 1 0 -9)" id="menu_">
<path style="stroke: none; stroke-width: 1; stroke-dasharray: none; stroke-linecap: butt; stroke-dashoffset: 0; stroke-linejoin: miter; stroke-miterlimit: 4; is-custom-font: none; font-file-url: none; fill: rgb(0,0,0); fill-rule: nonzero; opacity: 1;" transform=" translate(-16, -7)" d="M 29 6 H 3 A 1 1 0 0 0 3 8 H 29 a 1 1 0 0 0 0 -2 Z" stroke-linecap="round"/>
</g>
    <g transform="matrix(1 0 0 1 -6.5 0)" id="menu_">
<path style="stroke: none; stroke-width: 1; stroke-dasharray: none; stroke-linecap: butt; stroke-dashoffset: 0; stroke-linejoin: miter; stroke-miterlimit: 4; is-custom-font: none; font-file-url: none; fill: rgb(0,0,0); fill-rule: nonzero; opacity: 1;" transform=" translate(-9.5, -16)" d="M 3 17 H 16 a 1 1 0 0 0 0 -2 H 3 a 1 1 0 0 0 0 2 Z" stroke-linecap="round"/>
</g>
    <g transform="matrix(1 0 0 1 -2 9)" id="menu_">
<path style="stroke: none; stroke-width: 1; stroke-dasharray: none; stroke-linecap: butt; stroke-dashoffset: 0; stroke-linejoin: miter; stroke-miterlimit: 4; is-custom-font: none; font-file-url: none; fill: rgb(0,0,0); fill-rule: nonzero; opacity: 1;" transform=" translate(-14, -25)" d="M 25 24 H 3 a 1 1 0 0 0 0 2 H 25 a 1 1 0 0 0 0 -2 Z" stroke-linecap="round"/>
</g>
</g>
</g>
    <g transform="matrix(27.5402 0 0 12.7102 450.4107 507.3985)" id="208020">
<g style="" vector-effect="non-scaling-stroke">
		<g transform="matrix(1 0 0 1 0 -9)" id="menu_">
<path style="stroke: none; stroke-width: 1; stroke-dasharray: none; stroke-linecap: butt; stroke-dashoffset: 0; stroke-linejoin: miter; stroke-miterlimit: 4; is-custom-font: none; font-file-url: none; fill: rgb(0,0,0); fill-rule: nonzero; opacity: 1;" transform=" translate(-16, -7)" d="M 29 6 H 3 A 1 1 0 0 0 3 8 H 29 a 1 1 0 0 0 0 -2 Z" stroke-linecap="round"/>
</g>
    <g transform="matrix(1 0 0 1 -6.5 0)" id="menu_">
<path style="stroke: none; stroke-width: 1; stroke-dasharray: none; stroke-linecap: butt; stroke-dashoffset: 0; stroke-linejoin: miter; stroke-miterlimit: 4; is-custom-font: none; font-file-url: none; fill: rgb(0,0,0); fill-rule: nonzero; opacity: 1;" transform=" translate(-9.5, -16)" d="M 3 17 H 16 a 1 1 0 0 0 0 -2 H 3 a 1 1 0 0 0 0 2 Z" stroke-linecap="round"/>
</g>
    <g transform="matrix(1 0 0 1 -2 9)" id="menu_">
<path style="stroke: none; stroke-width: 1; stroke-dasharray: none; stroke-linecap: butt; stroke-dashoffset: 0; stroke-linejoin: miter; stroke-miterlimit: 4; is-custom-font: none; font-file-url: none; fill: rgb(0,0,0); fill-rule: nonzero; opacity: 1;" transform=" translate(-14, -25)" d="M 25 24 H 3 a 1 1 0 0 0 0 2 H 25 a 1 1 0 0 0 0 -2 Z" stroke-linecap="round"/>
</g>
</g>
</g>
    <g transform="matrix(27.5402 0 0 12.7102 450.4086 506.176)" id="102083">
<g style="" vector-effect="non-scaling-stroke">
		<g transform="matrix(1 0 0 1 0 -9)" id="menu_">
<path style="stroke: none; stroke-width: 1; stroke-dasharray: none; stroke-linecap: butt; stroke-dashoffset: 0; stroke-linejoin: miter; stroke-miterlimit: 4; is-custom-font: none; font-file-url: none; fill: rgb(0,0,0); fill-rule: nonzero; opacity: 1;" transform=" translate(-16, -7)" d="M 29 6 H 3 A 1 1 0 0 0 3 8 H 29 a 1 1 0 0 0 0 -2 Z" stroke-linecap="round"/>
</g>
    <g transform="matrix(1 0 0 1 -6.5 0)" id="menu_">
<path style="stroke: none; stroke-width: 1; stroke-dasharray: none; stroke-linecap: butt; stroke-dashoffset: 0; stroke-linejoin: miter; stroke-miterlimit: 4; is-custom-font: none; font-file-url: none; fill: rgb(0,0,0); fill-rule: nonzero; opacity: 1;" transform=" translate(-9.5, -16)" d="M 3 17 H 16 a 1 1 0 0 0 0 -2 H 3 a 1 1 0 0 0 0 2 Z" stroke-linecap="round"/>
</g>
    <g transform="matrix(1 0 0 1 -2 9)" id="menu_">
<path style="stroke: none; stroke-width: 1; stroke-dasharray: none; stroke-linecap: butt; stroke-dashoffset: 0; stroke-linejoin: miter; stroke-miterlimit: 4; is-custom-font: none; font-file-url: none; fill: rgb(0,0,0); fill-rule: nonzero; opacity: 1;" transform=" translate(-14, -25)" d="M 25 24 H 3 a 1 1 0 0 0 0 2 H 25 a 1 1 0 0 0 0 -2 Z" stroke-linecap="round"/>
</g>
</g>
</g>
    <g transform="matrix(27.5402 0 0 12.7102 450.4107 185.1232)" id="596632">
<g style="" vector-effect="non-scaling-stroke">
		<g transform="matrix(1 0 0 1 0 -9)" id="menu_">
<path style="stroke: none; stroke-width: 1; stroke-dasharray: none; stroke-linecap: butt; stroke-dashoffset: 0; stroke-linejoin: miter; stroke-miterlimit: 4; is-custom-font: none; font-file-url: none; fill: rgb(0,0,0); fill-rule: nonzero; opacity: 1;" transform=" translate(-16, -7)" d="M 29 6 H 3 A 1 1 0 0 0 3 8 H 29 a 1 1 0 0 0 0 -2 Z" stroke-linecap="round"/>
</g>
    <g transform="matrix(1 0 0 1 -6.5 0)" id="menu_">
<path style="stroke: none; stroke-width: 1; stroke-dasharray: none; stroke-linecap: butt; stroke-dashoffset: 0; stroke-linejoin: miter; stroke-miterlimit: 4; is-custom-font: none; font-file-url: none; fill: rgb(0,0,0); fill-rule: nonzero; opacity: 1;" transform=" translate(-9.5, -16)" d="M 3 17 H 16 a 1 1 0 0 0 0 -2 H 3 a 1 1 0 0 0 0 2 Z" stroke-linecap="round"/>
</g>
    <g transform="matrix(1 0 0 1 -2 9)" id="menu_">
<path style="stroke: none; stroke-width: 1; stroke-dasharray: none; stroke-linecap: butt; stroke-dashoffset: 0; stroke-linejoin: miter; stroke-miterlimit: 4; is-custom-font: none; font-file-url: none; fill: rgb(0,0,0); fill-rule: nonzero; opacity: 1;" transform=" translate(-14, -25)" d="M 25 24 H 3 a 1 1 0 0 0 0 2 H 25 a 1 1 0 0 0 0 -2 Z" stroke-linecap="round"/>
</g>
</g>
</g>
    <g transform="matrix(5.0267 0 0 3.2252 782.3877 743.8278)" id="627641" clip-path="url(#CLIPPATH_14)">
<clipPath id="CLIPPATH_14">
	<rect transform="matrix(1 0 0 1 0.0001 0.0002)" id="clip0_302_100" x="-79" y="-79" rx="0" ry="0" width="158" height="158"/>
</clipPath>
        <path style="stroke: none; stroke-width: 1; stroke-dasharray: none; stroke-linecap: butt; stroke-dashoffset: 0; stroke-linejoin: miter; stroke-miterlimit: 4; is-custom-font: none; font-file-url: none; fill: rgb(0,153,255); fill-rule: nonzero; opacity: 1;" vector-effect="non-scaling-stroke" transform=" translate(-78.9999, -78.9998)" d="M 154.685 0.000367219 H 3.31409 C 1.48378 0.000367219 0 1.48415 0 3.31478 V 154.686 C 0 156.516 1.48378 158 3.31409 158 H 154.685 C 156.515 158 157.999 156.516 157.999 154.686 V 3.31478 C 158 3.26912 158 3.22347 157.999 3.17813 C 157.962 1.38523 156.478 -0.0373614 154.685 0.000367219 Z" stroke-linecap="round"/>
</g>
    <g transform="matrix(8.3775 0 0 8.3775 590.1675 865.073)" id="282647">
<g style="" vector-effect="non-scaling-stroke">
		<g transform="matrix(1 0 0 1 0 -9)" id="menu_">
<path style="stroke: none; stroke-width: 1; stroke-dasharray: none; stroke-linecap: butt; stroke-dashoffset: 0; stroke-linejoin: miter; stroke-miterlimit: 4; is-custom-font: none; font-file-url: none; fill: rgb(0,0,0); fill-rule: nonzero; opacity: 1;" transform=" translate(-16, -7)" d="M 29 6 H 3 A 1 1 0 0 0 3 8 H 29 a 1 1 0 0 0 0 -2 Z" stroke-linecap="round"/>
</g>
    <g transform="matrix(1 0 0 1 -6.5 0)" id="menu_">
<path style="stroke: none; stroke-width: 1; stroke-dasharray: none; stroke-linecap: butt; stroke-dashoffset: 0; stroke-linejoin: miter; stroke-miterlimit: 4; is-custom-font: none; font-file-url: none; fill: rgb(0,0,0); fill-rule: nonzero; opacity: 1;" transform=" translate(-9.5, -16)" d="M 3 17 H 16 a 1 1 0 0 0 0 -2 H 3 a 1 1 0 0 0 0 2 Z" stroke-linecap="round"/>
</g>
    <g transform="matrix(1 0 0 1 -2 9)" id="menu_">
<path style="stroke: none; stroke-width: 1; stroke-dasharray: none; stroke-linecap: butt; stroke-dashoffset: 0; stroke-linejoin: miter; stroke-miterlimit: 4; is-custom-font: none; font-file-url: none; fill: rgb(0,0,0); fill-rule: nonzero; opacity: 1;" transform=" translate(-14, -25)" d="M 25 24 H 3 a 1 1 0 0 0 0 2 H 25 a 1 1 0 0 0 0 -2 Z" stroke-linecap="round"/>
</g>
</g>
</g>
    <g transform="matrix(8.3775 0 0 8.3775 694.4797 865.0738)" id="619011">
<g style="" vector-effect="non-scaling-stroke">
		<g transform="matrix(1 0 0 1 0 -9)" id="menu_">
<path style="stroke: none; stroke-width: 1; stroke-dasharray: none; stroke-linecap: butt; stroke-dashoffset: 0; stroke-linejoin: miter; stroke-miterlimit: 4; is-custom-font: none; font-file-url: none; fill: rgb(0,0,0); fill-rule: nonzero; opacity: 1;" transform=" translate(-16, -7)" d="M 29 6 H 3 A 1 1 0 0 0 3 8 H 29 a 1 1 0 0 0 0 -2 Z" stroke-linecap="round"/>
</g>
    <g transform="matrix(1 0 0 1 -6.5 0)" id="menu_">
<path style="stroke: none; stroke-width: 1; stroke-dasharray: none; stroke-linecap: butt; stroke-dashoffset: 0; stroke-linejoin: miter; stroke-miterlimit: 4; is-custom-font: none; font-file-url: none; fill: rgb(0,0,0); fill-rule: nonzero; opacity: 1;" transform=" translate(-9.5, -16)" d="M 3 17 H 16 a 1 1 0 0 0 0 -2 H 3 a 1 1 0 0 0 0 2 Z" stroke-linecap="round"/>
</g>
    <g transform="matrix(1 0 0 1 -2 9)" id="menu_">
<path style="stroke: none; stroke-width: 1; stroke-dasharray: none; stroke-linecap: butt; stroke-dashoffset: 0; stroke-linejoin: miter; stroke-miterlimit: 4; is-custom-font: none; font-file-url: none; fill: rgb(0,0,0); fill-rule: nonzero; opacity: 1;" transform=" translate(-14, -25)" d="M 25 24 H 3 a 1 1 0 0 0 0 2 H 25 a 1 1 0 0 0 0 -2 Z" stroke-linecap="round"/>
</g>
</g>
</g>
    <g transform="matrix(8.3775 0 0 8.3775 773.1234 865.0738)" id="529912">
<g style="" vector-effect="non-scaling-stroke">
		<g transform="matrix(1 0 0 1 0 -9)" id="menu_">
<path style="stroke: none; stroke-width: 1; stroke-dasharray: none; stroke-linecap: butt; stroke-dashoffset: 0; stroke-linejoin: miter; stroke-miterlimit: 4; is-custom-font: none; font-file-url: none; fill: rgb(0,0,0); fill-rule: nonzero; opacity: 1;" transform=" translate(-16, -7)" d="M 29 6 H 3 A 1 1 0 0 0 3 8 H 29 a 1 1 0 0 0 0 -2 Z" stroke-linecap="round"/>
</g>
    <g transform="matrix(1 0 0 1 -6.5 0)" id="menu_">
<path style="stroke: none; stroke-width: 1; stroke-dasharray: none; stroke-linecap: butt; stroke-dashoffset: 0; stroke-linejoin: miter; stroke-miterlimit: 4; is-custom-font: none; font-file-url: none; fill: rgb(0,0,0); fill-rule: nonzero; opacity: 1;" transform=" translate(-9.5, -16)" d="M 3 17 H 16 a 1 1 0 0 0 0 -2 H 3 a 1 1 0 0 0 0 2 Z" stroke-linecap="round"/>
</g>
    <g transform="matrix(1 0 0 1 -2 9)" id="menu_">
<path style="stroke: none; stroke-width: 1; stroke-dasharray: none; stroke-linecap: butt; stroke-dashoffset: 0; stroke-linejoin: miter; stroke-miterlimit: 4; is-custom-font: none; font-file-url: none; fill: rgb(0,0,0); fill-rule: nonzero; opacity: 1;" transform=" translate(-14, -25)" d="M 25 24 H 3 a 1 1 0 0 0 0 2 H 25 a 1 1 0 0 0 0 -2 Z" stroke-linecap="round"/>
</g>
</g>
</g>
    <g transform="matrix(8.3775 0 0 8.3775 582.7378 829.4212)" id="52672">
<g style="" vector-effect="non-scaling-stroke">
		<g transform="matrix(1 0 0 1 0 -9)" id="menu_">
<path style="stroke: none; stroke-width: 1; stroke-dasharray: none; stroke-linecap: butt; stroke-dashoffset: 0; stroke-linejoin: miter; stroke-miterlimit: 4; is-custom-font: none; font-file-url: none; fill: rgb(0,0,0); fill-rule: nonzero; opacity: 1;" transform=" translate(-16, -7)" d="M 29 6 H 3 A 1 1 0 0 0 3 8 H 29 a 1 1 0 0 0 0 -2 Z" stroke-linecap="round"/>
</g>
    <g transform="matrix(1 0 0 1 -6.5 0)" id="menu_">
<path style="stroke: none; stroke-width: 1; stroke-dasharray: none; stroke-linecap: butt; stroke-dashoffset: 0; stroke-linejoin: miter; stroke-miterlimit: 4; is-custom-font: none; font-file-url: none; fill: rgb(0,0,0); fill-rule: nonzero; opacity: 1;" transform=" translate(-9.5, -16)" d="M 3 17 H 16 a 1 1 0 0 0 0 -2 H 3 a 1 1 0 0 0 0 2 Z" stroke-linecap="round"/>
</g>
    <g transform="matrix(1 0 0 1 -2 9)" id="menu_">
<path style="stroke: none; stroke-width: 1; stroke-dasharray: none; stroke-linecap: butt; stroke-dashoffset: 0; stroke-linejoin: miter; stroke-miterlimit: 4; is-custom-font: none; font-file-url: none; fill: rgb(0,0,0); fill-rule: nonzero; opacity: 1;" transform=" translate(-14, -25)" d="M 25 24 H 3 a 1 1 0 0 0 0 2 H 25 a 1 1 0 0 0 0 -2 Z" stroke-linecap="round"/>
</g>
</g>
</g>
    <g transform="matrix(8.3775 0 0 8.3775 682.1608 829.4212)" id="736064">
<g style="" vector-effect="non-scaling-stroke">
		<g transform="matrix(1 0 0 1 0 -9)" id="menu_">
<path style="stroke: none; stroke-width: 1; stroke-dasharray: none; stroke-linecap: butt; stroke-dashoffset: 0; stroke-linejoin: miter; stroke-miterlimit: 4; is-custom-font: none; font-file-url: none; fill: rgb(0,0,0); fill-rule: nonzero; opacity: 1;" transform=" translate(-16, -7)" d="M 29 6 H 3 A 1 1 0 0 0 3 8 H 29 a 1 1 0 0 0 0 -2 Z" stroke-linecap="round"/>
</g>
    <g transform="matrix(1 0 0 1 -6.5 0)" id="menu_">
<path style="stroke: none; stroke-width: 1; stroke-dasharray: none; stroke-linecap: butt; stroke-dashoffset: 0; stroke-linejoin: miter; stroke-miterlimit: 4; is-custom-font: none; font-file-url: none; fill: rgb(0,0,0); fill-rule: nonzero; opacity: 1;" transform=" translate(-9.5, -16)" d="M 3 17 H 16 a 1 1 0 0 0 0 -2 H 3 a 1 1 0 0 0 0 2 Z" stroke-linecap="round"/>
</g>
    <g transform="matrix(1 0 0 1 -2 9)" id="menu_">
<path style="stroke: none; stroke-width: 1; stroke-dasharray: none; stroke-linecap: butt; stroke-dashoffset: 0; stroke-linejoin: miter; stroke-miterlimit: 4; is-custom-font: none; font-file-url: none; fill: rgb(0,0,0); fill-rule: nonzero; opacity: 1;" transform=" translate(-14, -25)" d="M 25 24 H 3 a 1 1 0 0 0 0 2 H 25 a 1 1 0 0 0 0 -2 Z" stroke-linecap="round"/>
</g>
</g>
</g>
</svg>