<svg id="Ebene_2" width="841" height="595" xmlns="http://www.w3.org/2000/svg" viewBox="0 0 842.39 595.28"><defs><style>.cls-1{fill:#f7f6e8;}.cls-1,.cls-2,.cls-3,.cls-4,.cls-5{stroke-width:0px;}.cls-2{fill:#0d2a3e;}.cls-3{fill:#d3d926;}.cls-4{fill:#015d53;}.cls-5{fill:#9fc131;}</style></defs><g id="Ebene_1-2"><rect class="cls-5" x=".5" width="841.89" height="595.28" rx="17.83" ry="17.83"/><path class="cls-1" d="M0,430.09h842.39v154.33c0,5.99-4.86,10.85-10.85,10.85H10.85c-5.99,0-10.85-4.86-10.85-10.85v-154.33h0Z"/><rect class="cls-5" x="209.42" y="542.11" width="130.92" height="40.33" rx="6.68" ry="6.68"/><rect class="cls-4" x="502.2" y="542.11" width="130.92" height="40.33" rx="6.68" ry="6.68"/><rect class="cls-3" x="355.81" y="542.11" width="130.92" height="40.33" rx="6.68" ry="6.68"/><path class="cls-2" d="M219.2,464.04c-1.39,0-2.58-.25-3.57-.73s-1.8-1.13-2.43-1.91c-.62-.78-1.08-1.64-1.38-2.56-.29-.92-.44-1.81-.44-2.67v-.46c0-.95.15-1.89.45-2.81s.77-1.76,1.4-2.52c.63-.76,1.43-1.36,2.4-1.82s2.12-.68,3.46-.68,2.59.25,3.62.75,1.85,1.2,2.47,2.1c.62.9.99,1.96,1.11,3.16h-3c-.11-.7-.36-1.29-.74-1.77s-.87-.85-1.46-1.09c-.59-.25-1.25-.37-2-.37s-1.43.13-2.02.39-1.08.63-1.47,1.1-.69,1.04-.89,1.68c-.2.64-.3,1.36-.3,2.14s.1,1.46.3,2.1.51,1.21.91,1.69.91.86,1.5,1.12c.59.27,1.28.4,2.07.4,1.15,0,2.12-.28,2.91-.85s1.27-1.36,1.44-2.38h3c-.14,1.09-.51,2.09-1.11,3-.6.91-1.43,1.64-2.48,2.18-1.05.55-2.3.82-3.76.82Z"/><path class="cls-2" d="M234.32,464.04c-1.01,0-1.9-.16-2.67-.48-.77-.32-1.42-.76-1.95-1.31-.53-.55-.93-1.18-1.21-1.88s-.41-1.43-.41-2.18v-.44c0-.78.14-1.53.43-2.24.29-.71.7-1.34,1.24-1.89s1.19-.99,1.96-1.3c.77-.31,1.64-.47,2.6-.47s1.83.16,2.6.47c.77.31,1.42.75,1.96,1.3s.95,1.18,1.23,1.89c.28.71.42,1.45.42,2.24v.44c0,.76-.14,1.48-.41,2.18-.27.7-.68,1.33-1.21,1.88-.53.55-1.18.99-1.95,1.31-.77.32-1.65.48-2.65.48ZM234.32,461.55c.71,0,1.32-.16,1.81-.47.49-.32.86-.74,1.11-1.28.25-.54.38-1.15.38-1.84s-.13-1.32-.39-1.86c-.26-.54-.64-.97-1.13-1.28s-1.09-.47-1.77-.47-1.28.16-1.77.47-.88.74-1.14,1.28-.4,1.16-.4,1.86.13,1.3.39,1.84c.26.54.63.97,1.12,1.28.49.31,1.09.47,1.81.47Z"/><path class="cls-2" d="M243.1,463.65v-11.4h2.31v4.89h-.21c0-1.16.15-2.13.46-2.91s.77-1.36,1.38-1.75c.61-.39,1.37-.59,2.28-.59h.13c1.36,0,2.39.44,3.09,1.31s1.05,2.18,1.05,3.92v6.53h-2.92v-6.78c0-.7-.2-1.27-.6-1.7-.4-.43-.95-.65-1.65-.65s-1.29.22-1.73.66c-.44.44-.66,1.03-.66,1.77v6.7h-2.92Z"/><path class="cls-2" d="M260.85,464c-1.57,0-2.8-.33-3.69-1-.89-.66-1.35-1.59-1.4-2.76h2.62c.04.39.26.75.65,1.07.39.32,1.01.48,1.85.48.7,0,1.26-.13,1.67-.38.41-.25.62-.59.62-1.03,0-.38-.16-.68-.47-.9-.31-.22-.85-.37-1.61-.44l-1.01-.1c-1.27-.14-2.25-.5-2.94-1.09-.69-.59-1.03-1.37-1.03-2.35,0-.78.2-1.44.59-1.97.39-.53.93-.93,1.63-1.21.69-.27,1.49-.41,2.38-.41,1.4,0,2.53.31,3.4.92.87.62,1.32,1.52,1.36,2.71h-2.62c-.03-.39-.22-.73-.59-1.01-.36-.28-.89-.42-1.57-.42-.62,0-1.09.12-1.43.36-.34.24-.5.55-.5.92s.14.64.41.84c.27.2.72.33,1.33.4l1.01.1c1.34.14,2.4.51,3.16,1.11.76.6,1.14,1.41,1.14,2.44,0,.76-.21,1.41-.62,1.96-.41.55-.99.98-1.73,1.29s-1.62.46-2.62.46Z"/><path class="cls-2" d="M273.34,464.04c-.98,0-1.84-.17-2.57-.5s-1.34-.79-1.83-1.35c-.48-.57-.85-1.2-1.09-1.9s-.37-1.41-.37-2.14v-.4c0-.76.12-1.49.37-2.19.25-.71.61-1.34,1.09-1.89.48-.55,1.08-.99,1.8-1.32.71-.33,1.54-.49,2.48-.49,1.23,0,2.26.27,3.1.81.83.54,1.46,1.25,1.88,2.12.42.88.63,1.82.63,2.82v1.05h-10.1v-1.79h8.27l-.9.88c0-.73-.1-1.35-.31-1.87-.21-.52-.53-.92-.96-1.2-.43-.28-.96-.42-1.61-.42s-1.19.15-1.64.44c-.45.29-.79.72-1.02,1.27s-.35,1.21-.35,1.98c0,.71.11,1.35.34,1.9.22.55.57.99,1.03,1.3.46.31,1.05.47,1.76.47s1.29-.14,1.74-.43.74-.64.86-1.06h2.69c-.17.78-.49,1.47-.97,2.06-.48.59-1.08,1.04-1.82,1.37s-1.57.48-2.51.48Z"/><path class="cls-2" d="M281.26,463.65v-11.4h2.31v4.89h-.21c0-1.16.15-2.13.46-2.91s.77-1.36,1.38-1.75c.61-.39,1.37-.59,2.28-.59h.13c1.36,0,2.39.44,3.09,1.31s1.05,2.18,1.05,3.92v6.53h-2.92v-6.78c0-.7-.2-1.27-.6-1.7-.4-.43-.95-.65-1.65-.65s-1.29.22-1.73.66c-.44.44-.66,1.03-.66,1.77v6.7h-2.92Z"/><path class="cls-2" d="M293.4,454.38v-2.14h8.06v2.14h-8.06ZM299.82,463.79c-1.05,0-1.92-.14-2.59-.41-.68-.27-1.19-.73-1.52-1.39s-.5-1.53-.5-2.64l.02-10.33h2.73l-.02,10.52c0,.56.15.99.45,1.29.3.3.73.45,1.29.45h1.79v2.5h-1.64Z"/><path class="cls-2" d="M308.68,463.65v-15.44h2.98v15.44h-2.98ZM310.78,458.52v-2.42h3.91c.55,0,1.02-.11,1.42-.34.4-.22.71-.54.93-.94.22-.41.34-.87.34-1.39s-.11-1-.34-1.41c-.22-.41-.54-.72-.93-.95-.4-.22-.87-.34-1.42-.34h-3.91v-2.54h3.59c1.23,0,2.3.18,3.2.55.9.36,1.6.92,2.09,1.66.49.74.74,1.67.74,2.79v.34c0,1.13-.25,2.07-.75,2.79-.5.73-1.19,1.27-2.09,1.64-.9.36-1.96.55-3.19.55h-3.59ZM318.05,463.65l-4.7-6.68h3.34l4.85,6.68h-3.49Z"/><path class="cls-2" d="M328.46,464.04c-.98,0-1.84-.17-2.57-.5s-1.34-.79-1.83-1.35c-.48-.57-.85-1.2-1.09-1.9s-.37-1.41-.37-2.14v-.4c0-.76.12-1.49.37-2.19.25-.71.61-1.34,1.09-1.89.48-.55,1.08-.99,1.8-1.32.71-.33,1.54-.49,2.48-.49,1.23,0,2.26.27,3.1.81.83.54,1.46,1.25,1.88,2.12.42.88.63,1.82.63,2.82v1.05h-10.1v-1.79h8.27l-.9.88c0-.73-.1-1.35-.31-1.87-.21-.52-.53-.92-.96-1.2-.43-.28-.96-.42-1.61-.42s-1.19.15-1.64.44c-.45.29-.79.72-1.02,1.27s-.35,1.21-.35,1.98c0,.71.11,1.35.34,1.9.22.55.57.99,1.03,1.3.46.31,1.05.47,1.76.47s1.29-.14,1.74-.43.74-.64.86-1.06h2.69c-.17.78-.49,1.47-.97,2.06-.48.59-1.08,1.04-1.82,1.37s-1.57.48-2.51.48Z"/><path class="cls-2" d="M344.82,467.85v-7.58l.86-1.34c-.04,1.09-.27,2.02-.67,2.78s-.95,1.34-1.64,1.73c-.69.39-1.48.59-2.37.59-.81,0-1.55-.15-2.21-.45-.66-.3-1.22-.72-1.69-1.26-.47-.54-.83-1.16-1.09-1.87-.26-.71-.39-1.47-.39-2.3v-.44c0-.81.13-1.57.4-2.28.27-.71.64-1.32,1.12-1.85.48-.53,1.06-.94,1.72-1.24.67-.3,1.41-.45,2.24-.45.95,0,1.78.2,2.48.61.7.41,1.25,1,1.65,1.77.4.78.62,1.73.66,2.85h-.46v-4.87h2.31v15.6h-2.92ZM341.76,461.52c.57,0,1.1-.13,1.58-.39.48-.26.86-.64,1.14-1.13.29-.5.43-1.08.43-1.75v-.84c0-.67-.15-1.24-.44-1.69-.29-.45-.68-.8-1.16-1.05-.48-.24-.99-.37-1.55-.37-.63,0-1.19.15-1.67.45-.48.3-.86.73-1.13,1.28-.27.55-.41,1.19-.41,1.9s.14,1.34.42,1.88c.28.54.66.96,1.14,1.26.48.3,1.03.45,1.65.45Z"/><path class="cls-2" d="M354.95,464c-1.32,0-2.33-.43-3.06-1.3s-1.08-2.16-1.08-3.86v-6.61h2.92v6.87c0,.7.2,1.26.59,1.67.39.41.92.62,1.6.62s1.22-.22,1.65-.65c.43-.43.64-1.02.64-1.76v-6.74h2.92v11.42h-2.31v-4.85h.23c0,1.15-.15,2.11-.44,2.88-.29.77-.74,1.35-1.32,1.74s-1.32.59-2.21.59h-.13Z"/><path class="cls-2" d="M363.43,454.43v-2.18h4.51v2.18h-4.51ZM366.1,450.88c-.57,0-1-.15-1.27-.45-.27-.3-.41-.68-.41-1.14s.14-.84.41-1.13c.27-.29.7-.44,1.27-.44s.99.15,1.26.44c.27.29.4.67.4,1.13s-.13.84-.4,1.14c-.27.3-.69.45-1.26.45ZM365.03,463.65v-11.4h2.92v11.4h-2.92Z"/><path class="cls-2" d="M371.31,463.65v-11.4h2.31v4.83h-.06c0-1.64.35-2.88,1.05-3.72s1.73-1.26,3.09-1.26h.42v2.54h-.8c-.98,0-1.74.26-2.28.79-.54.53-.81,1.28-.81,2.28v5.94h-2.92Z"/><path class="cls-2" d="M385.08,464.04c-.98,0-1.84-.17-2.57-.5s-1.34-.79-1.83-1.35c-.48-.57-.85-1.2-1.09-1.9s-.37-1.41-.37-2.14v-.4c0-.76.12-1.49.37-2.19.25-.71.61-1.34,1.09-1.89.48-.55,1.08-.99,1.8-1.32.71-.33,1.54-.49,2.48-.49,1.23,0,2.26.27,3.1.81.83.54,1.46,1.25,1.88,2.12.42.88.63,1.82.63,2.82v1.05h-10.1v-1.79h8.27l-.9.88c0-.73-.1-1.35-.31-1.87-.21-.52-.53-.92-.96-1.2-.43-.28-.96-.42-1.61-.42s-1.19.15-1.64.44c-.45.29-.79.72-1.02,1.27s-.35,1.21-.35,1.98c0,.71.11,1.35.34,1.9.22.55.57.99,1.03,1.3.46.31,1.05.47,1.76.47s1.29-.14,1.74-.43.74-.64.86-1.06h2.69c-.17.78-.49,1.47-.97,2.06-.48.59-1.08,1.04-1.82,1.37s-1.57.48-2.51.48Z"/><path class="cls-2" d="M397.72,464.02c-.8,0-1.53-.15-2.21-.44s-1.25-.71-1.74-1.24c-.49-.53-.87-1.15-1.13-1.86-.27-.71-.4-1.47-.4-2.3v-.44c0-.81.13-1.58.39-2.29.26-.71.62-1.34,1.09-1.87.47-.53,1.04-.95,1.7-1.25.66-.3,1.4-.45,2.21-.45.9,0,1.68.19,2.36.58.68.39,1.22.96,1.63,1.73.41.77.63,1.74.67,2.9l-.86-1.01v-7.77h2.92v15.33h-2.31v-4.85h.5c-.04,1.16-.28,2.13-.71,2.91-.43.78-1,1.36-1.71,1.74-.71.39-1.51.58-2.4.58ZM398.37,461.57c.57,0,1.1-.13,1.58-.39.48-.26.86-.64,1.14-1.13.29-.5.43-1.08.43-1.75v-.84c0-.67-.15-1.24-.44-1.69-.29-.45-.68-.8-1.16-1.05-.48-.24-.99-.37-1.55-.37-.63,0-1.19.15-1.67.45-.48.3-.86.72-1.13,1.27-.27.55-.41,1.18-.41,1.91s.14,1.36.42,1.9c.28.54.66.96,1.14,1.25.48.29,1.03.44,1.65.44Z"/><path class="cls-2" d="M209.67,482.47v-1.06h6.5v1.06h-6.5ZM212.34,490.17v-7.94h1.18v7.94h-1.18Z"/><path class="cls-2" d="M219.78,490.39c-.56,0-1.05-.1-1.48-.29-.42-.19-.78-.45-1.07-.76s-.51-.67-.66-1.06c-.15-.39-.22-.79-.22-1.2v-.22c0-.41.08-.81.23-1.21.15-.4.38-.75.67-1.07.3-.32.66-.57,1.08-.76.42-.19.91-.28,1.45-.28s1.03.09,1.45.28.78.44,1.08.76.52.67.67,1.07c.15.4.23.8.23,1.21v.22c0,.41-.07.81-.22,1.2-.15.39-.37.75-.66,1.06-.29.32-.65.57-1.07.76-.42.19-.92.29-1.48.29ZM219.78,489.36c.48,0,.89-.11,1.23-.32s.6-.5.78-.86c.18-.36.27-.76.27-1.21s-.09-.86-.28-1.22c-.18-.36-.45-.64-.79-.85-.34-.21-.75-.31-1.22-.31s-.87.1-1.21.31-.61.49-.79.85c-.18.36-.28.77-.28,1.22s.09.85.27,1.21c.18.36.44.65.78.86s.75.32,1.23.32Z"/><path class="cls-2" d="M230.63,490.39c-.56,0-1.05-.1-1.48-.29-.42-.19-.78-.45-1.07-.76s-.51-.67-.66-1.06c-.15-.39-.22-.79-.22-1.2v-.22c0-.41.08-.81.23-1.21.15-.4.38-.75.67-1.07.3-.32.66-.57,1.08-.76.42-.19.91-.28,1.45-.28s1.03.09,1.45.28.78.44,1.08.76.52.67.67,1.07c.15.4.23.8.23,1.21v.22c0,.41-.07.81-.22,1.2-.15.39-.37.75-.66,1.06-.29.32-.65.57-1.07.76-.42.19-.92.29-1.48.29ZM230.63,489.36c.48,0,.89-.11,1.23-.32s.6-.5.78-.86c.18-.36.27-.76.27-1.21s-.09-.86-.28-1.22c-.18-.36-.45-.64-.79-.85-.34-.21-.75-.31-1.22-.31s-.87.1-1.21.31-.61.49-.79.85c-.18.36-.28.77-.28,1.22s.09.85.27,1.21c.18.36.44.65.78.86s.75.32,1.23.32Z"/><path class="cls-2" d="M235.79,492.57v-8.81h.91v2.77l-.22-.02c.04-.69.19-1.25.44-1.69.25-.44.58-.76.99-.97.41-.21.85-.31,1.33-.31s.89.09,1.27.26.71.42.98.72c.27.3.48.66.62,1.06.14.4.22.82.22,1.27v.22c0,.45-.08.87-.23,1.27-.15.4-.37.75-.64,1.06-.28.3-.6.54-.98.72s-.8.26-1.25.26-.89-.1-1.31-.3-.76-.52-1.03-.97c-.27-.45-.43-1.04-.47-1.76l.53.96v4.26h-1.15ZM239.04,489.38c.43,0,.81-.1,1.13-.31.32-.2.57-.49.74-.85.18-.36.26-.78.26-1.25s-.09-.9-.26-1.26c-.18-.36-.42-.64-.74-.85-.32-.2-.7-.31-1.13-.31-.38,0-.74.09-1.07.26s-.59.42-.79.74c-.2.32-.29.71-.29,1.17v.55c0,.44.1.82.3,1.13s.46.55.79.72.68.25,1.06.25Z"/><path class="cls-2" d="M243.12,484.63v-.86h4.42v.86h-4.42ZM246.55,490.24c-.48,0-.89-.07-1.24-.2-.35-.14-.62-.37-.8-.7-.19-.33-.28-.78-.28-1.35v-6.17h1.1v6.31c0,.34.09.61.28.8.19.19.45.28.8.28h1.13v1.03h-.98Z"/><path class="cls-2" d="M248.49,484.68v-.91h2.14v.91h-2.14ZM249.8,482.73c-.26,0-.45-.07-.57-.2-.12-.14-.19-.31-.19-.52s.06-.38.19-.52c.12-.14.31-.2.57-.2s.45.07.57.2c.12.14.19.31.19.52s-.06.38-.19.52c-.12.14-.31.2-.57.2ZM249.48,490.17v-6.41h1.15v6.41h-1.15Z"/><path class="cls-2" d="M252.86,490.17v-6.41h.91v2.75h-.14c0-.62.08-1.15.25-1.59s.41-.77.74-1c.33-.23.74-.35,1.25-.35h.05c.5,0,.92.12,1.25.35s.58.57.74,1,.24.97.24,1.59h-.34c0-.62.08-1.15.25-1.59s.42-.77.75-1,.75-.35,1.25-.35h.05c.5,0,.92.12,1.26.35s.59.57.75,1c.16.44.25.97.25,1.59v3.66h-1.15v-3.91c0-.52-.13-.92-.38-1.21-.26-.28-.61-.43-1.07-.43s-.85.15-1.14.45c-.29.3-.43.72-.43,1.25v3.84h-1.15v-3.91c0-.52-.13-.92-.38-1.21-.26-.28-.61-.43-1.07-.43s-.85.15-1.14.45c-.29.3-.43.72-.43,1.25v3.84h-1.15Z"/><path class="cls-2" d="M263.81,484.68v-.91h2.14v.91h-2.14ZM265.11,482.73c-.26,0-.45-.07-.57-.2-.12-.14-.19-.31-.19-.52s.06-.38.19-.52c.12-.14.31-.2.57-.2s.45.07.57.2c.12.14.19.31.19.52s-.06.38-.19.52c-.12.14-.31.2-.57.2ZM264.79,490.17v-6.41h1.15v6.41h-1.15Z"/><path class="cls-2" d="M267.77,490.17v-1.28l3.49-4.19v.19l-.19-.29.16.07h-3.5v-.91h4.56v1.28l-3.49,4.19v-.17l.22.3-.17-.11h3.64v.91h-4.7Z"/><path class="cls-2" d="M276.69,490.39c-.56,0-1.04-.1-1.45-.29-.41-.19-.74-.45-1-.76s-.45-.67-.57-1.06-.19-.79-.19-1.2v-.22c0-.42.06-.82.19-1.21s.31-.75.57-1.06.58-.57.98-.76c.4-.19.86-.28,1.4-.28.7,0,1.27.15,1.72.45.45.3.79.69,1.01,1.16.22.47.33.98.33,1.51v.52h-5.69v-.86h4.85l-.26.47c0-.46-.07-.85-.22-1.18-.14-.33-.36-.59-.65-.77s-.65-.28-1.09-.28-.83.1-1.13.31c-.3.21-.52.49-.67.85-.15.36-.22.78-.22,1.25s.07.87.22,1.23c.15.36.38.65.69.86.31.21.71.32,1.19.32s.91-.11,1.23-.34c.32-.22.51-.48.57-.78h1.08c-.09.44-.26.82-.53,1.14-.26.32-.6.56-1,.73-.4.17-.85.25-1.36.25Z"/><path class="cls-2" d="M285.83,490.34c-.48,0-.89-.08-1.24-.25-.35-.16-.62-.4-.8-.71-.19-.31-.28-.69-.28-1.13s.1-.84.31-1.14c.2-.3.5-.53.89-.69s.86-.23,1.42-.23h1.74v.86h-1.79c-.46,0-.82.11-1.07.34-.25.22-.37.51-.37.86s.12.64.37.85c.25.22.6.32,1.07.32.27,0,.53-.05.78-.15.25-.1.45-.27.62-.5s.25-.56.27-.98l.31.46c-.04.46-.15.84-.33,1.15-.18.31-.43.54-.74.7-.32.16-.7.24-1.15.24ZM287.93,490.17v-1.92h-.19v-2.22c0-.44-.11-.77-.34-1-.23-.22-.56-.34-1-.34-.25,0-.5,0-.77.01-.26,0-.52.02-.76.02-.24,0-.45.02-.62.04v-1.01c.18-.02.36-.03.56-.04.2-.01.4-.02.61-.02.21,0,.41,0,.6,0,.66,0,1.19.08,1.61.23.42.16.72.41.92.76s.3.83.3,1.43v4.06h-.91Z"/><path class="cls-2" d="M290.95,490.17v-6.41h.91v2.75h-.14c0-.63.09-1.17.26-1.6.17-.44.43-.77.79-1,.35-.23.8-.34,1.33-.34h.05c.81,0,1.41.25,1.79.76.39.5.58,1.23.58,2.18v3.66h-1.15v-3.9c0-.5-.14-.89-.42-1.19-.28-.3-.66-.45-1.15-.45s-.91.16-1.22.47c-.31.31-.47.73-.47,1.25v3.83h-1.15Z"/><path class="cls-2" d="M301.31,490.39c-.46,0-.88-.08-1.26-.25-.38-.17-.72-.4-1-.71-.28-.3-.5-.66-.66-1.06-.16-.4-.23-.83-.23-1.3v-.22c0-.46.08-.88.23-1.28.15-.4.37-.75.64-1.06.28-.3.6-.54.98-.71.38-.17.8-.26,1.27-.26.49,0,.93.1,1.33.31.4.2.73.52.98.95.26.43.4.99.43,1.68l-.48-.77v-4.31h1.15v8.76h-.91v-2.84h.34c-.03.73-.18,1.32-.46,1.77-.27.45-.61.78-1.03.98-.41.2-.85.31-1.33.31ZM301.46,489.38c.39,0,.75-.09,1.07-.26.32-.18.58-.43.77-.76.19-.33.29-.72.29-1.17v-.55c0-.44-.1-.81-.29-1.12-.2-.31-.46-.54-.78-.71-.32-.16-.68-.25-1.06-.25-.42,0-.8.1-1.12.3s-.58.48-.76.84-.27.78-.27,1.27.09.91.28,1.28c.18.36.44.64.77.84.33.2.7.29,1.12.29Z"/><path class="cls-2" d="M312.38,490.39c-.55,0-1.03-.1-1.43-.29-.4-.19-.74-.45-1-.77-.26-.32-.46-.68-.59-1.07s-.2-.78-.2-1.18v-.22c0-.41.07-.81.2-1.2.13-.39.33-.75.6-1.06.27-.32.6-.57,1-.76s.87-.29,1.4-.29,1.02.1,1.45.3c.43.2.77.48,1.03.85.26.36.41.79.44,1.29h-1.1c-.06-.4-.24-.73-.55-1-.31-.27-.73-.4-1.26-.4-.46,0-.84.1-1.14.31-.3.21-.53.49-.68.85-.15.36-.23.77-.23,1.22s.08.84.23,1.21c.15.36.38.65.69.86.31.21.69.32,1.16.32.36,0,.67-.06.94-.19s.48-.3.64-.52c.16-.22.26-.46.29-.73h1.1c-.02.5-.17.94-.44,1.31-.27.37-.62.65-1.06.86-.44.2-.93.31-1.47.31Z"/><path class="cls-2" d="M319.86,490.39c-.56,0-1.05-.1-1.48-.29-.42-.19-.78-.45-1.07-.76s-.51-.67-.66-1.06c-.15-.39-.22-.79-.22-1.2v-.22c0-.41.08-.81.23-1.21.15-.4.38-.75.67-1.07.3-.32.66-.57,1.08-.76.42-.19.91-.28,1.45-.28s1.03.09,1.45.28.78.44,1.08.76.52.67.67,1.07c.15.4.23.8.23,1.21v.22c0,.41-.07.81-.22,1.2-.15.39-.37.75-.66,1.06-.29.32-.65.57-1.07.76-.42.19-.92.29-1.48.29ZM319.86,489.36c.48,0,.89-.11,1.23-.32s.6-.5.78-.86c.18-.36.27-.76.27-1.21s-.09-.86-.28-1.22c-.18-.36-.45-.64-.79-.85-.34-.21-.75-.31-1.22-.31s-.87.1-1.21.31-.61.49-.79.85c-.18.36-.28.77-.28,1.22s.09.85.27,1.21c.18.36.44.65.78.86s.75.32,1.23.32Z"/><path class="cls-2" d="M325.02,490.17v-6.41h.91v2.75h-.14c0-.63.09-1.17.26-1.6.17-.44.43-.77.79-1,.35-.23.8-.34,1.33-.34h.05c.81,0,1.41.25,1.79.76.39.5.58,1.23.58,2.18v3.66h-1.15v-3.9c0-.5-.14-.89-.42-1.19-.28-.3-.66-.45-1.15-.45s-.91.16-1.22.47c-.31.31-.47.73-.47,1.25v3.83h-1.15Z"/><path class="cls-2" d="M331.76,484.63v-.86h4.42v.86h-4.42ZM335.19,490.24c-.48,0-.89-.07-1.24-.2-.35-.14-.62-.37-.8-.7-.19-.33-.28-.78-.28-1.35v-6.17h1.1v6.31c0,.34.09.61.28.8.19.19.45.28.8.28h1.13v1.03h-.98Z"/><path class="cls-2" d="M337.14,484.68v-.91h2.14v.91h-2.14ZM338.45,482.73c-.26,0-.45-.07-.57-.2-.12-.14-.19-.31-.19-.52s.06-.38.19-.52c.12-.14.31-.2.57-.2s.45.07.57.2c.12.14.19.31.19.52s-.06.38-.19.52c-.12.14-.31.2-.57.2ZM338.12,490.17v-6.41h1.15v6.41h-1.15Z"/><path class="cls-2" d="M341.51,490.17v-6.41h.91v2.75h-.14c0-.63.09-1.17.26-1.6.17-.44.43-.77.79-1,.35-.23.8-.34,1.33-.34h.05c.81,0,1.41.25,1.79.76.39.5.58,1.23.58,2.18v3.66h-1.15v-3.9c0-.5-.14-.89-.42-1.19-.28-.3-.66-.45-1.15-.45s-.91.16-1.22.47c-.31.31-.47.73-.47,1.25v3.83h-1.15Z"/><path class="cls-2" d="M351.41,490.36c-.76,0-1.34-.25-1.75-.74s-.61-1.21-.61-2.15v-3.72h1.15v3.95c0,.5.14.9.41,1.18.27.28.64.43,1.1.43s.87-.15,1.18-.46c.3-.31.46-.73.46-1.27v-3.83h1.15v6.42h-.91v-2.75h.14c0,.63-.08,1.17-.25,1.6s-.42.77-.75,1-.75.34-1.27.34h-.05Z"/><path class="cls-2" d="M359.67,490.39c-.56,0-1.05-.1-1.48-.29-.42-.19-.78-.45-1.07-.76s-.51-.67-.66-1.06c-.15-.39-.22-.79-.22-1.2v-.22c0-.41.08-.81.23-1.21.15-.4.38-.75.67-1.07.3-.32.66-.57,1.08-.76.42-.19.91-.28,1.45-.28s1.03.09,1.45.28.78.44,1.08.76.52.67.67,1.07c.15.4.23.8.23,1.21v.22c0,.41-.07.81-.22,1.2-.15.39-.37.75-.66,1.06-.29.32-.65.57-1.07.76-.42.19-.92.29-1.48.29ZM359.67,489.36c.48,0,.89-.11,1.23-.32s.6-.5.78-.86c.18-.36.27-.76.27-1.21s-.09-.86-.28-1.22c-.18-.36-.45-.64-.79-.85-.34-.21-.75-.31-1.22-.31s-.87.1-1.21.31-.61.49-.79.85c-.18.36-.28.77-.28,1.22s.09.85.27,1.21c.18.36.44.65.78.86s.75.32,1.23.32Z"/><path class="cls-2" d="M367.05,490.36c-.76,0-1.34-.25-1.75-.74s-.61-1.21-.61-2.15v-3.72h1.15v3.95c0,.5.14.9.41,1.18.27.28.64.43,1.1.43s.87-.15,1.18-.46c.3-.31.46-.73.46-1.27v-3.83h1.15v6.42h-.91v-2.75h.14c0,.63-.08,1.17-.25,1.6s-.42.77-.75,1-.75.34-1.27.34h-.05Z"/><path class="cls-2" d="M374.47,490.36c-.84,0-1.49-.18-1.95-.54-.46-.36-.7-.85-.71-1.48h1.08c.02.25.14.48.38.7.24.22.64.33,1.21.33.51,0,.9-.1,1.18-.31.27-.2.41-.45.41-.75,0-.26-.1-.47-.3-.62-.2-.15-.52-.25-.97-.29l-.7-.07c-.61-.06-1.1-.25-1.49-.55-.38-.3-.58-.72-.58-1.27,0-.41.1-.76.31-1.05s.5-.52.86-.67c.37-.16.79-.23,1.27-.23.72,0,1.3.16,1.75.48.45.32.68.8.7,1.43h-1.08c0-.26-.13-.47-.35-.65-.23-.18-.57-.27-1.01-.27s-.79.09-1.02.28c-.23.18-.35.42-.35.7,0,.24.08.43.25.58s.43.24.81.28l.7.07c.69.07,1.24.26,1.66.57s.62.74.62,1.3c0,.4-.11.75-.34,1.06-.23.31-.54.55-.94.72s-.86.26-1.38.26Z"/><path class="cls-2" d="M377.99,482.32v-.91h2.04v.91h-2.04ZM378.87,490.17v-8.76h1.15v8.76h-1.15Z"/><path class="cls-2" d="M383.64,490.03l-2.29-6.26h1.18l2.2,6.26h-1.08ZM381.8,492.67v-1.03h.92c.27,0,.5-.03.69-.1.19-.07.34-.18.47-.34.12-.16.23-.37.31-.64l2.02-6.79h1.13l-2.14,7.09c-.13.42-.31.77-.54,1.04-.23.27-.51.46-.85.59s-.72.19-1.16.19h-.85ZM383.76,490.03v-.96h1.39v.96h-1.39Z"/><path class="cls-2" d="M390.86,484.68v-.91h2.14v.91h-2.14ZM392.17,482.73c-.26,0-.45-.07-.57-.2-.12-.14-.19-.31-.19-.52s.06-.38.19-.52c.12-.14.31-.2.57-.2s.45.07.57.2c.12.14.19.31.19.52s-.06.38-.19.52c-.12.14-.31.2-.57.2ZM391.85,490.17v-6.41h1.15v6.41h-1.15Z"/><path class="cls-2" d="M395.23,490.17v-6.41h.91v2.75h-.14c0-.62.08-1.15.25-1.59s.41-.77.74-1c.33-.23.74-.35,1.25-.35h.05c.5,0,.92.12,1.25.35s.58.57.74,1,.24.97.24,1.59h-.34c0-.62.08-1.15.25-1.59s.42-.77.75-1,.75-.35,1.25-.35h.05c.5,0,.92.12,1.26.35s.59.57.75,1c.16.44.25.97.25,1.59v3.66h-1.15v-3.91c0-.52-.13-.92-.38-1.21-.26-.28-.61-.43-1.07-.43s-.85.15-1.14.45c-.29.3-.43.72-.43,1.25v3.84h-1.15v-3.91c0-.52-.13-.92-.38-1.21-.26-.28-.61-.43-1.07-.43s-.85.15-1.14.45c-.29.3-.43.72-.43,1.25v3.84h-1.15Z"/><path class="cls-2" d="M406.84,492.57v-8.81h.91v2.77l-.22-.02c.04-.69.19-1.25.44-1.69.25-.44.58-.76.99-.97.41-.21.85-.31,1.33-.31s.89.09,1.27.26.71.42.98.72c.27.3.48.66.62,1.06.14.4.22.82.22,1.27v.22c0,.45-.08.87-.23,1.27-.15.4-.37.75-.64,1.06-.28.3-.6.54-.98.72s-.8.26-1.25.26-.89-.1-1.31-.3-.76-.52-1.03-.97c-.27-.45-.43-1.04-.47-1.76l.53.96v4.26h-1.15ZM410.1,489.38c.43,0,.81-.1,1.13-.31.32-.2.57-.49.74-.85.18-.36.26-.78.26-1.25s-.09-.9-.26-1.26c-.18-.36-.42-.64-.74-.85-.32-.2-.7-.31-1.13-.31-.38,0-.74.09-1.07.26s-.59.42-.79.74c-.2.32-.29.71-.29,1.17v.55c0,.44.1.82.3,1.13s.46.55.79.72.68.25,1.06.25Z"/><path class="cls-2" d="M415.11,490.17v-6.41h.91v2.64h-.05c0-.94.21-1.62.62-2.06.41-.44,1.03-.65,1.85-.65h.22v1.03h-.41c-.64,0-1.13.17-1.48.51-.34.34-.52.83-.52,1.47v3.47h-1.15Z"/><path class="cls-2" d="M422.91,490.39c-.56,0-1.05-.1-1.48-.29-.42-.19-.78-.45-1.07-.76s-.51-.67-.66-1.06c-.15-.39-.22-.79-.22-1.2v-.22c0-.41.08-.81.23-1.21.15-.4.38-.75.67-1.07.3-.32.66-.57,1.08-.76.42-.19.91-.28,1.45-.28s1.03.09,1.45.28.78.44,1.08.76.52.67.67,1.07c.15.4.23.8.23,1.21v.22c0,.41-.07.81-.22,1.2-.15.39-.37.75-.66,1.06-.29.32-.65.57-1.07.76-.42.19-.92.29-1.48.29ZM422.91,489.36c.48,0,.89-.11,1.23-.32s.6-.5.78-.86c.18-.36.27-.76.27-1.21s-.09-.86-.28-1.22c-.18-.36-.45-.64-.79-.85-.34-.21-.75-.31-1.22-.31s-.87.1-1.21.31-.61.49-.79.85c-.18.36-.28.77-.28,1.22s.09.85.27,1.21c.18.36.44.65.78.86s.75.32,1.23.32Z"/><path class="cls-2" d="M429.32,490.17l-2.18-6.41h1.2l2.14,6.41h-1.15ZM429.61,490.17v-.91h1.39v.91h-1.39ZM430.16,490.17l1.86-6.41h1.13l-1.9,6.41h-1.09Z"/><path class="cls-2" d="M437.27,490.39c-.56,0-1.04-.1-1.45-.29-.41-.19-.74-.45-1-.76s-.45-.67-.57-1.06-.19-.79-.19-1.2v-.22c0-.42.06-.82.19-1.21s.31-.75.57-1.06.58-.57.98-.76c.4-.19.86-.28,1.4-.28.7,0,1.27.15,1.72.45.45.3.79.69,1.01,1.16.22.47.33.98.33,1.51v.52h-5.69v-.86h4.85l-.26.47c0-.46-.07-.85-.22-1.18-.14-.33-.36-.59-.65-.77s-.65-.28-1.09-.28-.83.1-1.13.31c-.3.21-.52.49-.67.85-.15.36-.22.78-.22,1.25s.07.87.22,1.23c.15.36.38.65.69.86.31.21.71.32,1.19.32s.91-.11,1.23-.34c.32-.22.51-.48.57-.78h1.08c-.09.44-.26.82-.53,1.14-.26.32-.6.56-1,.73-.4.17-.85.25-1.36.25Z"/><path class="cls-2" d="M447.57,490.39c-.56,0-1.05-.1-1.48-.29-.42-.19-.78-.45-1.07-.76s-.51-.67-.66-1.06c-.15-.39-.22-.79-.22-1.2v-.22c0-.41.08-.81.23-1.21.15-.4.38-.75.67-1.07.3-.32.66-.57,1.08-.76.42-.19.91-.28,1.45-.28s1.03.09,1.45.28.78.44,1.08.76.52.67.67,1.07c.15.4.23.8.23,1.21v.22c0,.41-.07.81-.22,1.2-.15.39-.37.75-.66,1.06-.29.32-.65.57-1.07.76-.42.19-.92.29-1.48.29ZM447.57,489.36c.48,0,.89-.11,1.23-.32s.6-.5.78-.86c.18-.36.27-.76.27-1.21s-.09-.86-.28-1.22c-.18-.36-.45-.64-.79-.85-.34-.21-.75-.31-1.22-.31s-.87.1-1.21.31-.61.49-.79.85c-.18.36-.28.77-.28,1.22s.09.85.27,1.21c.18.36.44.65.78.86s.75.32,1.23.32Z"/><path class="cls-2" d="M454.95,490.36c-.76,0-1.34-.25-1.75-.74s-.61-1.21-.61-2.15v-3.72h1.15v3.95c0,.5.14.9.41,1.18.27.28.64.43,1.1.43s.87-.15,1.18-.46c.3-.31.46-.73.46-1.27v-3.83h1.15v6.42h-.91v-2.75h.14c0,.63-.08,1.17-.25,1.6s-.42.77-.75,1-.75.34-1.27.34h-.05Z"/><path class="cls-2" d="M460.27,490.17v-6.41h.91v2.64h-.05c0-.94.21-1.62.62-2.06.41-.44,1.03-.65,1.85-.65h.22v1.03h-.41c-.64,0-1.13.17-1.48.51-.34.34-.52.83-.52,1.47v3.47h-1.15Z"/><path class="cls-2" d="M468.94,490.17l-1.81-6.41h1.1l1.76,6.41h-1.06ZM469.21,490.17v-.91h1.33v.91h-1.33ZM469.8,490.17l1.3-6.19h1.56l1.51,6.19h-.98l-1.51-6.17h.38l-1.31,6.17h-.95ZM473.42,490.17v-.91h1.33v.91h-1.33ZM473.96,490.17l1.54-6.41h1.04l-1.57,6.41h-1.01Z"/><path class="cls-2" d="M480.71,490.39c-.56,0-1.04-.1-1.45-.29-.41-.19-.74-.45-1-.76s-.45-.67-.57-1.06-.19-.79-.19-1.2v-.22c0-.42.06-.82.19-1.21s.31-.75.57-1.06.58-.57.98-.76c.4-.19.86-.28,1.4-.28.7,0,1.27.15,1.72.45.45.3.79.69,1.01,1.16.22.47.33.98.33,1.51v.52h-5.69v-.86h4.85l-.26.47c0-.46-.07-.85-.22-1.18-.14-.33-.36-.59-.65-.77s-.65-.28-1.09-.28-.83.1-1.13.31c-.3.21-.52.49-.67.85-.15.36-.22.78-.22,1.25s.07.87.22,1.23c.15.36.38.65.69.86.31.21.71.32,1.19.32s.91-.11,1.23-.34c.32-.22.51-.48.57-.78h1.08c-.09.44-.26.82-.53,1.14-.26.32-.6.56-1,.73-.4.17-.85.25-1.36.25Z"/><path class="cls-2" d="M488.71,490.39c-.53,0-1-.12-1.41-.35s-.74-.57-.98-1.01c-.24-.44-.37-.98-.4-1.6h.31v2.75h-.91v-8.76h1.15v4.26l-.41.88c.03-.7.17-1.26.42-1.7.25-.44.57-.77.98-.98.4-.21.85-.32,1.34-.32.46,0,.87.09,1.25.26.38.17.7.41.97.71.27.3.48.65.62,1.04.14.4.22.82.22,1.28v.22c0,.46-.07.88-.22,1.28s-.36.75-.64,1.06c-.28.31-.61.55-1,.73-.39.18-.82.26-1.29.26ZM488.58,489.38c.43,0,.81-.1,1.13-.31.32-.21.57-.49.74-.86.18-.36.26-.79.26-1.27s-.09-.9-.27-1.26c-.18-.36-.43-.64-.75-.83-.32-.2-.69-.29-1.12-.29-.38,0-.74.09-1.07.26s-.59.42-.79.74c-.2.32-.29.71-.29,1.17v.55c0,.44.1.82.3,1.13s.46.55.79.72.68.25,1.06.25Z"/><path class="cls-2" d="M495.69,490.36c-.84,0-1.49-.18-1.95-.54-.46-.36-.7-.85-.71-1.48h1.08c.02.25.14.48.38.7.24.22.64.33,1.21.33.51,0,.9-.1,1.18-.31.27-.2.41-.45.41-.75,0-.26-.1-.47-.3-.62-.2-.15-.52-.25-.97-.29l-.7-.07c-.61-.06-1.1-.25-1.49-.55-.38-.3-.58-.72-.58-1.27,0-.41.1-.76.31-1.05s.5-.52.86-.67c.37-.16.79-.23,1.27-.23.72,0,1.3.16,1.75.48.45.32.68.8.7,1.43h-1.08c0-.26-.13-.47-.35-.65-.23-.18-.57-.27-1.01-.27s-.79.09-1.02.28c-.23.18-.35.42-.35.7,0,.24.08.43.25.58s.43.24.81.28l.7.07c.69.07,1.24.26,1.66.57s.62.74.62,1.3c0,.4-.11.75-.34,1.06-.23.31-.54.55-.94.72s-.86.26-1.38.26Z"/><path class="cls-2" d="M499.35,484.68v-.91h2.14v.91h-2.14ZM500.66,482.73c-.26,0-.45-.07-.57-.2-.12-.14-.19-.31-.19-.52s.06-.38.19-.52c.12-.14.31-.2.57-.2s.45.07.57.2c.12.14.19.31.19.52s-.06.38-.19.52c-.12.14-.31.2-.57.2ZM500.34,490.17v-6.41h1.15v6.41h-1.15Z"/><path class="cls-2" d="M502.78,484.63v-.86h4.42v.86h-4.42ZM506.22,490.24c-.48,0-.89-.07-1.24-.2-.35-.14-.62-.37-.8-.7-.19-.33-.28-.78-.28-1.35v-6.17h1.1v6.31c0,.34.09.61.28.8.19.19.45.28.8.28h1.13v1.03h-.98Z"/><path class="cls-2" d="M511.51,490.39c-.56,0-1.04-.1-1.45-.29-.41-.19-.74-.45-1-.76s-.45-.67-.57-1.06-.19-.79-.19-1.2v-.22c0-.42.06-.82.19-1.21s.31-.75.57-1.06.58-.57.98-.76c.4-.19.86-.28,1.4-.28.7,0,1.27.15,1.72.45.45.3.79.69,1.01,1.16.22.47.33.98.33,1.51v.52h-5.69v-.86h4.85l-.26.47c0-.46-.07-.85-.22-1.18-.14-.33-.36-.59-.65-.77s-.65-.28-1.09-.28-.83.1-1.13.31c-.3.21-.52.49-.67.85-.15.36-.22.78-.22,1.25s.07.87.22,1.23c.15.36.38.65.69.86.31.21.71.32,1.19.32s.91-.11,1.23-.34c.32-.22.51-.48.57-.78h1.08c-.09.44-.26.82-.53,1.14-.26.32-.6.56-1,.73-.4.17-.85.25-1.36.25Z"/><path class="cls-2" d="M518.14,484.7v-.86h4.02v.86h-4.02ZM519.03,490.17v-6.73c0-.71.19-1.24.56-1.57.38-.34.93-.5,1.66-.5h.79v.96h-.98c-.3,0-.52.08-.68.25s-.24.39-.24.68v6.92h-1.1Z"/><path class="cls-2" d="M526.32,490.39c-.56,0-1.05-.1-1.48-.29-.42-.19-.78-.45-1.07-.76s-.51-.67-.66-1.06c-.15-.39-.22-.79-.22-1.2v-.22c0-.41.08-.81.23-1.21.15-.4.38-.75.67-1.07.3-.32.66-.57,1.08-.76.42-.19.91-.28,1.45-.28s1.03.09,1.45.28.78.44,1.08.76.52.67.67,1.07c.15.4.23.8.23,1.21v.22c0,.41-.07.81-.22,1.2-.15.39-.37.75-.66,1.06-.29.32-.65.57-1.07.76-.42.19-.92.29-1.48.29ZM526.32,489.36c.48,0,.89-.11,1.23-.32s.6-.5.78-.86c.18-.36.27-.76.27-1.21s-.09-.86-.28-1.22c-.18-.36-.45-.64-.79-.85-.34-.21-.75-.31-1.22-.31s-.87.1-1.21.31-.61.49-.79.85c-.18.36-.28.77-.28,1.22s.09.85.27,1.21c.18.36.44.65.78.86s.75.32,1.23.32Z"/><path class="cls-2" d="M531.48,490.17v-6.41h.91v2.64h-.05c0-.94.21-1.62.62-2.06.41-.44,1.03-.65,1.85-.65h.22v1.03h-.41c-.64,0-1.13.17-1.48.51-.34.34-.52.83-.52,1.47v3.47h-1.15Z"/><path class="cls-2" d="M540.54,490.03l-2.29-6.26h1.18l2.2,6.26h-1.08ZM538.7,492.67v-1.03h.92c.27,0,.5-.03.69-.1.19-.07.34-.18.47-.34.12-.16.23-.37.31-.64l2.02-6.79h1.13l-2.14,7.09c-.13.42-.31.77-.54,1.04-.23.27-.51.46-.85.59s-.72.19-1.16.19h-.85ZM540.66,490.03v-.96h1.39v.96h-1.39Z"/><path class="cls-2" d="M548.53,490.39c-.56,0-1.05-.1-1.48-.29-.42-.19-.78-.45-1.07-.76s-.51-.67-.66-1.06c-.15-.39-.22-.79-.22-1.2v-.22c0-.41.08-.81.23-1.21.15-.4.38-.75.67-1.07.3-.32.66-.57,1.08-.76.42-.19.91-.28,1.45-.28s1.03.09,1.45.28.78.44,1.08.76.52.67.67,1.07c.15.4.23.8.23,1.21v.22c0,.41-.07.81-.22,1.2-.15.39-.37.75-.66,1.06-.29.32-.65.57-1.07.76-.42.19-.92.29-1.48.29ZM548.53,489.36c.48,0,.89-.11,1.23-.32s.6-.5.78-.86c.18-.36.27-.76.27-1.21s-.09-.86-.28-1.22c-.18-.36-.45-.64-.79-.85-.34-.21-.75-.31-1.22-.31s-.87.1-1.21.31-.61.49-.79.85c-.18.36-.28.77-.28,1.22s.09.85.27,1.21c.18.36.44.65.78.86s.75.32,1.23.32Z"/><path class="cls-2" d="M555.91,490.36c-.76,0-1.34-.25-1.75-.74s-.61-1.21-.61-2.15v-3.72h1.15v3.95c0,.5.14.9.41,1.18.27.28.64.43,1.1.43s.87-.15,1.18-.46c.3-.31.46-.73.46-1.27v-3.83h1.15v6.42h-.91v-2.75h.14c0,.63-.08,1.17-.25,1.6s-.42.77-.75,1-.75.34-1.27.34h-.05Z"/><path class="cls-2" d="M561.36,492.06l-.92-.35,1.12-3.1.95.36-1.14,3.08Z"/><path class="cls-2" d="M568.12,490.17l-1.81-6.41h1.1l1.76,6.41h-1.06ZM568.39,490.17v-.91h1.33v.91h-1.33ZM568.98,490.17l1.3-6.19h1.56l1.51,6.19h-.98l-1.51-6.17h.38l-1.31,6.17h-.95ZM572.6,490.17v-.91h1.33v.91h-1.33ZM573.14,490.17l1.54-6.41h1.04l-1.57,6.41h-1.01Z"/><path class="cls-2" d="M579.88,490.39c-.56,0-1.04-.1-1.45-.29-.41-.19-.74-.45-1-.76s-.45-.67-.57-1.06-.19-.79-.19-1.2v-.22c0-.42.06-.82.19-1.21s.31-.75.57-1.06.58-.57.98-.76c.4-.19.86-.28,1.4-.28.7,0,1.27.15,1.72.45.45.3.79.69,1.01,1.16.22.47.33.98.33,1.51v.52h-5.69v-.86h4.85l-.26.47c0-.46-.07-.85-.22-1.18-.14-.33-.36-.59-.65-.77s-.65-.28-1.09-.28-.83.1-1.13.31c-.3.21-.52.49-.67.85-.15.36-.22.78-.22,1.25s.07.87.22,1.23c.15.36.38.65.69.86.31.21.71.32,1.19.32s.91-.11,1.23-.34c.32-.22.51-.48.57-.78h1.08c-.09.44-.26.82-.53,1.14-.26.32-.6.56-1,.73-.4.17-.85.25-1.36.25Z"/><path class="cls-2" d="M589.46,490.36c-.76,0-1.34-.25-1.75-.74s-.61-1.21-.61-2.15v-3.72h1.15v3.95c0,.5.14.9.41,1.18.27.28.64.43,1.1.43s.87-.15,1.18-.46c.3-.31.46-.73.46-1.27v-3.83h1.15v6.42h-.91v-2.75h.14c0,.63-.08,1.17-.25,1.6s-.42.77-.75,1-.75.34-1.27.34h-.05Z"/><path class="cls-2" d="M596.88,490.36c-.84,0-1.49-.18-1.95-.54-.46-.36-.7-.85-.71-1.48h1.08c.02.25.14.48.38.7.24.22.64.33,1.21.33.51,0,.9-.1,1.18-.31.27-.2.41-.45.41-.75,0-.26-.1-.47-.3-.62-.2-.15-.52-.25-.97-.29l-.7-.07c-.61-.06-1.1-.25-1.49-.55-.38-.3-.58-.72-.58-1.27,0-.41.1-.76.31-1.05s.5-.52.86-.67c.37-.16.79-.23,1.27-.23.72,0,1.3.16,1.75.48.45.32.68.8.7,1.43h-1.08c0-.26-.13-.47-.35-.65-.23-.18-.57-.27-1.01-.27s-.79.09-1.02.28c-.23.18-.35.42-.35.7,0,.24.08.43.25.58s.43.24.81.28l.7.07c.69.07,1.24.26,1.66.57s.62.74.62,1.3c0,.4-.11.75-.34,1.06-.23.31-.54.55-.94.72s-.86.26-1.38.26Z"/><path class="cls-2" d="M603.93,490.39c-.56,0-1.04-.1-1.45-.29-.41-.19-.74-.45-1-.76s-.45-.67-.57-1.06-.19-.79-.19-1.2v-.22c0-.42.06-.82.19-1.21s.31-.75.57-1.06.58-.57.98-.76c.4-.19.86-.28,1.4-.28.7,0,1.27.15,1.72.45.45.3.79.69,1.01,1.16.22.47.33.98.33,1.51v.52h-5.69v-.86h4.85l-.26.47c0-.46-.07-.85-.22-1.18-.14-.33-.36-.59-.65-.77s-.65-.28-1.09-.28-.83.1-1.13.31c-.3.21-.52.49-.67.85-.15.36-.22.78-.22,1.25s.07.87.22,1.23c.15.36.38.65.69.86.31.21.71.32,1.19.32s.91-.11,1.23-.34c.32-.22.51-.48.57-.78h1.08c-.09.44-.26.82-.53,1.14-.26.32-.6.56-1,.73-.4.17-.85.25-1.36.25Z"/><path class="cls-2" d="M213.21,504.79c-.55,0-1.03-.1-1.43-.29-.4-.19-.74-.45-1-.77-.26-.32-.46-.68-.59-1.07s-.2-.78-.2-1.18v-.22c0-.41.07-.81.2-1.2.13-.39.33-.75.6-1.06.27-.32.6-.57,1-.76s.87-.29,1.4-.29,1.02.1,1.45.3c.43.2.77.48,1.03.85.26.36.41.79.44,1.29h-1.11c-.05-.4-.24-.73-.55-1-.31-.27-.73-.4-1.26-.4-.46,0-.84.1-1.14.31s-.53.49-.68.85c-.15.36-.23.77-.23,1.22s.08.84.23,1.21.38.65.69.86.69.32,1.16.32c.36,0,.67-.06.94-.19s.48-.3.64-.52c.16-.22.26-.46.29-.73h1.11c-.03.5-.17.94-.44,1.31-.27.37-.62.65-1.05.86-.44.2-.93.31-1.47.31Z"/><path class="cls-2" d="M220.69,504.79c-.56,0-1.05-.1-1.48-.29-.42-.19-.78-.45-1.07-.76s-.51-.67-.66-1.06c-.15-.39-.22-.79-.22-1.2v-.22c0-.41.08-.81.23-1.21.15-.4.38-.75.67-1.07.3-.32.66-.57,1.08-.76.42-.19.91-.28,1.45-.28s1.03.09,1.45.28c.42.19.78.44,1.08.76s.52.67.67,1.07c.15.4.23.8.23,1.21v.22c0,.41-.07.81-.22,1.2-.15.39-.37.75-.66,1.06-.29.32-.65.57-1.07.76-.42.19-.92.29-1.48.29ZM220.69,503.76c.48,0,.89-.11,1.23-.32s.6-.5.78-.86c.18-.36.27-.76.27-1.21s-.09-.86-.28-1.22c-.18-.36-.45-.64-.79-.85-.34-.21-.75-.31-1.22-.31s-.87.1-1.21.31-.61.49-.79.85c-.18.36-.28.77-.28,1.22s.09.85.27,1.21c.18.36.44.65.78.86s.75.32,1.23.32Z"/><path class="cls-2" d="M228.8,504.79c-.56,0-1.05-.1-1.48-.29-.42-.19-.78-.45-1.07-.76s-.51-.67-.66-1.06c-.15-.39-.22-.79-.22-1.2v-.22c0-.41.08-.81.23-1.21.15-.4.38-.75.67-1.07.3-.32.66-.57,1.08-.76.42-.19.91-.28,1.45-.28s1.03.09,1.45.28c.42.19.78.44,1.08.76s.52.67.67,1.07c.15.4.23.8.23,1.21v.22c0,.41-.07.81-.22,1.2-.15.39-.37.75-.66,1.06-.29.32-.65.57-1.07.76-.42.19-.92.29-1.48.29ZM228.8,503.76c.48,0,.89-.11,1.23-.32s.6-.5.78-.86c.18-.36.27-.76.27-1.21s-.09-.86-.28-1.22c-.18-.36-.45-.64-.79-.85-.34-.21-.75-.31-1.22-.31s-.87.1-1.21.31-.61.49-.79.85c-.18.36-.28.77-.28,1.22s.09.85.27,1.21c.18.36.44.65.78.86s.75.32,1.23.32Z"/><path class="cls-2" d="M233.96,504.57v-8.76h1.15v8.76h-1.15ZM238.38,504.57l-2.41-2.99h-1.06l2.94-3.42h1.21l-2.66,3.08.08-.61,3.23,3.94h-1.33Z"/><path class="cls-2" d="M240.17,499.08v-.91h2.14v.91h-2.14ZM241.47,497.13c-.26,0-.45-.07-.57-.2-.12-.14-.19-.31-.19-.52s.06-.38.19-.52.31-.2.57-.2.45.07.57.2.19.31.19.52-.06.38-.19.52c-.12.14-.31.2-.57.2ZM241.15,504.57v-6.41h1.15v6.41h-1.15Z"/><path class="cls-2" d="M247.26,504.79c-.56,0-1.04-.1-1.45-.29-.41-.19-.74-.45-1-.76s-.45-.67-.57-1.06c-.12-.39-.19-.79-.19-1.2v-.22c0-.42.06-.82.19-1.21.12-.39.31-.75.57-1.06s.58-.57.98-.76c.4-.19.86-.28,1.4-.28.7,0,1.27.15,1.72.45.45.3.79.69,1.01,1.16.22.47.33.98.33,1.51v.52h-5.69v-.86h4.85l-.26.47c0-.46-.07-.85-.22-1.18-.14-.33-.36-.59-.65-.77-.29-.18-.65-.28-1.09-.28s-.83.1-1.13.31-.52.49-.67.85c-.15.36-.22.78-.22,1.25s.07.87.22,1.23c.15.36.38.65.69.86.31.21.71.32,1.19.32s.91-.11,1.23-.34c.32-.22.51-.48.57-.78h1.08c-.09.44-.26.82-.53,1.14-.26.32-.6.56-1,.73-.4.17-.85.25-1.36.25Z"/><path class="cls-2" d="M253.98,504.76c-.84,0-1.49-.18-1.95-.54-.46-.36-.7-.85-.71-1.48h1.08c.02.25.14.48.38.7.24.22.64.33,1.21.33.51,0,.9-.1,1.18-.31.27-.2.41-.45.41-.75,0-.26-.1-.47-.3-.62-.2-.15-.52-.25-.97-.29l-.7-.07c-.61-.06-1.1-.25-1.49-.55s-.58-.72-.58-1.27c0-.41.1-.76.31-1.05s.5-.52.86-.67.79-.23,1.27-.23c.72,0,1.3.16,1.75.48.45.32.68.8.7,1.43h-1.08c0-.26-.13-.47-.35-.65-.23-.18-.57-.27-1.01-.27s-.79.09-1.02.28c-.23.18-.35.42-.35.7,0,.24.08.43.25.58.16.14.43.24.81.28l.7.07c.69.07,1.24.26,1.66.57.42.31.62.74.62,1.3,0,.4-.11.75-.34,1.06-.23.31-.54.55-.94.72s-.86.26-1.38.26Z"/><path class="cls-2" d="M257.96,504.57v-1.46h1.39v1.46h-1.39Z"/><path class="cls-2" d="M265.94,501.16l-2.78-5.35h1.22l2.35,4.58-.46-.13h1.42l-.48.13,2.21-4.58h1.15l-2.62,5.35h-2.02ZM266.38,504.57v-3.65h1.15v3.65h-1.15Z"/><path class="cls-2" d="M274.17,504.79c-.56,0-1.05-.1-1.48-.29-.42-.19-.78-.45-1.07-.76s-.51-.67-.66-1.06c-.15-.39-.22-.79-.22-1.2v-.22c0-.41.08-.81.23-1.21.15-.4.38-.75.67-1.07.3-.32.66-.57,1.08-.76.42-.19.91-.28,1.45-.28s1.03.09,1.45.28c.42.19.78.44,1.08.76s.52.67.67,1.07c.15.4.23.8.23,1.21v.22c0,.41-.07.81-.22,1.2-.15.39-.37.75-.66,1.06-.29.32-.65.57-1.07.76-.42.19-.92.29-1.48.29ZM274.17,503.76c.48,0,.89-.11,1.23-.32s.6-.5.78-.86c.18-.36.27-.76.27-1.21s-.09-.86-.28-1.22c-.18-.36-.45-.64-.79-.85-.34-.21-.75-.31-1.22-.31s-.87.1-1.21.31-.61.49-.79.85c-.18.36-.28.77-.28,1.22s.09.85.27,1.21c.18.36.44.65.78.86s.75.32,1.23.32Z"/><path class="cls-2" d="M281.55,504.76c-.76,0-1.34-.25-1.75-.74s-.61-1.21-.61-2.15v-3.72h1.15v3.95c0,.5.14.9.41,1.18.27.28.64.43,1.1.43s.87-.15,1.18-.46c.3-.31.46-.73.46-1.27v-3.83h1.15v6.42h-.91v-2.75h.14c0,.63-.08,1.17-.25,1.6-.17.44-.42.77-.75,1-.33.23-.75.34-1.27.34h-.05Z"/><path class="cls-2" d="M292.35,504.79c-.55,0-1.03-.1-1.43-.29-.4-.19-.74-.45-1-.77-.26-.32-.46-.68-.59-1.07s-.2-.78-.2-1.18v-.22c0-.41.07-.81.2-1.2.13-.39.33-.75.6-1.06.27-.32.6-.57,1-.76s.87-.29,1.4-.29,1.02.1,1.45.3c.43.2.77.48,1.03.85.26.36.41.79.44,1.29h-1.1c-.06-.4-.24-.73-.55-1-.31-.27-.73-.4-1.26-.4-.46,0-.84.1-1.14.31-.3.21-.53.49-.68.85-.15.36-.23.77-.23,1.22s.08.84.23,1.21.38.65.69.86c.31.21.69.32,1.16.32.36,0,.67-.06.94-.19s.48-.3.64-.52c.16-.22.26-.46.29-.73h1.1c-.02.5-.17.94-.44,1.31-.27.37-.62.65-1.06.86-.44.2-.93.31-1.47.31Z"/><path class="cls-2" d="M298.65,504.74c-.48,0-.89-.08-1.24-.25-.35-.16-.62-.4-.8-.71-.19-.31-.28-.69-.28-1.13s.1-.84.31-1.14c.2-.3.5-.53.89-.69s.86-.23,1.42-.23h1.74v.86h-1.79c-.46,0-.82.11-1.07.34-.25.22-.37.51-.37.86s.12.64.37.85c.25.22.6.32,1.07.32.27,0,.53-.05.78-.15.25-.1.45-.27.62-.5.16-.24.25-.56.27-.98l.31.46c-.04.46-.15.84-.33,1.15-.18.31-.43.54-.74.7-.32.16-.7.24-1.15.24ZM300.75,504.57v-1.92h-.19v-2.22c0-.44-.11-.77-.34-1-.23-.22-.56-.34-1-.34-.25,0-.5,0-.77.01-.26,0-.52.02-.76.02-.24,0-.45.02-.62.04v-1.01c.18-.02.36-.03.56-.04.2-.01.4-.02.61-.02s.41,0,.6,0c.66,0,1.19.08,1.61.23s.72.41.92.76c.2.35.3.83.3,1.43v4.06h-.91Z"/><path class="cls-2" d="M303.78,504.57v-6.41h.91v2.75h-.14c0-.63.09-1.17.26-1.6.17-.44.43-.77.79-1,.35-.23.8-.34,1.33-.34h.05c.81,0,1.41.25,1.79.76s.58,1.23.58,2.18v3.66h-1.15v-3.9c0-.5-.14-.89-.42-1.19-.28-.3-.66-.45-1.15-.45s-.91.16-1.22.47c-.31.31-.47.73-.47,1.25v3.83h-1.15Z"/><path class="cls-2" d="M315.97,504.74c-.48,0-.89-.08-1.24-.25-.35-.16-.62-.4-.8-.71-.19-.31-.28-.69-.28-1.13s.1-.84.31-1.14c.2-.3.5-.53.89-.69s.86-.23,1.42-.23h1.74v.86h-1.79c-.46,0-.82.11-1.07.34-.25.22-.37.51-.37.86s.12.64.37.85c.25.22.6.32,1.07.32.27,0,.53-.05.78-.15.25-.1.45-.27.62-.5.16-.24.25-.56.27-.98l.31.46c-.04.46-.15.84-.33,1.15-.18.31-.43.54-.74.7-.32.16-.7.24-1.15.24ZM318.07,504.57v-1.92h-.19v-2.22c0-.44-.11-.77-.34-1-.23-.22-.56-.34-1-.34-.25,0-.5,0-.77.01-.26,0-.52.02-.76.02-.24,0-.45.02-.62.04v-1.01c.18-.02.36-.03.56-.04.2-.01.4-.02.61-.02s.41,0,.6,0c.66,0,1.19.08,1.61.23s.72.41.92.76c.2.35.3.83.3,1.43v4.06h-.91Z"/><path class="cls-2" d="M323.84,504.79c-.55,0-1.03-.1-1.43-.29-.4-.19-.74-.45-1-.77-.26-.32-.46-.68-.59-1.07s-.2-.78-.2-1.18v-.22c0-.41.07-.81.2-1.2.13-.39.33-.75.6-1.06.27-.32.6-.57,1-.76s.87-.29,1.4-.29,1.02.1,1.45.3c.43.2.77.48,1.03.85.26.36.41.79.44,1.29h-1.1c-.06-.4-.24-.73-.55-1-.31-.27-.73-.4-1.26-.4-.46,0-.84.1-1.14.31-.3.21-.53.49-.68.85-.15.36-.23.77-.23,1.22s.08.84.23,1.21.38.65.69.86c.31.21.69.32,1.16.32.36,0,.67-.06.94-.19s.48-.3.64-.52c.16-.22.26-.46.29-.73h1.1c-.02.5-.17.94-.44,1.31-.27.37-.62.65-1.06.86-.44.2-.93.31-1.47.31Z"/><path class="cls-2" d="M331.11,504.79c-.55,0-1.03-.1-1.43-.29-.4-.19-.74-.45-1-.77-.26-.32-.46-.68-.59-1.07s-.2-.78-.2-1.18v-.22c0-.41.07-.81.2-1.2.13-.39.33-.75.6-1.06.27-.32.6-.57,1-.76s.87-.29,1.4-.29,1.02.1,1.45.3c.43.2.77.48,1.03.85.26.36.41.79.44,1.29h-1.1c-.06-.4-.24-.73-.55-1-.31-.27-.73-.4-1.26-.4-.46,0-.84.1-1.14.31-.3.21-.53.49-.68.85-.15.36-.23.77-.23,1.22s.08.84.23,1.21.38.65.69.86c.31.21.69.32,1.16.32.36,0,.67-.06.94-.19s.48-.3.64-.52c.16-.22.26-.46.29-.73h1.1c-.02.5-.17.94-.44,1.31-.27.37-.62.65-1.06.86-.44.2-.93.31-1.47.31Z"/><path class="cls-2" d="M338.36,504.79c-.56,0-1.04-.1-1.45-.29-.41-.19-.74-.45-1-.76s-.45-.67-.57-1.06c-.12-.39-.19-.79-.19-1.2v-.22c0-.42.06-.82.19-1.21.12-.39.31-.75.57-1.06s.58-.57.98-.76c.4-.19.86-.28,1.4-.28.7,0,1.27.15,1.72.45.45.3.79.69,1.01,1.16.22.47.33.98.33,1.51v.52h-5.69v-.86h4.85l-.26.47c0-.46-.07-.85-.22-1.18-.14-.33-.36-.59-.65-.77-.29-.18-.65-.28-1.09-.28s-.83.1-1.13.31-.52.49-.67.85c-.15.36-.22.78-.22,1.25s.07.87.22,1.23c.15.36.38.65.69.86.31.21.71.32,1.19.32s.91-.11,1.23-.34c.32-.22.51-.48.57-.78h1.08c-.09.44-.26.82-.53,1.14-.26.32-.6.56-1,.73-.4.17-.85.25-1.36.25Z"/><path class="cls-2" d="M342.98,506.97v-8.81h.91v2.77l-.22-.02c.04-.69.19-1.25.44-1.69.25-.44.58-.76.99-.97.41-.21.85-.31,1.33-.31s.89.09,1.27.26c.38.18.71.42.98.72.27.3.48.66.62,1.06.14.4.22.82.22,1.27v.22c0,.45-.08.87-.23,1.27-.15.4-.37.75-.64,1.06-.28.3-.6.54-.98.72s-.8.26-1.25.26-.89-.1-1.31-.3-.76-.52-1.03-.97c-.27-.45-.43-1.04-.47-1.76l.53.96v4.26h-1.15ZM346.23,503.78c.43,0,.81-.1,1.13-.31.32-.2.57-.49.74-.85.18-.36.26-.78.26-1.25s-.09-.9-.26-1.26c-.18-.36-.42-.64-.74-.85-.32-.2-.7-.31-1.13-.31-.38,0-.74.09-1.07.26-.33.17-.59.42-.79.74s-.29.71-.29,1.17v.55c0,.44.1.82.3,1.13.2.31.46.55.79.72s.68.25,1.06.25Z"/><path class="cls-2" d="M350.31,499.03v-.86h4.42v.86h-4.42ZM353.75,504.64c-.48,0-.89-.07-1.24-.2-.35-.14-.62-.37-.8-.7-.19-.33-.28-.78-.28-1.35v-6.17h1.1v6.31c0,.34.09.61.28.8.19.19.45.28.8.28h1.13v1.03h-.98Z"/><path class="cls-2" d="M360.87,504.74c-.48,0-.89-.08-1.24-.25-.35-.16-.62-.4-.8-.71-.19-.31-.28-.69-.28-1.13s.1-.84.31-1.14c.2-.3.5-.53.89-.69s.86-.23,1.42-.23h1.74v.86h-1.79c-.46,0-.82.11-1.07.34-.25.22-.37.51-.37.86s.12.64.37.85c.25.22.6.32,1.07.32.27,0,.53-.05.78-.15.25-.1.45-.27.62-.5.16-.24.25-.56.27-.98l.31.46c-.04.46-.15.84-.33,1.15-.18.31-.43.54-.74.7-.32.16-.7.24-1.15.24ZM362.97,504.57v-1.92h-.19v-2.22c0-.44-.11-.77-.34-1-.23-.22-.56-.34-1-.34-.25,0-.5,0-.77.01-.26,0-.52.02-.76.02-.24,0-.45.02-.62.04v-1.01c.18-.02.36-.03.56-.04.2-.01.4-.02.61-.02s.41,0,.6,0c.66,0,1.19.08,1.61.23s.72.41.92.76c.2.35.3.83.3,1.43v4.06h-.91Z"/><path class="cls-2" d="M365.18,496.72v-.91h2.04v.91h-2.04ZM366.07,504.57v-8.76h1.15v8.76h-1.15Z"/><path class="cls-2" d="M368.61,496.72v-.91h2.04v.91h-2.04ZM369.5,504.57v-8.76h1.15v8.76h-1.15Z"/><path class="cls-2" d="M378.34,504.79c-.55,0-1.03-.1-1.43-.29-.4-.19-.74-.45-1-.77-.26-.32-.46-.68-.59-1.07s-.2-.78-.2-1.18v-.22c0-.41.07-.81.2-1.2.13-.39.33-.75.6-1.06.27-.32.6-.57,1-.76s.87-.29,1.4-.29,1.02.1,1.45.3c.43.2.77.48,1.03.85.26.36.41.79.44,1.29h-1.1c-.06-.4-.24-.73-.55-1-.31-.27-.73-.4-1.26-.4-.46,0-.84.1-1.14.31-.3.21-.53.49-.68.85-.15.36-.23.77-.23,1.22s.08.84.23,1.21.38.65.69.86c.31.21.69.32,1.16.32.36,0,.67-.06.94-.19s.48-.3.64-.52c.16-.22.26-.46.29-.73h1.1c-.02.5-.17.94-.44,1.31-.27.37-.62.65-1.06.86-.44.2-.93.31-1.47.31Z"/><path class="cls-2" d="M385.82,504.79c-.56,0-1.05-.1-1.48-.29-.42-.19-.78-.45-1.07-.76s-.51-.67-.66-1.06c-.15-.39-.22-.79-.22-1.2v-.22c0-.41.08-.81.23-1.21.15-.4.38-.75.67-1.07.3-.32.66-.57,1.08-.76.42-.19.91-.28,1.45-.28s1.03.09,1.45.28c.42.19.78.44,1.08.76s.52.67.67,1.07c.15.4.23.8.23,1.21v.22c0,.41-.07.81-.22,1.2-.15.39-.37.75-.66,1.06-.29.32-.65.57-1.07.76-.42.19-.92.29-1.48.29ZM385.82,503.76c.48,0,.89-.11,1.23-.32s.6-.5.78-.86c.18-.36.27-.76.27-1.21s-.09-.86-.28-1.22c-.18-.36-.45-.64-.79-.85-.34-.21-.75-.31-1.22-.31s-.87.1-1.21.31-.61.49-.79.85c-.18.36-.28.77-.28,1.22s.09.85.27,1.21c.18.36.44.65.78.86s.75.32,1.23.32Z"/><path class="cls-2" d="M393.93,504.79c-.56,0-1.05-.1-1.48-.29-.42-.19-.78-.45-1.07-.76s-.51-.67-.66-1.06c-.15-.39-.22-.79-.22-1.2v-.22c0-.41.08-.81.23-1.21.15-.4.38-.75.67-1.07.3-.32.66-.57,1.08-.76.42-.19.91-.28,1.45-.28s1.03.09,1.45.28c.42.19.78.44,1.08.76s.52.67.67,1.07c.15.4.23.8.23,1.21v.22c0,.41-.07.81-.22,1.2-.15.39-.37.75-.66,1.06-.29.32-.65.57-1.07.76-.42.19-.92.29-1.48.29ZM393.93,503.76c.48,0,.89-.11,1.23-.32s.6-.5.78-.86c.18-.36.27-.76.27-1.21s-.09-.86-.28-1.22c-.18-.36-.45-.64-.79-.85-.34-.21-.75-.31-1.22-.31s-.87.1-1.21.31-.61.49-.79.85c-.18.36-.28.77-.28,1.22s.09.85.27,1.21c.18.36.44.65.78.86s.75.32,1.23.32Z"/><path class="cls-2" d="M399.09,504.57v-8.76h1.15v8.76h-1.15ZM403.51,504.57l-2.41-2.99h-1.06l2.94-3.42h1.21l-2.66,3.08.08-.61,3.23,3.94h-1.33Z"/><path class="cls-2" d="M405.3,499.08v-.91h2.14v.91h-2.14ZM406.61,497.13c-.26,0-.45-.07-.57-.2-.12-.14-.19-.31-.19-.52s.06-.38.19-.52.31-.2.57-.2.45.07.57.2.19.31.19.52-.06.38-.19.52c-.12.14-.31.2-.57.2ZM406.28,504.57v-6.41h1.15v6.41h-1.15Z"/><path class="cls-2" d="M412.39,504.79c-.56,0-1.04-.1-1.45-.29-.41-.19-.74-.45-1-.76s-.45-.67-.57-1.06c-.12-.39-.19-.79-.19-1.2v-.22c0-.42.06-.82.19-1.21.12-.39.31-.75.57-1.06s.58-.57.98-.76c.4-.19.86-.28,1.4-.28.7,0,1.27.15,1.72.45.45.3.79.69,1.01,1.16.22.47.33.98.33,1.51v.52h-5.69v-.86h4.85l-.26.47c0-.46-.07-.85-.22-1.18-.14-.33-.36-.59-.65-.77-.29-.18-.65-.28-1.09-.28s-.83.1-1.13.31-.52.49-.67.85c-.15.36-.22.78-.22,1.25s.07.87.22,1.23c.15.36.38.65.69.86.31.21.71.32,1.19.32s.91-.11,1.23-.34c.32-.22.51-.48.57-.78h1.08c-.09.44-.26.82-.53,1.14-.26.32-.6.56-1,.73-.4.17-.85.25-1.36.25Z"/><path class="cls-2" d="M419.11,504.76c-.84,0-1.49-.18-1.95-.54-.46-.36-.7-.85-.71-1.48h1.08c.02.25.14.48.38.7.24.22.64.33,1.21.33.51,0,.9-.1,1.18-.31.27-.2.41-.45.41-.75,0-.26-.1-.47-.3-.62-.2-.15-.52-.25-.97-.29l-.7-.07c-.61-.06-1.1-.25-1.49-.55s-.58-.72-.58-1.27c0-.41.1-.76.31-1.05s.5-.52.86-.67.79-.23,1.27-.23c.72,0,1.3.16,1.75.48.45.32.68.8.7,1.43h-1.08c0-.26-.13-.47-.35-.65-.23-.18-.57-.27-1.01-.27s-.79.09-1.02.28c-.23.18-.35.42-.35.7,0,.24.08.43.25.58.16.14.43.24.81.28l.7.07c.69.07,1.24.26,1.66.57.42.31.62.74.62,1.3,0,.4-.11.75-.34,1.06-.23.31-.54.55-.94.72s-.86.26-1.38.26Z"/><path class="cls-2" d="M429.13,504.79c-.56,0-1.05-.1-1.48-.29-.42-.19-.78-.45-1.07-.76s-.51-.67-.66-1.06c-.15-.39-.22-.79-.22-1.2v-.22c0-.41.08-.81.23-1.21.15-.4.38-.75.67-1.07.3-.32.66-.57,1.08-.76.42-.19.91-.28,1.45-.28s1.03.09,1.45.28c.42.19.78.44,1.08.76s.52.67.67,1.07c.15.4.23.8.23,1.21v.22c0,.41-.07.81-.22,1.2-.15.39-.37.75-.66,1.06-.29.32-.65.57-1.07.76-.42.19-.92.29-1.48.29ZM429.13,503.76c.48,0,.89-.11,1.23-.32s.6-.5.78-.86c.18-.36.27-.76.27-1.21s-.09-.86-.28-1.22c-.18-.36-.45-.64-.79-.85-.34-.21-.75-.31-1.22-.31s-.87.1-1.21.31-.61.49-.79.85c-.18.36-.28.77-.28,1.22s.09.85.27,1.21c.18.36.44.65.78.86s.75.32,1.23.32Z"/><path class="cls-2" d="M434.29,504.57v-6.41h.91v2.64h-.05c0-.94.21-1.62.62-2.06.41-.44,1.03-.65,1.85-.65h.22v1.03h-.41c-.64,0-1.13.17-1.48.51-.34.34-.52.83-.52,1.47v3.47h-1.15Z"/><path class="cls-2" d="M444.69,504.79c-.55,0-1.03-.1-1.43-.29-.4-.19-.74-.45-1-.77-.26-.32-.46-.68-.59-1.07s-.2-.78-.2-1.18v-.22c0-.41.07-.81.2-1.2.13-.39.33-.75.6-1.06.27-.32.6-.57,1-.76s.87-.29,1.4-.29,1.02.1,1.45.3c.43.2.77.48,1.03.85.26.36.41.79.44,1.29h-1.1c-.06-.4-.24-.73-.55-1-.31-.27-.73-.4-1.26-.4-.46,0-.84.1-1.14.31-.3.21-.53.49-.68.85-.15.36-.23.77-.23,1.22s.08.84.23,1.21.38.65.69.86c.31.21.69.32,1.16.32.36,0,.67-.06.94-.19s.48-.3.64-.52c.16-.22.26-.46.29-.73h1.1c-.02.5-.17.94-.44,1.31-.27.37-.62.65-1.06.86-.44.2-.93.31-1.47.31Z"/><path class="cls-2" d="M449.22,504.57v-8.76h1.15v5.23h-.29c0-.63.08-1.18.25-1.64s.42-.81.76-1.06c.34-.25.78-.37,1.32-.37h.05c.77,0,1.35.25,1.74.76s.59,1.23.59,2.18v3.66h-1.15v-3.9c0-.52-.15-.92-.44-1.21s-.67-.43-1.13-.43c-.51,0-.92.17-1.23.51s-.46.79-.46,1.34v3.7h-1.15Z"/><path class="cls-2" d="M459.85,504.79c-.56,0-1.05-.1-1.48-.29-.42-.19-.78-.45-1.07-.76s-.51-.67-.66-1.06c-.15-.39-.22-.79-.22-1.2v-.22c0-.41.08-.81.23-1.21.15-.4.38-.75.67-1.07.3-.32.66-.57,1.08-.76.42-.19.91-.28,1.45-.28s1.03.09,1.45.28c.42.19.78.44,1.08.76s.52.67.67,1.07c.15.4.23.8.23,1.21v.22c0,.41-.07.81-.22,1.2-.15.39-.37.75-.66,1.06-.29.32-.65.57-1.07.76-.42.19-.92.29-1.48.29ZM459.85,503.76c.48,0,.89-.11,1.23-.32s.6-.5.78-.86c.18-.36.27-.76.27-1.21s-.09-.86-.28-1.22c-.18-.36-.45-.64-.79-.85-.34-.21-.75-.31-1.22-.31s-.87.1-1.21.31-.61.49-.79.85c-.18.36-.28.77-.28,1.22s.09.85.27,1.21c.18.36.44.65.78.86s.75.32,1.23.32Z"/><path class="cls-2" d="M467.96,504.79c-.56,0-1.05-.1-1.48-.29-.42-.19-.78-.45-1.07-.76s-.51-.67-.66-1.06c-.15-.39-.22-.79-.22-1.2v-.22c0-.41.08-.81.23-1.21.15-.4.38-.75.67-1.07.3-.32.66-.57,1.08-.76.42-.19.91-.28,1.45-.28s1.03.09,1.45.28c.42.19.78.44,1.08.76s.52.67.67,1.07c.15.4.23.8.23,1.21v.22c0,.41-.07.81-.22,1.2-.15.39-.37.75-.66,1.06-.29.32-.65.57-1.07.76-.42.19-.92.29-1.48.29ZM467.96,503.76c.48,0,.89-.11,1.23-.32s.6-.5.78-.86c.18-.36.27-.76.27-1.21s-.09-.86-.28-1.22c-.18-.36-.45-.64-.79-.85-.34-.21-.75-.31-1.22-.31s-.87.1-1.21.31-.61.49-.79.85c-.18.36-.28.77-.28,1.22s.09.85.27,1.21c.18.36.44.65.78.86s.75.32,1.23.32Z"/><path class="cls-2" d="M475.22,504.76c-.84,0-1.49-.18-1.95-.54-.46-.36-.7-.85-.71-1.48h1.08c.02.25.14.48.38.7.24.22.64.33,1.21.33.51,0,.9-.1,1.18-.31.27-.2.41-.45.41-.75,0-.26-.1-.47-.3-.62-.2-.15-.52-.25-.97-.29l-.7-.07c-.61-.06-1.1-.25-1.49-.55s-.58-.72-.58-1.27c0-.41.1-.76.31-1.05s.5-.52.86-.67.79-.23,1.27-.23c.72,0,1.3.16,1.75.48.45.32.68.8.7,1.43h-1.08c0-.26-.13-.47-.35-.65-.23-.18-.57-.27-1.01-.27s-.79.09-1.02.28c-.23.18-.35.42-.35.7,0,.24.08.43.25.58.16.14.43.24.81.28l.7.07c.69.07,1.24.26,1.66.57.42.31.62.74.62,1.3,0,.4-.11.75-.34,1.06-.23.31-.54.55-.94.72s-.86.26-1.38.26Z"/><path class="cls-2" d="M482.28,504.79c-.56,0-1.04-.1-1.45-.29-.41-.19-.74-.45-1-.76s-.45-.67-.57-1.06c-.12-.39-.19-.79-.19-1.2v-.22c0-.42.06-.82.19-1.21.12-.39.31-.75.57-1.06s.58-.57.98-.76c.4-.19.86-.28,1.4-.28.7,0,1.27.15,1.72.45.45.3.79.69,1.01,1.16.22.47.33.98.33,1.51v.52h-5.69v-.86h4.85l-.26.47c0-.46-.07-.85-.22-1.18-.14-.33-.36-.59-.65-.77-.29-.18-.65-.28-1.09-.28s-.83.1-1.13.31-.52.49-.67.85c-.15.36-.22.78-.22,1.25s.07.87.22,1.23c.15.36.38.65.69.86.31.21.71.32,1.19.32s.91-.11,1.23-.34c.32-.22.51-.48.57-.78h1.08c-.09.44-.26.82-.53,1.14-.26.32-.6.56-1,.73-.4.17-.85.25-1.36.25Z"/><path class="cls-2" d="M492.58,504.79c-.56,0-1.05-.1-1.48-.29-.42-.19-.78-.45-1.07-.76s-.51-.67-.66-1.06c-.15-.39-.22-.79-.22-1.2v-.22c0-.41.08-.81.23-1.21.15-.4.38-.75.67-1.07.3-.32.66-.57,1.08-.76.42-.19.91-.28,1.45-.28s1.03.09,1.45.28c.42.19.78.44,1.08.76s.52.67.67,1.07c.15.4.23.8.23,1.21v.22c0,.41-.07.81-.22,1.2-.15.39-.37.75-.66,1.06-.29.32-.65.57-1.07.76-.42.19-.92.29-1.48.29ZM492.58,503.76c.48,0,.89-.11,1.23-.32s.6-.5.78-.86c.18-.36.27-.76.27-1.21s-.09-.86-.28-1.22c-.18-.36-.45-.64-.79-.85-.34-.21-.75-.31-1.22-.31s-.87.1-1.21.31-.61.49-.79.85c-.18.36-.28.77-.28,1.22s.09.85.27,1.21c.18.36.44.65.78.86s.75.32,1.23.32Z"/><path class="cls-2" d="M497.74,504.57v-6.41h.91v2.75h-.14c0-.63.09-1.17.26-1.6.17-.44.43-.77.79-1,.35-.23.8-.34,1.33-.34h.05c.81,0,1.41.25,1.79.76s.58,1.23.58,2.18v3.66h-1.15v-3.9c0-.5-.14-.89-.42-1.19-.28-.3-.66-.45-1.15-.45s-.91.16-1.22.47c-.31.31-.47.73-.47,1.25v3.83h-1.15Z"/><path class="cls-2" d="M504.61,496.72v-.91h2.04v.91h-2.04ZM505.5,504.57v-8.76h1.15v8.76h-1.15Z"/><path class="cls-2" d="M510.26,504.43l-2.29-6.26h1.18l2.2,6.26h-1.08ZM508.42,507.07v-1.03h.92c.27,0,.5-.03.69-.1.19-.07.34-.18.47-.34.12-.16.23-.37.31-.64l2.02-6.79h1.13l-2.14,7.09c-.13.42-.31.77-.54,1.04-.23.27-.51.46-.85.59s-.72.19-1.16.19h-.85ZM510.38,504.43v-.96h1.39v.96h-1.39Z"/><path class="cls-2" d="M520.26,504.76c-.84,0-1.49-.18-1.95-.54-.46-.36-.7-.85-.71-1.48h1.08c.02.25.14.48.38.7.24.22.64.33,1.21.33.51,0,.9-.1,1.18-.31.27-.2.41-.45.41-.75,0-.26-.1-.47-.3-.62-.2-.15-.52-.25-.97-.29l-.7-.07c-.61-.06-1.1-.25-1.49-.55s-.58-.72-.58-1.27c0-.41.1-.76.31-1.05s.5-.52.86-.67.79-.23,1.27-.23c.72,0,1.3.16,1.75.48.45.32.68.8.7,1.43h-1.08c0-.26-.13-.47-.35-.65-.23-.18-.57-.27-1.01-.27s-.79.09-1.02.28c-.23.18-.35.42-.35.7,0,.24.08.43.25.58.16.14.43.24.81.28l.7.07c.69.07,1.24.26,1.66.57.42.31.62.74.62,1.3,0,.4-.11.75-.34,1.06-.23.31-.54.55-.94.72s-.86.26-1.38.26Z"/><path class="cls-2" d="M524.59,506.97v-8.81h.91v2.77l-.22-.02c.04-.69.19-1.25.44-1.69.25-.44.58-.76.99-.97.41-.21.85-.31,1.33-.31s.89.09,1.27.26c.38.18.71.42.98.72.27.3.48.66.62,1.06.14.4.22.82.22,1.27v.22c0,.45-.08.87-.23,1.27-.15.4-.37.75-.64,1.06-.28.3-.6.54-.98.72s-.8.26-1.25.26-.89-.1-1.31-.3-.76-.52-1.03-.97c-.27-.45-.43-1.04-.47-1.76l.53.96v4.26h-1.15ZM527.84,503.78c.43,0,.81-.1,1.13-.31.32-.2.57-.49.74-.85.18-.36.26-.78.26-1.25s-.09-.9-.26-1.26c-.18-.36-.42-.64-.74-.85-.32-.2-.7-.31-1.13-.31-.38,0-.74.09-1.07.26-.33.17-.59.42-.79.74s-.29.71-.29,1.17v.55c0,.44.1.82.3,1.13.2.31.46.55.79.72s.68.25,1.06.25Z"/><path class="cls-2" d="M535.58,504.79c-.56,0-1.04-.1-1.45-.29-.41-.19-.74-.45-1-.76s-.45-.67-.57-1.06c-.12-.39-.19-.79-.19-1.2v-.22c0-.42.06-.82.19-1.21.12-.39.31-.75.57-1.06s.58-.57.98-.76c.4-.19.86-.28,1.4-.28.7,0,1.27.15,1.72.45.45.3.79.69,1.01,1.16.22.47.33.98.33,1.51v.52h-5.69v-.86h4.85l-.26.47c0-.46-.07-.85-.22-1.18-.14-.33-.36-.59-.65-.77-.29-.18-.65-.28-1.09-.28s-.83.1-1.13.31-.52.49-.67.85c-.15.36-.22.78-.22,1.25s.07.87.22,1.23c.15.36.38.65.69.86.31.21.71.32,1.19.32s.91-.11,1.23-.34c.32-.22.51-.48.57-.78h1.08c-.09.44-.26.82-.53,1.14-.26.32-.6.56-1,.73-.4.17-.85.25-1.36.25Z"/><path class="cls-2" d="M542.95,504.79c-.55,0-1.03-.1-1.43-.29-.4-.19-.74-.45-1-.77-.26-.32-.46-.68-.59-1.07s-.2-.78-.2-1.18v-.22c0-.41.07-.81.2-1.2.13-.39.33-.75.6-1.06.27-.32.6-.57,1-.76s.87-.29,1.4-.29,1.02.1,1.45.3c.43.2.77.48,1.03.85.26.36.41.79.44,1.29h-1.1c-.06-.4-.24-.73-.55-1-.31-.27-.73-.4-1.26-.4-.46,0-.84.1-1.14.31-.3.21-.53.49-.68.85-.15.36-.23.77-.23,1.22s.08.84.23,1.21.38.65.69.86c.31.21.69.32,1.16.32.36,0,.67-.06.94-.19s.48-.3.64-.52c.16-.22.26-.46.29-.73h1.1c-.02.5-.17.94-.44,1.31-.27.37-.62.65-1.06.86-.44.2-.93.31-1.47.31Z"/><path class="cls-2" d="M546.8,499.08v-.91h2.14v.91h-2.14ZM548.11,497.13c-.26,0-.45-.07-.57-.2-.12-.14-.19-.31-.19-.52s.06-.38.19-.52.31-.2.57-.2.45.07.57.2.19.31.19.52-.06.38-.19.52c-.12.14-.31.2-.57.2ZM547.78,504.57v-6.41h1.15v6.41h-1.15Z"/><path class="cls-2" d="M550.45,499.03v-.86h3.71v.86h-3.71ZM551.34,504.57v-6.8c0-.71.19-1.24.56-1.57s.93-.5,1.66-.5h.72v.96h-.91c-.3,0-.52.08-.68.25s-.24.39-.24.68v7h-1.1ZM554.8,499.08v-.91h2.09v.91h-2.09ZM556.06,497.13c-.26,0-.45-.07-.57-.2-.12-.14-.19-.31-.19-.52s.06-.38.19-.52.31-.2.57-.2.45.07.57.2.19.31.19.52-.06.38-.19.52c-.12.14-.31.2-.57.2ZM555.74,504.57v-6.41h1.15v6.41h-1.15Z"/><path class="cls-2" d="M561.87,504.79c-.55,0-1.03-.1-1.43-.29-.4-.19-.74-.45-1-.77-.26-.32-.46-.68-.59-1.07s-.2-.78-.2-1.18v-.22c0-.41.07-.81.2-1.2.13-.39.33-.75.6-1.06.27-.32.6-.57,1-.76s.87-.29,1.4-.29,1.02.1,1.45.3c.43.2.77.48,1.03.85.26.36.41.79.44,1.29h-1.1c-.06-.4-.24-.73-.55-1-.31-.27-.73-.4-1.26-.4-.46,0-.84.1-1.14.31-.3.21-.53.49-.68.85-.15.36-.23.77-.23,1.22s.08.84.23,1.21.38.65.69.86c.31.21.69.32,1.16.32.36,0,.67-.06.94-.19s.48-.3.64-.52c.16-.22.26-.46.29-.73h1.1c-.02.5-.17.94-.44,1.31-.27.37-.62.65-1.06.86-.44.2-.93.31-1.47.31Z"/><path class="cls-2" d="M572.08,504.79c-.56,0-1.05-.1-1.48-.29-.42-.19-.78-.45-1.07-.76s-.51-.67-.66-1.06c-.15-.39-.22-.79-.22-1.2v-.22c0-.41.08-.81.23-1.21.15-.4.38-.75.67-1.07.3-.32.66-.57,1.08-.76.42-.19.91-.28,1.45-.28s1.03.09,1.45.28c.42.19.78.44,1.08.76s.52.67.67,1.07c.15.4.23.8.23,1.21v.22c0,.41-.07.81-.22,1.2-.15.39-.37.75-.66,1.06-.29.32-.65.57-1.07.76-.42.19-.92.29-1.48.29ZM572.08,503.76c.48,0,.89-.11,1.23-.32s.6-.5.78-.86c.18-.36.27-.76.27-1.21s-.09-.86-.28-1.22c-.18-.36-.45-.64-.79-.85-.34-.21-.75-.31-1.22-.31s-.87.1-1.21.31-.61.49-.79.85c-.18.36-.28.77-.28,1.22s.09.85.27,1.21c.18.36.44.65.78.86s.75.32,1.23.32Z"/><path class="cls-2" d="M577.24,504.57v-6.41h.91v2.75h-.14c0-.63.09-1.17.26-1.6.17-.44.43-.77.79-1,.35-.23.8-.34,1.33-.34h.05c.81,0,1.41.25,1.79.76s.58,1.23.58,2.18v3.66h-1.15v-3.9c0-.5-.14-.89-.42-1.19-.28-.3-.66-.45-1.15-.45s-.91.16-1.22.47c-.31.31-.47.73-.47,1.25v3.83h-1.15Z"/><path class="cls-2" d="M587.65,504.79c-.56,0-1.04-.1-1.45-.29-.41-.19-.74-.45-1-.76s-.45-.67-.57-1.06c-.12-.39-.19-.79-.19-1.2v-.22c0-.42.06-.82.19-1.21.12-.39.31-.75.57-1.06s.58-.57.98-.76c.4-.19.86-.28,1.4-.28.7,0,1.27.15,1.72.45.45.3.79.69,1.01,1.16.22.47.33.98.33,1.51v.52h-5.69v-.86h4.85l-.26.47c0-.46-.07-.85-.22-1.18-.14-.33-.36-.59-.65-.77-.29-.18-.65-.28-1.09-.28s-.83.1-1.13.31-.52.49-.67.85c-.15.36-.22.78-.22,1.25s.07.87.22,1.23c.15.36.38.65.69.86.31.21.71.32,1.19.32s.91-.11,1.23-.34c.32-.22.51-.48.57-.78h1.08c-.09.44-.26.82-.53,1.14-.26.32-.6.56-1,.73-.4.17-.85.25-1.36.25Z"/><path class="cls-2" d="M594.37,504.76c-.84,0-1.49-.18-1.95-.54-.46-.36-.7-.85-.71-1.48h1.08c.02.25.14.48.38.7.24.22.64.33,1.21.33.51,0,.9-.1,1.18-.31.27-.2.41-.45.41-.75,0-.26-.1-.47-.3-.62-.2-.15-.52-.25-.97-.29l-.7-.07c-.61-.06-1.1-.25-1.49-.55s-.58-.72-.58-1.27c0-.41.1-.76.31-1.05s.5-.52.86-.67.79-.23,1.27-.23c.72,0,1.3.16,1.75.48.45.32.68.8.7,1.43h-1.08c0-.26-.13-.47-.35-.65-.23-.18-.57-.27-1.01-.27s-.79.09-1.02.28c-.23.18-.35.42-.35.7,0,.24.08.43.25.58.16.14.43.24.81.28l.7.07c.69.07,1.24.26,1.66.57.42.31.62.74.62,1.3,0,.4-.11.75-.34,1.06-.23.31-.54.55-.94.72s-.86.26-1.38.26Z"/><path class="cls-2" d="M598.35,504.57v-1.46h1.39v1.46h-1.39Z"/><path class="cls-2" d="M212.34,515.56l-2.78-5.35h1.22l2.35,4.58-.46-.13h1.42l-.48.13,2.21-4.58h1.15l-2.62,5.35h-2.02ZM212.77,518.97v-3.65h1.15v3.65h-1.15Z"/><path class="cls-2" d="M220.57,519.19c-.56,0-1.05-.1-1.48-.29-.42-.19-.78-.45-1.07-.76s-.51-.67-.66-1.06c-.15-.39-.22-.79-.22-1.2v-.22c0-.41.08-.81.23-1.21.15-.4.38-.75.67-1.07.3-.32.66-.57,1.08-.76.42-.19.91-.28,1.45-.28s1.03.09,1.45.28c.42.19.78.44,1.08.76s.52.67.67,1.07c.15.4.23.8.23,1.21v.22c0,.41-.07.81-.22,1.2-.15.39-.37.75-.66,1.06-.29.32-.65.57-1.07.76-.42.19-.92.29-1.48.29ZM220.57,518.16c.48,0,.89-.11,1.23-.32s.6-.5.78-.86c.18-.36.27-.76.27-1.21s-.09-.86-.28-1.22c-.18-.36-.45-.64-.79-.85-.34-.21-.75-.31-1.22-.31s-.87.1-1.21.31-.61.49-.79.85c-.18.36-.28.77-.28,1.22s.09.85.27,1.21c.18.36.44.65.78.86s.75.32,1.23.32Z"/><path class="cls-2" d="M227.95,519.16c-.76,0-1.34-.25-1.75-.74s-.61-1.21-.61-2.15v-3.72h1.15v3.95c0,.5.14.9.41,1.18.27.28.64.43,1.1.43s.87-.15,1.18-.46c.3-.31.46-.73.46-1.27v-3.83h1.15v6.42h-.91v-2.75h.14c0,.63-.08,1.17-.25,1.6-.17.44-.42.77-.75,1-.33.23-.75.34-1.27.34h-.05Z"/><path class="cls-2" d="M238.75,519.19c-.55,0-1.03-.1-1.43-.29-.4-.19-.74-.45-1-.77-.26-.32-.46-.68-.59-1.07s-.2-.78-.2-1.18v-.22c0-.41.07-.81.2-1.2.13-.39.33-.75.6-1.06.27-.32.6-.57,1-.76s.87-.29,1.4-.29,1.02.1,1.45.3c.43.2.77.48,1.03.85.26.36.41.79.44,1.29h-1.1c-.06-.4-.24-.73-.55-1-.31-.27-.73-.4-1.26-.4-.46,0-.84.1-1.14.31-.3.21-.53.49-.68.85-.15.36-.23.77-.23,1.22s.08.84.23,1.21.38.65.69.86c.31.21.69.32,1.16.32.36,0,.67-.06.94-.19s.48-.3.64-.52c.16-.22.26-.46.29-.73h1.1c-.02.5-.17.94-.44,1.31-.27.37-.62.65-1.06.86-.44.2-.93.31-1.47.31Z"/><path class="cls-2" d="M245.05,519.14c-.48,0-.89-.08-1.24-.25-.35-.16-.62-.4-.8-.71-.19-.31-.28-.69-.28-1.13s.1-.84.31-1.14c.2-.3.5-.53.89-.69s.86-.23,1.42-.23h1.74v.86h-1.79c-.46,0-.82.11-1.07.34-.25.22-.37.51-.37.86s.12.64.37.85c.25.22.6.32,1.07.32.27,0,.53-.05.78-.15.25-.1.45-.27.62-.5.16-.24.25-.56.27-.98l.31.46c-.04.46-.15.84-.33,1.15-.18.31-.43.54-.74.7-.32.16-.7.24-1.15.24ZM247.15,518.97v-1.92h-.19v-2.22c0-.44-.11-.77-.34-1-.23-.22-.56-.34-1-.34-.25,0-.5,0-.77.01-.26,0-.52.02-.76.02-.24,0-.45.02-.62.04v-1.01c.18-.02.36-.03.56-.04.2-.01.4-.02.61-.02s.41,0,.6,0c.66,0,1.19.08,1.61.23s.72.41.92.76c.2.35.3.83.3,1.43v4.06h-.91Z"/><path class="cls-2" d="M250.17,518.97v-6.41h.91v2.75h-.14c0-.63.09-1.17.26-1.6.17-.44.43-.77.79-1,.35-.23.8-.34,1.33-.34h.05c.81,0,1.41.25,1.79.76s.58,1.23.58,2.18v3.66h-1.15v-3.9c0-.5-.14-.89-.42-1.19-.28-.3-.66-.45-1.15-.45s-.91.16-1.22.47c-.31.31-.47.73-.47,1.25v3.83h-1.15Z"/><path class="cls-2" d="M263.34,519.19c-.55,0-1.03-.1-1.43-.29-.4-.19-.74-.45-1-.77-.26-.32-.46-.68-.59-1.07s-.2-.78-.2-1.18v-.22c0-.41.07-.81.2-1.2.13-.39.33-.75.6-1.06.27-.32.6-.57,1-.76s.87-.29,1.4-.29,1.02.1,1.45.3c.43.2.77.48,1.03.85.26.36.41.79.44,1.29h-1.1c-.06-.4-.24-.73-.55-1-.31-.27-.73-.4-1.26-.4-.46,0-.84.1-1.14.31-.3.21-.53.49-.68.85-.15.36-.23.77-.23,1.22s.08.84.23,1.21.38.65.69.86c.31.21.69.32,1.16.32.36,0,.67-.06.94-.19s.48-.3.64-.52c.16-.22.26-.46.29-.73h1.1c-.02.5-.17.94-.44,1.31-.27.37-.62.65-1.06.86-.44.2-.93.31-1.47.31Z"/><path class="cls-2" d="M267.86,518.97v-8.76h1.15v5.23h-.29c0-.63.08-1.18.25-1.64s.42-.81.76-1.06c.34-.25.78-.37,1.32-.37h.05c.77,0,1.35.25,1.74.76s.59,1.23.59,2.18v3.66h-1.15v-3.9c0-.52-.15-.92-.44-1.21s-.67-.43-1.13-.43c-.51,0-.92.17-1.23.51s-.46.79-.46,1.34v3.7h-1.15Z"/><path class="cls-2" d="M277.32,519.14c-.48,0-.89-.08-1.24-.25-.35-.16-.62-.4-.8-.71-.19-.31-.28-.69-.28-1.13s.1-.84.31-1.14c.2-.3.5-.53.89-.69s.86-.23,1.42-.23h1.74v.86h-1.79c-.46,0-.82.11-1.07.34-.25.22-.37.51-.37.86s.12.64.37.85c.25.22.6.32,1.07.32.27,0,.53-.05.78-.15.25-.1.45-.27.62-.5.16-.24.25-.56.27-.98l.31.46c-.04.46-.15.84-.33,1.15-.18.31-.43.54-.74.7-.32.16-.7.24-1.15.24ZM279.42,518.97v-1.92h-.19v-2.22c0-.44-.11-.77-.34-1-.23-.22-.56-.34-1-.34-.25,0-.5,0-.77.01-.26,0-.52.02-.76.02-.24,0-.45.02-.62.04v-1.01c.18-.02.36-.03.56-.04.2-.01.4-.02.61-.02s.41,0,.6,0c.66,0,1.19.08,1.61.23s.72.41.92.76c.2.35.3.83.3,1.43v4.06h-.91Z"/><path class="cls-2" d="M282.44,518.97v-6.41h.91v2.75h-.14c0-.63.09-1.17.26-1.6.17-.44.43-.77.79-1,.35-.23.8-.34,1.33-.34h.05c.81,0,1.41.25,1.79.76s.58,1.23.58,2.18v3.66h-1.15v-3.9c0-.5-.14-.89-.42-1.19-.28-.3-.66-.45-1.15-.45s-.91.16-1.22.47c-.31.31-.47.73-.47,1.25v3.83h-1.15Z"/><path class="cls-2" d="M292.55,521.47c-.3,0-.59-.01-.89-.04s-.59-.06-.86-.1v-.97c.29.04.59.07.91.1.32.03.61.04.89.04.58,0,1.05-.08,1.4-.23.35-.16.6-.4.76-.73.16-.33.23-.76.23-1.28v-1.22l.38-.91c-.02.65-.16,1.19-.41,1.61-.25.43-.57.75-.97.96-.4.21-.83.32-1.31.32-.45,0-.86-.09-1.23-.26s-.69-.41-.96-.71c-.27-.3-.48-.65-.62-1.05-.15-.4-.22-.81-.22-1.25v-.22c0-.45.08-.87.23-1.25.15-.39.36-.73.64-1.01.27-.29.6-.51.98-.67s.8-.24,1.25-.24c.54,0,1.01.11,1.42.34.41.23.73.56.97,1,.24.44.37.97.39,1.6h-.34s0-2.72,0-2.72h.91v5.65c0,.77-.12,1.39-.35,1.87-.24.48-.61.83-1.13,1.05-.52.22-1.2.34-2.06.34ZM292.89,517.96c.38,0,.73-.08,1.05-.25.32-.17.57-.41.76-.73.19-.32.28-.69.28-1.13v-.55c0-.43-.1-.8-.29-1.09s-.45-.52-.76-.67c-.31-.15-.65-.23-1.02-.23-.42,0-.78.1-1.1.29-.32.19-.57.46-.74.81-.18.35-.26.76-.26,1.23s.09.88.27,1.24c.18.35.43.62.74.81.32.19.68.28,1.09.28Z"/><path class="cls-2" d="M300.95,519.19c-.56,0-1.04-.1-1.45-.29-.41-.19-.74-.45-1-.76s-.45-.67-.57-1.06c-.12-.39-.19-.79-.19-1.2v-.22c0-.42.06-.82.19-1.21.12-.39.31-.75.57-1.06s.58-.57.98-.76c.4-.19.86-.28,1.4-.28.7,0,1.27.15,1.72.45.45.3.79.69,1.01,1.16.22.47.33.98.33,1.51v.52h-5.69v-.86h4.85l-.26.47c0-.46-.07-.85-.22-1.18-.14-.33-.36-.59-.65-.77-.29-.18-.65-.28-1.09-.28s-.83.1-1.13.31-.52.49-.67.85c-.15.36-.22.78-.22,1.25s.07.87.22,1.23c.15.36.38.65.69.86.31.21.71.32,1.19.32s.91-.11,1.23-.34c.32-.22.51-.48.57-.78h1.08c-.09.44-.26.82-.53,1.14-.26.32-.6.56-1,.73-.4.17-.85.25-1.36.25Z"/><path class="cls-2" d="M307.37,513.43v-.86h4.42v.86h-4.42ZM310.8,519.04c-.48,0-.89-.07-1.24-.2-.35-.14-.62-.37-.8-.7-.19-.33-.28-.78-.28-1.35v-6.17h1.1v6.31c0,.34.09.61.28.8.19.19.45.28.8.28h1.13v1.03h-.98Z"/><path class="cls-2" d="M313.41,518.97v-8.76h1.15v5.23h-.29c0-.63.08-1.18.25-1.64s.42-.81.76-1.06c.34-.25.78-.37,1.32-.37h.05c.77,0,1.35.25,1.74.76s.59,1.23.59,2.18v3.66h-1.15v-3.9c0-.52-.15-.92-.44-1.21s-.67-.43-1.13-.43c-.51,0-.92.17-1.23.51s-.46.79-.46,1.34v3.7h-1.15Z"/><path class="cls-2" d="M323.82,519.19c-.56,0-1.04-.1-1.45-.29-.41-.19-.74-.45-1-.76s-.45-.67-.57-1.06c-.12-.39-.19-.79-.19-1.2v-.22c0-.42.06-.82.19-1.21.12-.39.31-.75.57-1.06s.58-.57.98-.76c.4-.19.86-.28,1.4-.28.7,0,1.27.15,1.72.45.45.3.79.69,1.01,1.16.22.47.33.98.33,1.51v.52h-5.69v-.86h4.85l-.26.47c0-.46-.07-.85-.22-1.18-.14-.33-.36-.59-.65-.77-.29-.18-.65-.28-1.09-.28s-.83.1-1.13.31-.52.49-.67.85c-.15.36-.22.78-.22,1.25s.07.87.22,1.23c.15.36.38.65.69.86.31.21.71.32,1.19.32s.91-.11,1.23-.34c.32-.22.51-.48.57-.78h1.08c-.09.44-.26.82-.53,1.14-.26.32-.6.56-1,.73-.4.17-.85.25-1.36.25Z"/><path class="cls-2" d="M330.54,519.16c-.84,0-1.49-.18-1.95-.54-.46-.36-.7-.85-.71-1.48h1.08c.02.25.14.48.38.7.24.22.64.33,1.21.33.51,0,.9-.1,1.18-.31.27-.2.41-.45.41-.75,0-.26-.1-.47-.3-.62-.2-.15-.52-.25-.97-.29l-.7-.07c-.61-.06-1.1-.25-1.49-.55s-.58-.72-.58-1.27c0-.41.1-.76.31-1.05s.5-.52.86-.67.79-.23,1.27-.23c.72,0,1.3.16,1.75.48.45.32.68.8.7,1.43h-1.08c0-.26-.13-.47-.35-.65-.23-.18-.57-.27-1.01-.27s-.79.09-1.02.28c-.23.18-.35.42-.35.7,0,.24.08.43.25.58.16.14.43.24.81.28l.7.07c.69.07,1.24.26,1.66.57.42.31.62.74.62,1.3,0,.4-.11.75-.34,1.06-.23.31-.54.55-.94.72s-.86.26-1.38.26Z"/><path class="cls-2" d="M337.59,519.19c-.56,0-1.04-.1-1.45-.29-.41-.19-.74-.45-1-.76s-.45-.67-.57-1.06c-.12-.39-.19-.79-.19-1.2v-.22c0-.42.06-.82.19-1.21.12-.39.31-.75.57-1.06s.58-.57.98-.76c.4-.19.86-.28,1.4-.28.7,0,1.27.15,1.72.45.45.3.79.69,1.01,1.16.22.47.33.98.33,1.51v.52h-5.69v-.86h4.85l-.26.47c0-.46-.07-.85-.22-1.18-.14-.33-.36-.59-.65-.77-.29-.18-.65-.28-1.09-.28s-.83.1-1.13.31-.52.49-.67.85c-.15.36-.22.78-.22,1.25s.07.87.22,1.23c.15.36.38.65.69.86.31.21.71.32,1.19.32s.91-.11,1.23-.34c.32-.22.51-.48.57-.78h1.08c-.09.44-.26.82-.53,1.14-.26.32-.6.56-1,.73-.4.17-.85.25-1.36.25Z"/><path class="cls-2" d="M347.05,519.16c-.84,0-1.49-.18-1.95-.54-.46-.36-.7-.85-.71-1.48h1.08c.02.25.14.48.38.7.24.22.64.33,1.21.33.51,0,.9-.1,1.18-.31.27-.2.41-.45.41-.75,0-.26-.1-.47-.3-.62-.2-.15-.52-.25-.97-.29l-.7-.07c-.61-.06-1.1-.25-1.49-.55s-.58-.72-.58-1.27c0-.41.1-.76.31-1.05s.5-.52.86-.67.79-.23,1.27-.23c.72,0,1.3.16,1.75.48.45.32.68.8.7,1.43h-1.08c0-.26-.13-.47-.35-.65-.23-.18-.57-.27-1.01-.27s-.79.09-1.02.28c-.23.18-.35.42-.35.7,0,.24.08.43.25.58.16.14.43.24.81.28l.7.07c.69.07,1.24.26,1.66.57.42.31.62.74.62,1.3,0,.4-.11.75-.34,1.06-.23.31-.54.55-.94.72s-.86.26-1.38.26Z"/><path class="cls-2" d="M354.11,519.19c-.56,0-1.04-.1-1.45-.29-.41-.19-.74-.45-1-.76s-.45-.67-.57-1.06c-.12-.39-.19-.79-.19-1.2v-.22c0-.42.06-.82.19-1.21.12-.39.31-.75.57-1.06s.58-.57.98-.76c.4-.19.86-.28,1.4-.28.7,0,1.27.15,1.72.45.45.3.79.69,1.01,1.16.22.47.33.98.33,1.51v.52h-5.69v-.86h4.85l-.26.47c0-.46-.07-.85-.22-1.18-.14-.33-.36-.59-.65-.77-.29-.18-.65-.28-1.09-.28s-.83.1-1.13.31-.52.49-.67.85c-.15.36-.22.78-.22,1.25s.07.87.22,1.23c.15.36.38.65.69.86.31.21.71.32,1.19.32s.91-.11,1.23-.34c.32-.22.51-.48.57-.78h1.08c-.09.44-.26.82-.53,1.14-.26.32-.6.56-1,.73-.4.17-.85.25-1.36.25Z"/><path class="cls-2" d="M357.79,513.43v-.86h4.42v.86h-4.42ZM361.22,519.04c-.48,0-.89-.07-1.24-.2-.35-.14-.62-.37-.8-.7-.19-.33-.28-.78-.28-1.35v-6.17h1.1v6.31c0,.34.09.61.28.8.19.19.45.28.8.28h1.13v1.03h-.98Z"/><path class="cls-2" d="M362.9,513.43v-.86h4.42v.86h-4.42ZM366.33,519.04c-.48,0-.89-.07-1.24-.2-.35-.14-.62-.37-.8-.7-.19-.33-.28-.78-.28-1.35v-6.17h1.1v6.31c0,.34.09.61.28.8.19.19.45.28.8.28h1.13v1.03h-.98Z"/><path class="cls-2" d="M368.28,513.48v-.91h2.14v.91h-2.14ZM369.59,511.53c-.26,0-.45-.07-.57-.2-.12-.14-.19-.31-.19-.52s.06-.38.19-.52.31-.2.57-.2.45.07.57.2.19.31.19.52-.06.38-.19.52c-.12.14-.31.2-.57.2ZM369.26,518.97v-6.41h1.15v6.41h-1.15Z"/><path class="cls-2" d="M372.64,518.97v-6.41h.91v2.75h-.14c0-.63.09-1.17.26-1.6.17-.44.43-.77.79-1,.35-.23.8-.34,1.33-.34h.05c.81,0,1.41.25,1.79.76s.58,1.23.58,2.18v3.66h-1.15v-3.9c0-.5-.14-.89-.42-1.19-.28-.3-.66-.45-1.15-.45s-.91.16-1.22.47c-.31.31-.47.73-.47,1.25v3.83h-1.15Z"/><path class="cls-2" d="M382.75,521.47c-.3,0-.59-.01-.89-.04s-.59-.06-.86-.1v-.97c.29.04.59.07.91.1.32.03.61.04.89.04.58,0,1.05-.08,1.4-.23.35-.16.6-.4.76-.73.16-.33.23-.76.23-1.28v-1.22l.38-.91c-.02.65-.16,1.19-.41,1.61-.25.43-.57.75-.97.96-.4.21-.83.32-1.31.32-.45,0-.86-.09-1.23-.26s-.69-.41-.96-.71c-.27-.3-.48-.65-.62-1.05-.15-.4-.22-.81-.22-1.25v-.22c0-.45.08-.87.23-1.25.15-.39.36-.73.64-1.01.27-.29.6-.51.98-.67s.8-.24,1.25-.24c.54,0,1.01.11,1.42.34.41.23.73.56.97,1,.24.44.37.97.39,1.6h-.34s0-2.72,0-2.72h.91v5.65c0,.77-.12,1.39-.35,1.87-.24.48-.61.83-1.13,1.05-.52.22-1.2.34-2.06.34ZM383.1,517.96c.38,0,.73-.08,1.05-.25.32-.17.57-.41.76-.73.19-.32.28-.69.28-1.13v-.55c0-.43-.1-.8-.29-1.09s-.45-.52-.76-.67c-.31-.15-.65-.23-1.02-.23-.42,0-.78.1-1.1.29-.32.19-.57.46-.74.81-.18.35-.26.76-.26,1.23s.09.88.27,1.24c.18.35.43.62.74.81.32.19.68.28,1.09.28Z"/><path class="cls-2" d="M390.53,519.16c-.84,0-1.49-.18-1.95-.54-.46-.36-.7-.85-.71-1.48h1.08c.02.25.14.48.38.7.24.22.64.33,1.21.33.51,0,.9-.1,1.18-.31.27-.2.41-.45.41-.75,0-.26-.1-.47-.3-.62-.2-.15-.52-.25-.97-.29l-.7-.07c-.61-.06-1.1-.25-1.49-.55s-.58-.72-.58-1.27c0-.41.1-.76.31-1.05s.5-.52.86-.67.79-.23,1.27-.23c.72,0,1.3.16,1.75.48.45.32.68.8.7,1.43h-1.08c0-.26-.13-.47-.35-.65-.23-.18-.57-.27-1.01-.27s-.79.09-1.02.28c-.23.18-.35.42-.35.7,0,.24.08.43.25.58.16.14.43.24.81.28l.7.07c.69.07,1.24.26,1.66.57.42.31.62.74.62,1.3,0,.4-.11.75-.34,1.06-.23.31-.54.55-.94.72s-.86.26-1.38.26Z"/><path class="cls-2" d="M399.37,519.14c-.48,0-.89-.08-1.24-.25-.35-.16-.62-.4-.8-.71-.19-.31-.28-.69-.28-1.13s.1-.84.31-1.14c.2-.3.5-.53.89-.69s.86-.23,1.42-.23h1.74v.86h-1.79c-.46,0-.82.11-1.07.34-.25.22-.37.51-.37.86s.12.64.37.85c.25.22.6.32,1.07.32.27,0,.53-.05.78-.15.25-.1.45-.27.62-.5.16-.24.25-.56.27-.98l.31.46c-.04.46-.15.84-.33,1.15-.18.31-.43.54-.74.7-.32.16-.7.24-1.15.24ZM401.47,518.97v-1.92h-.19v-2.22c0-.44-.11-.77-.34-1-.23-.22-.56-.34-1-.34-.25,0-.5,0-.77.01-.26,0-.52.02-.76.02-.24,0-.45.02-.62.04v-1.01c.18-.02.36-.03.56-.04.2-.01.4-.02.61-.02s.41,0,.6,0c.66,0,1.19.08,1.61.23s.72.41.92.76c.2.35.3.83.3,1.43v4.06h-.91Z"/><path class="cls-2" d="M403.56,513.43v-.86h4.42v.86h-4.42ZM406.99,519.04c-.48,0-.89-.07-1.24-.2-.35-.14-.62-.37-.8-.7-.19-.33-.28-.78-.28-1.35v-6.17h1.1v6.31c0,.34.09.61.28.8.19.19.45.28.8.28h1.13v1.03h-.98Z"/><path class="cls-2" d="M414.12,519.14c-.48,0-.89-.08-1.24-.25-.35-.16-.62-.4-.8-.71-.19-.31-.28-.69-.28-1.13s.1-.84.31-1.14c.2-.3.5-.53.89-.69s.86-.23,1.42-.23h1.74v.86h-1.79c-.46,0-.82.11-1.07.34-.25.22-.37.51-.37.86s.12.64.37.85c.25.22.6.32,1.07.32.27,0,.53-.05.78-.15.25-.1.45-.27.62-.5.16-.24.25-.56.27-.98l.31.46c-.04.46-.15.84-.33,1.15-.18.31-.43.54-.74.7-.32.16-.7.24-1.15.24ZM416.22,518.97v-1.92h-.19v-2.22c0-.44-.11-.77-.34-1-.23-.22-.56-.34-1-.34-.25,0-.5,0-.77.01-.26,0-.52.02-.76.02-.24,0-.45.02-.62.04v-1.01c.18-.02.36-.03.56-.04.2-.01.4-.02.61-.02s.41,0,.6,0c.66,0,1.19.08,1.61.23s.72.41.92.76c.2.35.3.83.3,1.43v4.06h-.91Z"/><path class="cls-2" d="M419.24,518.97v-6.41h.91v2.75h-.14c0-.63.09-1.17.26-1.6.17-.44.43-.77.79-1,.35-.23.8-.34,1.33-.34h.05c.81,0,1.41.25,1.79.76s.58,1.23.58,2.18v3.66h-1.15v-3.9c0-.5-.14-.89-.42-1.19-.28-.3-.66-.45-1.15-.45s-.91.16-1.22.47c-.31.31-.47.73-.47,1.25v3.83h-1.15Z"/><path class="cls-2" d="M428.28,518.83l-2.29-6.26h1.18l2.2,6.26h-1.08ZM426.44,521.47v-1.03h.92c.27,0,.5-.03.69-.1.19-.07.34-.18.47-.34.12-.16.23-.37.31-.64l2.02-6.79h1.13l-2.14,7.09c-.13.42-.31.77-.54,1.04-.23.27-.51.46-.85.59s-.72.19-1.16.19h-.85ZM428.4,518.83v-.96h1.39v.96h-1.39Z"/><path class="cls-2" d="M435.24,513.43v-.86h4.42v.86h-4.42ZM438.67,519.04c-.48,0-.89-.07-1.24-.2-.35-.14-.62-.37-.8-.7-.19-.33-.28-.78-.28-1.35v-6.17h1.1v6.31c0,.34.09.61.28.8.19.19.45.28.8.28h1.13v1.03h-.98Z"/><path class="cls-2" d="M440.61,513.48v-.91h2.14v.91h-2.14ZM441.92,511.53c-.26,0-.45-.07-.57-.2-.12-.14-.19-.31-.19-.52s.06-.38.19-.52.31-.2.57-.2.45.07.57.2.19.31.19.52-.06.38-.19.52c-.12.14-.31.2-.57.2ZM441.6,518.97v-6.41h1.15v6.41h-1.15Z"/><path class="cls-2" d="M444.98,518.97v-6.41h.91v2.75h-.14c0-.62.08-1.15.25-1.59.16-.44.41-.77.74-1,.33-.23.74-.35,1.25-.35h.05c.5,0,.92.12,1.25.35s.58.57.74,1c.16.44.24.97.24,1.59h-.34c0-.62.08-1.15.25-1.59.17-.44.42-.77.75-1s.75-.35,1.25-.35h.05c.5,0,.92.12,1.26.35s.59.57.75,1c.16.44.25.97.25,1.59v3.66h-1.15v-3.91c0-.52-.13-.92-.38-1.21-.26-.28-.61-.43-1.07-.43s-.85.15-1.14.45-.43.72-.43,1.25v3.84h-1.15v-3.91c0-.52-.13-.92-.38-1.21-.26-.28-.61-.43-1.07-.43s-.85.15-1.14.45c-.29.3-.43.72-.43,1.25v3.84h-1.15Z"/><path class="cls-2" d="M459.32,519.19c-.56,0-1.04-.1-1.45-.29-.41-.19-.74-.45-1-.76s-.45-.67-.57-1.06c-.12-.39-.19-.79-.19-1.2v-.22c0-.42.06-.82.19-1.21.12-.39.31-.75.57-1.06s.58-.57.98-.76c.4-.19.86-.28,1.4-.28.7,0,1.27.15,1.72.45.45.3.79.69,1.01,1.16.22.47.33.98.33,1.51v.52h-5.69v-.86h4.85l-.26.47c0-.46-.07-.85-.22-1.18-.14-.33-.36-.59-.65-.77-.29-.18-.65-.28-1.09-.28s-.83.1-1.13.31-.52.49-.67.85c-.15.36-.22.78-.22,1.25s.07.87.22,1.23c.15.36.38.65.69.86.31.21.71.32,1.19.32s.91-.11,1.23-.34c.32-.22.51-.48.57-.78h1.08c-.09.44-.26.82-.53,1.14-.26.32-.6.56-1,.73-.4.17-.85.25-1.36.25Z"/><path class="cls-2" d="M463.62,518.97v-1.46h1.39v1.46h-1.39Z"/><path class="cls-1" d="M398.88,565.68c-.78,0-1.43-.12-1.96-.37-.53-.25-.94-.59-1.22-1.03-.28-.44-.42-.93-.42-1.48h1.67c0,.23.06.46.19.68.13.22.33.4.62.53.29.14.66.2,1.12.2.42,0,.76-.06,1.04-.18.28-.12.49-.28.62-.47.14-.2.2-.42.2-.67,0-.31-.13-.56-.4-.75-.26-.19-.67-.31-1.22-.35l-.77-.06c-.84-.07-1.51-.33-2.01-.79s-.75-1.05-.75-1.79c0-.56.13-1.04.4-1.45.26-.4.63-.72,1.11-.94.48-.22,1.03-.33,1.67-.33s1.24.12,1.71.35c.48.23.85.56,1.12.98.26.42.4.91.4,1.48h-1.67c0-.24-.06-.46-.17-.67-.12-.2-.29-.37-.52-.49s-.52-.19-.87-.19-.62.06-.84.17-.39.26-.5.46c-.11.19-.17.4-.17.62,0,.27.1.51.3.71.2.2.52.32.95.35l.77.07c.62.05,1.17.18,1.64.4.47.22.84.51,1.1.88.26.37.39.81.39,1.33,0,.55-.14,1.04-.43,1.46-.29.42-.7.75-1.23.98-.53.23-1.16.35-1.88.35Z"/><path class="cls-1" d="M406.76,565.68c-.56,0-1.05-.1-1.47-.29s-.77-.45-1.04-.77c-.28-.32-.48-.69-.62-1.09-.14-.4-.21-.81-.21-1.22v-.23c0-.43.07-.85.21-1.25.14-.4.35-.76.62-1.08.28-.32.62-.57,1.03-.76s.88-.28,1.42-.28c.7,0,1.29.15,1.77.46.48.31.83.71,1.07,1.21.24.5.36,1.04.36,1.61v.6h-5.77v-1.02h4.73l-.52.5c0-.42-.06-.77-.18-1.07-.12-.3-.3-.52-.55-.68s-.55-.24-.92-.24-.68.08-.94.25-.45.41-.58.73c-.13.32-.2.69-.2,1.13,0,.41.06.77.19,1.09.13.32.32.56.59.74.26.18.6.27,1.01.27s.74-.08,1-.25.42-.37.49-.61h1.54c-.1.45-.28.84-.55,1.18s-.62.6-1.04.78c-.42.18-.9.28-1.43.28Z"/><path class="cls-1" d="M410.45,560.16v-1.22h4.61v1.22h-4.61ZM414.12,565.54c-.6,0-1.09-.08-1.48-.23-.39-.16-.68-.42-.87-.79s-.29-.87-.29-1.51v-5.9h1.57v6.01c-.01.32.07.57.25.74.17.17.42.26.74.26h1.02v1.43h-.94Z"/><path class="cls-1" d="M415.62,560.16v-1.22h4.61v1.22h-4.61ZM419.29,565.54c-.6,0-1.09-.08-1.48-.23-.39-.16-.68-.42-.87-.79s-.29-.87-.29-1.51v-5.9h1.57v6.01c-.01.32.07.57.25.74.17.17.42.26.74.26h1.02v1.43h-.94Z"/><path class="cls-1" d="M421.03,560.19v-1.25h2.58v1.25h-2.58ZM422.55,558.16c-.33,0-.57-.09-.73-.26-.16-.17-.23-.39-.23-.65s.08-.48.23-.65c.16-.17.4-.25.73-.25s.57.08.72.25.23.38.23.65-.08.48-.23.65c-.15.17-.39.26-.72.26ZM421.94,565.45v-6.52h1.67v6.52h-1.67Z"/><path class="cls-1" d="M425.53,565.45v-6.52h1.32v2.8h-.12c0-.66.09-1.22.26-1.66.18-.44.44-.78.79-1,.35-.22.78-.34,1.3-.34h.07c.78,0,1.36.25,1.76.75.4.5.6,1.25.6,2.24v3.73h-1.67v-3.88c0-.4-.11-.72-.34-.97-.23-.25-.54-.37-.94-.37s-.74.13-.99.38c-.25.25-.38.59-.38,1.01v3.83h-1.67Z"/><path class="cls-1" d="M435.85,568.02c-.31,0-.63-.01-.95-.04-.32-.02-.63-.06-.91-.1v-1.39c.29.03.6.06.92.09.33.03.64.04.92.04.54,0,.97-.06,1.3-.19s.58-.33.73-.61c.16-.28.23-.63.23-1.05v-1.28l.36-.82c-.02.6-.15,1.11-.37,1.53-.22.42-.53.74-.91.96-.38.22-.83.33-1.33.33-.45,0-.85-.08-1.22-.25-.37-.17-.68-.4-.94-.7s-.46-.64-.61-1.04c-.14-.4-.21-.83-.21-1.28v-.25c0-.46.07-.88.22-1.28.15-.4.36-.74.63-1.04.27-.3.6-.52.97-.68s.79-.24,1.25-.24c.54,0,1,.12,1.4.35.4.23.71.57.93,1.01s.35.98.37,1.62l-.29.05v-2.82h1.32v5.75c0,.79-.13,1.43-.41,1.92s-.69.85-1.25,1.07-1.29.34-2.17.34ZM436.33,564.07c.32,0,.61-.07.88-.22.26-.14.47-.35.63-.62.16-.27.24-.6.24-.98v-.42c0-.37-.08-.68-.25-.94-.16-.26-.38-.45-.64-.58-.26-.13-.55-.2-.86-.2-.35,0-.66.08-.93.25-.27.16-.48.39-.63.69-.15.3-.23.65-.23,1.06s.08.75.23,1.04c.15.3.36.52.63.68.27.16.58.24.93.24Z"/><path class="cls-1" d="M443.87,565.66c-.9,0-1.6-.19-2.11-.57s-.77-.91-.8-1.58h1.5c.02.22.15.43.37.61.22.18.58.28,1.06.28.4,0,.72-.07.95-.22s.35-.34.35-.59c0-.22-.09-.39-.27-.52-.18-.13-.49-.21-.92-.25l-.58-.06c-.73-.08-1.29-.29-1.68-.62-.39-.34-.59-.78-.59-1.34,0-.45.11-.82.34-1.13.22-.3.53-.53.93-.69.4-.16.85-.23,1.36-.23.8,0,1.45.18,1.94.53.5.35.76.87.78,1.55h-1.5c-.02-.22-.13-.42-.34-.58-.21-.16-.51-.24-.9-.24-.35,0-.62.07-.82.2-.19.14-.29.31-.29.53s.08.37.23.48c.16.11.41.19.76.23l.58.06c.77.08,1.37.29,1.81.64.44.34.65.81.65,1.39,0,.43-.12.81-.35,1.12-.24.32-.57.56-.99.74-.42.18-.92.26-1.5.26Z"/><path class="cls-1" d="M249.6,565.45v-8.82h1.7v8.82h-1.7ZM250.8,562.53v-1.38h2.23c.31,0,.58-.06.81-.19s.41-.31.53-.54.19-.5.19-.79-.06-.57-.19-.8c-.13-.23-.31-.41-.53-.54s-.5-.19-.81-.19h-2.23v-1.45h2.05c.7,0,1.31.1,1.83.31.52.21.91.52,1.19.95.28.42.42.96.42,1.6v.19c0,.65-.14,1.18-.43,1.6-.28.42-.68.73-1.19.94-.51.21-1.12.31-1.82.31h-2.05ZM254.96,565.45l-2.69-3.82h1.91l2.77,3.82h-1.99Z"/><path class="cls-1" d="M260.91,565.68c-.56,0-1.05-.1-1.47-.29s-.77-.45-1.04-.77c-.28-.32-.48-.69-.62-1.09s-.21-.81-.21-1.22v-.23c0-.43.07-.85.21-1.25s.35-.76.62-1.08c.28-.32.62-.57,1.03-.76s.88-.28,1.42-.28c.7,0,1.29.15,1.77.46.48.31.83.71,1.07,1.21s.36,1.04.36,1.61v.6h-5.77v-1.02h4.73l-.52.5c0-.42-.06-.77-.18-1.07s-.3-.52-.55-.68-.55-.24-.92-.24-.68.08-.94.25-.45.41-.58.73c-.13.32-.2.69-.2,1.13,0,.41.06.77.19,1.09s.32.56.59.74c.26.18.6.27,1.01.27s.74-.08,1-.25.42-.37.49-.61h1.54c-.1.45-.28.84-.55,1.18-.27.34-.62.6-1.04.78-.42.18-.9.28-1.43.28Z"/><path class="cls-1" d="M264.51,567.91v-1.43h.5c.3,0,.52-.08.68-.24s.24-.39.24-.68v-6.62h1.61v6.53c0,.6-.09,1.08-.28,1.43s-.47.61-.85.77c-.38.16-.89.24-1.51.24h-.4ZM264.99,560.19v-1.25h2.56v1.25h-2.56ZM266.47,558.11c-.32,0-.56-.09-.71-.26-.16-.17-.23-.39-.23-.65s.08-.48.23-.65.39-.25.71-.25.57.08.73.25c.16.17.23.38.23.65s-.08.48-.23.65c-.16.17-.4.26-.73.26Z"/><path class="cls-1" d="M272.33,565.68c-.56,0-1.05-.1-1.47-.29s-.77-.45-1.04-.77c-.28-.32-.48-.69-.62-1.09s-.21-.81-.21-1.22v-.23c0-.43.07-.85.21-1.25s.35-.76.62-1.08c.28-.32.62-.57,1.03-.76s.88-.28,1.42-.28c.7,0,1.29.15,1.77.46.48.31.83.71,1.07,1.21s.36,1.04.36,1.61v.6h-5.77v-1.02h4.73l-.52.5c0-.42-.06-.77-.18-1.07s-.3-.52-.55-.68-.55-.24-.92-.24-.68.08-.94.25-.45.41-.58.73c-.13.32-.2.69-.2,1.13,0,.41.06.77.19,1.09s.32.56.59.74c.26.18.6.27,1.01.27s.74-.08,1-.25.42-.37.49-.61h1.54c-.1.45-.28.84-.55,1.18-.27.34-.62.6-1.04.78-.42.18-.9.28-1.43.28Z"/><path class="cls-1" d="M279.75,565.68c-.57,0-1.06-.1-1.47-.29s-.76-.45-1.03-.77c-.28-.32-.48-.68-.62-1.08-.14-.4-.2-.81-.2-1.22v-.23c0-.44.07-.86.21-1.27.14-.4.35-.76.63-1.08.28-.32.63-.57,1.04-.76s.89-.28,1.43-.28,1.08.11,1.52.33c.45.22.81.53,1.07.92.27.39.42.85.45,1.37h-1.62c-.04-.34-.18-.62-.43-.84-.24-.22-.58-.34-1-.34-.37,0-.67.09-.92.26-.24.18-.43.42-.55.73s-.18.66-.18,1.06.06.73.17,1.04c.12.31.3.56.54.73.24.18.56.26.94.26.29,0,.54-.05.74-.16.21-.1.37-.25.5-.43s.2-.39.23-.62h1.62c-.03.53-.19.99-.46,1.39-.28.4-.64.71-1.09.93-.45.22-.97.34-1.54.34Z"/><path class="cls-1" d="M283.33,560.16v-1.22h4.61v1.22h-4.61ZM287.01,565.54c-.6,0-1.09-.08-1.48-.23-.39-.16-.68-.42-.87-.79s-.29-.87-.29-1.51v-5.9h1.57v6.01c-.01.32.07.57.25.74.17.17.42.26.74.26h1.02v1.43h-.94Z"/><path class="cls-1" d="M545.02,565.45l2.99-8.76h2.78l3.07,8.76h-1.75l-2.6-7.6.61.26h-1.5l.62-.26-2.52,7.6h-1.7ZM547.1,563.13l.54-1.44h3.55l.53,1.44h-4.62Z"/><path class="cls-1" d="M557.82,565.68c-.57,0-1.06-.1-1.47-.29s-.76-.45-1.03-.77c-.28-.32-.48-.68-.62-1.08-.14-.4-.2-.81-.2-1.22v-.23c0-.44.07-.86.21-1.27s.35-.76.63-1.08c.28-.32.63-.57,1.04-.76s.89-.28,1.43-.28,1.08.11,1.52.33c.45.22.81.53,1.07.92.27.39.42.85.45,1.37h-1.62c-.04-.34-.18-.62-.43-.84-.24-.22-.58-.34-1-.34-.37,0-.67.09-.92.26-.24.18-.43.42-.55.73-.12.31-.18.66-.18,1.06s.06.73.17,1.04c.12.31.3.56.54.73.24.18.56.26.94.26.29,0,.54-.05.74-.16.21-.1.37-.25.5-.43.12-.18.2-.39.23-.62h1.62c-.03.53-.19.99-.46,1.39s-.64.71-1.09.93c-.45.22-.96.34-1.54.34Z"/><path class="cls-1" d="M565.14,565.68c-.57,0-1.06-.1-1.47-.29s-.76-.45-1.03-.77c-.28-.32-.48-.68-.62-1.08-.14-.4-.2-.81-.2-1.22v-.23c0-.44.07-.86.21-1.27.14-.4.35-.76.63-1.08.28-.32.62-.57,1.04-.76s.89-.28,1.43-.28,1.08.11,1.52.33c.45.22.8.53,1.07.92.27.39.42.85.45,1.37h-1.62c-.04-.34-.18-.62-.43-.84-.24-.22-.58-.34-1-.34-.37,0-.67.09-.92.26-.24.18-.43.42-.55.73-.12.31-.18.66-.18,1.06s.06.73.17,1.04c.12.31.29.56.54.73.24.18.56.26.94.26.29,0,.54-.05.74-.16.21-.1.37-.25.5-.43s.2-.39.23-.62h1.62c-.03.53-.19.99-.46,1.39-.28.4-.64.71-1.09.93-.45.22-.97.34-1.54.34Z"/><path class="cls-1" d="M572.48,565.68c-.56,0-1.05-.1-1.47-.29s-.77-.45-1.04-.77-.48-.69-.62-1.09c-.14-.4-.21-.81-.21-1.22v-.23c0-.43.07-.85.21-1.25.14-.4.35-.76.62-1.08.28-.32.62-.57,1.03-.76s.88-.28,1.42-.28c.7,0,1.29.15,1.77.46.48.31.83.71,1.07,1.21s.36,1.04.36,1.61v.6h-5.77v-1.02h4.73l-.52.5c0-.42-.06-.77-.18-1.07-.12-.3-.3-.52-.54-.68s-.55-.24-.92-.24-.68.08-.94.25-.45.41-.58.73c-.13.32-.2.69-.2,1.13,0,.41.06.77.19,1.09s.32.56.59.74c.26.18.6.27,1.01.27s.74-.08,1-.25.42-.37.49-.61h1.54c-.1.45-.28.84-.55,1.18-.27.34-.62.6-1.04.78-.42.18-.9.28-1.43.28Z"/><path class="cls-1" d="M577.01,567.85v-8.92h1.32v2.81h-.21c.03-.68.17-1.23.41-1.68.24-.45.57-.78.98-1,.41-.22.86-.33,1.37-.33.46,0,.88.08,1.25.25.37.17.69.4.96.71.27.3.47.66.62,1.06.14.4.22.84.22,1.3v.25c0,.47-.07.91-.21,1.31-.14.4-.34.76-.61,1.07-.27.31-.59.55-.97.72s-.8.26-1.26.26c-.49,0-.93-.1-1.34-.31-.4-.2-.73-.52-.98-.95-.25-.43-.39-.98-.42-1.66l.53.8v4.3h-1.67ZM580.46,564.27c.36,0,.67-.09.94-.26.27-.18.48-.42.63-.74s.23-.67.23-1.07-.08-.78-.23-1.08c-.15-.3-.36-.54-.63-.71-.27-.17-.58-.26-.94-.26-.33,0-.63.07-.91.22s-.5.36-.67.64c-.17.28-.26.62-.26,1.01v.48c0,.38.09.7.26.96.18.26.4.47.68.61.28.14.58.22.89.22Z"/><path class="cls-1" d="M584.55,560.16v-1.22h4.61v1.22h-4.61ZM588.23,565.54c-.6,0-1.09-.08-1.48-.23-.39-.16-.68-.42-.87-.79-.19-.37-.29-.87-.29-1.51v-5.9h1.57v6.01c-.01.32.07.57.25.74.17.17.42.26.74.26h1.02v1.43h-.94Z"/></g></svg>