<svg id="Ebene_2" width="841" height="595" xmlns="http://www.w3.org/2000/svg" viewBox="0 0 841.89 595.28"><defs><style>.cls-1{fill:#f7f6e8;}.cls-1,.cls-2,.cls-3,.cls-4,.cls-5{stroke-width:0px;}.cls-2{fill:#0d2a3e;}.cls-3{fill:#d3d926;}.cls-4{fill:#015d53;}.cls-5{fill:#9fc131;}</style></defs><g id="Ebene_1-2"><rect class="cls-5" width="841.89" height="595.28" rx="17.83" ry="17.83"/><rect class="cls-1" x="190.82" y="215.04" width="460.26" height="165.19" rx="10.85" ry="10.85"/><rect class="cls-5" x="208.92" y="327.06" width="130.92" height="40.33" rx="6.68" ry="6.68"/><rect class="cls-4" x="501.7" y="327.06" width="130.92" height="40.33" rx="6.68" ry="6.68"/><rect class="cls-3" x="355.31" y="327.06" width="130.92" height="40.33" rx="6.68" ry="6.68"/><path class="cls-2" d="M218.7,249c-1.39,0-2.58-.25-3.57-.73s-1.8-1.13-2.43-1.91c-.62-.78-1.08-1.64-1.38-2.56-.29-.92-.44-1.81-.44-2.67v-.46c0-.95.15-1.89.45-2.81s.77-1.76,1.4-2.52c.63-.76,1.43-1.36,2.4-1.82s2.12-.68,3.46-.68,2.59.25,3.62.75,1.85,1.2,2.47,2.1c.62.9.99,1.96,1.11,3.16h-3c-.11-.7-.36-1.29-.74-1.77s-.87-.85-1.46-1.09c-.59-.25-1.25-.37-2-.37s-1.43.13-2.02.39-1.08.63-1.47,1.1-.69,1.04-.89,1.68c-.2.64-.3,1.36-.3,2.14s.1,1.46.3,2.1.51,1.21.91,1.69.91.86,1.5,1.12c.59.27,1.28.4,2.07.4,1.15,0,2.12-.28,2.91-.85s1.27-1.36,1.44-2.38h3c-.14,1.09-.51,2.09-1.11,3-.6.91-1.43,1.64-2.48,2.18-1.05.55-2.3.82-3.76.82Z"/><path class="cls-2" d="M233.82,249c-1.01,0-1.9-.16-2.67-.48s-1.42-.76-1.95-1.31c-.53-.55-.93-1.18-1.21-1.88s-.41-1.43-.41-2.18v-.44c0-.78.14-1.53.43-2.24.29-.71.7-1.34,1.24-1.89s1.19-.99,1.96-1.3,1.64-.47,2.6-.47,1.83.16,2.61.47c.77.31,1.42.75,1.96,1.3s.95,1.18,1.23,1.89c.28.71.42,1.45.42,2.24v.44c0,.76-.14,1.48-.41,2.18-.27.7-.68,1.33-1.21,1.88-.53.55-1.18.99-1.95,1.31s-1.65.48-2.65.48ZM233.82,246.5c.71,0,1.32-.16,1.81-.47.49-.32.86-.74,1.11-1.28.25-.54.38-1.15.38-1.84s-.13-1.32-.39-1.86c-.26-.54-.64-.97-1.13-1.28-.5-.31-1.09-.47-1.78-.47s-1.28.16-1.77.47c-.5.31-.88.74-1.14,1.28s-.4,1.16-.4,1.86.13,1.3.39,1.84c.26.54.63.97,1.12,1.28.49.31,1.09.47,1.8.47Z"/><path class="cls-2" d="M242.6,248.6v-11.4h2.31v4.89h-.21c0-1.16.15-2.13.46-2.91.31-.78.77-1.36,1.38-1.75.61-.39,1.37-.59,2.28-.59h.13c1.36,0,2.39.44,3.09,1.31.7.88,1.05,2.18,1.05,3.92v6.53h-2.92v-6.78c0-.7-.2-1.27-.6-1.7s-.95-.65-1.65-.65-1.29.22-1.73.66-.66,1.03-.66,1.77v6.7h-2.92Z"/><path class="cls-2" d="M260.35,248.96c-1.57,0-2.8-.33-3.69-1-.89-.66-1.36-1.59-1.4-2.76h2.62c.04.39.26.75.65,1.07.39.32,1.01.48,1.85.48.7,0,1.26-.13,1.67-.38s.62-.59.62-1.03c0-.38-.16-.68-.47-.9-.31-.22-.85-.37-1.61-.44l-1.01-.1c-1.28-.14-2.25-.5-2.94-1.09-.69-.59-1.03-1.37-1.03-2.35,0-.78.2-1.44.59-1.97.39-.53.93-.93,1.63-1.21s1.49-.41,2.38-.41c1.4,0,2.54.31,3.4.92.87.62,1.32,1.52,1.37,2.71h-2.62c-.03-.39-.22-.73-.59-1.01-.37-.28-.89-.42-1.57-.42-.62,0-1.09.12-1.43.36-.34.24-.5.55-.5.92s.14.64.41.84c.27.2.72.33,1.33.4l1.01.1c1.34.14,2.4.51,3.16,1.11s1.14,1.41,1.14,2.44c0,.76-.21,1.41-.62,1.96-.41.55-.99.98-1.73,1.29s-1.62.46-2.62.46Z"/><path class="cls-2" d="M272.84,249c-.98,0-1.84-.17-2.57-.5-.73-.34-1.34-.79-1.83-1.35s-.85-1.2-1.09-1.9c-.25-.7-.37-1.41-.37-2.14v-.4c0-.76.12-1.49.37-2.19.24-.71.61-1.34,1.09-1.89s1.08-.99,1.79-1.32c.71-.33,1.54-.49,2.48-.49,1.23,0,2.26.27,3.1.81.83.54,1.46,1.25,1.88,2.12.42.88.63,1.82.63,2.82v1.05h-10.1v-1.79h8.27l-.9.88c0-.73-.11-1.35-.31-1.87-.21-.52-.53-.92-.96-1.2-.43-.28-.96-.42-1.61-.42s-1.19.15-1.64.44c-.45.29-.79.72-1.02,1.27-.23.55-.35,1.21-.35,1.98,0,.71.11,1.35.34,1.9.22.55.57.99,1.03,1.3.46.31,1.05.47,1.76.47s1.29-.14,1.74-.43c.45-.29.73-.64.86-1.06h2.69c-.17.78-.49,1.47-.97,2.06-.47.59-1.08,1.04-1.82,1.37-.73.32-1.57.48-2.51.48Z"/><path class="cls-2" d="M280.76,248.6v-11.4h2.31v4.89h-.21c0-1.16.15-2.13.46-2.91.31-.78.77-1.36,1.38-1.75.61-.39,1.37-.59,2.28-.59h.13c1.36,0,2.39.44,3.09,1.31.7.88,1.05,2.18,1.05,3.92v6.53h-2.92v-6.78c0-.7-.2-1.27-.6-1.7s-.95-.65-1.65-.65-1.29.22-1.73.66-.66,1.03-.66,1.77v6.7h-2.92Z"/><path class="cls-2" d="M292.9,239.34v-2.14h8.06v2.14h-8.06ZM299.32,248.75c-1.05,0-1.92-.14-2.59-.41-.68-.27-1.19-.73-1.52-1.39s-.5-1.53-.5-2.64l.02-10.33h2.73l-.02,10.52c0,.56.15.99.45,1.29.3.3.73.45,1.29.45h1.79v2.5h-1.64Z"/><path class="cls-2" d="M308.18,248.6v-15.44h2.98v15.44h-2.98ZM310.28,243.48v-2.42h3.91c.55,0,1.02-.11,1.42-.34.4-.22.71-.54.93-.94s.34-.87.34-1.39-.11-1-.34-1.41-.54-.72-.93-.95c-.4-.22-.87-.34-1.42-.34h-3.91v-2.54h3.59c1.23,0,2.3.18,3.2.55.9.36,1.6.92,2.09,1.66.49.74.74,1.67.74,2.79v.34c0,1.13-.25,2.07-.75,2.79-.5.73-1.19,1.27-2.09,1.64-.9.36-1.96.55-3.19.55h-3.59ZM317.55,248.6l-4.7-6.68h3.34l4.85,6.68h-3.49Z"/><path class="cls-2" d="M327.97,249c-.98,0-1.84-.17-2.57-.5-.74-.34-1.34-.79-1.83-1.35-.48-.57-.85-1.2-1.09-1.9-.24-.7-.37-1.41-.37-2.14v-.4c0-.76.12-1.49.37-2.19.25-.71.61-1.34,1.09-1.89.48-.55,1.08-.99,1.8-1.32.71-.33,1.54-.49,2.48-.49,1.23,0,2.27.27,3.1.81.83.54,1.46,1.25,1.88,2.12.42.88.63,1.82.63,2.82v1.05h-10.1v-1.79h8.28l-.9.88c0-.73-.1-1.35-.31-1.87-.21-.52-.53-.92-.96-1.2-.43-.28-.96-.42-1.61-.42s-1.19.15-1.64.44c-.45.29-.79.72-1.02,1.27-.23.55-.35,1.21-.35,1.98,0,.71.11,1.35.34,1.9.22.55.57.99,1.03,1.3.46.31,1.05.47,1.76.47s1.29-.14,1.74-.43c.45-.29.74-.64.86-1.06h2.69c-.17.78-.49,1.47-.96,2.06-.48.59-1.08,1.04-1.82,1.37-.74.32-1.57.48-2.51.48Z"/><path class="cls-2" d="M344.33,252.8v-7.58l.86-1.34c-.04,1.09-.27,2.02-.67,2.78s-.95,1.34-1.64,1.73-1.48.59-2.37.59c-.81,0-1.55-.15-2.21-.45-.66-.3-1.22-.72-1.69-1.26-.47-.54-.83-1.16-1.09-1.87-.26-.71-.39-1.47-.39-2.3v-.44c0-.81.13-1.57.4-2.28.27-.71.64-1.32,1.12-1.85.48-.53,1.06-.94,1.72-1.24.66-.3,1.41-.45,2.24-.45.95,0,1.78.2,2.48.61.7.41,1.25,1,1.65,1.77.4.78.62,1.73.66,2.85h-.46v-4.87h2.31v15.6h-2.92ZM341.26,246.48c.57,0,1.1-.13,1.58-.39.47-.26.86-.64,1.14-1.13.29-.5.43-1.08.43-1.75v-.84c0-.67-.15-1.24-.44-1.69-.29-.45-.68-.8-1.15-1.05-.48-.24-.99-.37-1.55-.37-.63,0-1.19.15-1.67.45-.48.3-.86.73-1.13,1.28s-.41,1.19-.41,1.9.14,1.34.42,1.88c.28.54.66.96,1.14,1.26.48.3,1.03.45,1.65.45Z"/><path class="cls-2" d="M354.45,248.96c-1.32,0-2.33-.43-3.05-1.3s-1.08-2.16-1.08-3.86v-6.61h2.92v6.87c0,.7.2,1.26.59,1.67.39.41.92.62,1.6.62s1.22-.22,1.65-.65c.43-.43.64-1.02.64-1.76v-6.74h2.92v11.42h-2.31v-4.85h.23c0,1.15-.15,2.11-.44,2.88-.29.77-.73,1.35-1.32,1.74s-1.32.59-2.21.59h-.13Z"/><path class="cls-2" d="M362.93,239.38v-2.18h4.52v2.18h-4.52ZM365.6,235.83c-.57,0-1-.15-1.27-.45-.27-.3-.41-.68-.41-1.14s.14-.84.41-1.13.7-.44,1.27-.44.99.15,1.26.44c.27.29.4.67.4,1.13s-.13.84-.4,1.14c-.27.3-.69.45-1.26.45ZM364.53,248.6v-11.4h2.92v11.4h-2.92Z"/><path class="cls-2" d="M370.81,248.6v-11.4h2.31v4.83h-.06c0-1.64.35-2.88,1.05-3.72.7-.84,1.73-1.26,3.09-1.26h.42v2.54h-.8c-.98,0-1.74.26-2.28.79-.54.53-.81,1.28-.81,2.28v5.94h-2.92Z"/><path class="cls-2" d="M384.58,249c-.98,0-1.84-.17-2.57-.5-.73-.34-1.34-.79-1.83-1.35s-.85-1.2-1.09-1.9c-.25-.7-.37-1.41-.37-2.14v-.4c0-.76.12-1.49.37-2.19.24-.71.61-1.34,1.09-1.89s1.08-.99,1.79-1.32c.71-.33,1.54-.49,2.48-.49,1.23,0,2.26.27,3.1.81.83.54,1.46,1.25,1.88,2.12.42.88.63,1.82.63,2.82v1.05h-10.1v-1.79h8.27l-.9.88c0-.73-.11-1.35-.31-1.87-.21-.52-.53-.92-.96-1.2-.43-.28-.96-.42-1.61-.42s-1.19.15-1.64.44c-.45.29-.79.72-1.02,1.27-.23.55-.35,1.21-.35,1.98,0,.71.11,1.35.34,1.9.22.55.57.99,1.03,1.3.46.31,1.05.47,1.76.47s1.29-.14,1.74-.43c.45-.29.73-.64.86-1.06h2.69c-.17.78-.49,1.47-.97,2.06-.47.59-1.08,1.04-1.82,1.37-.73.32-1.57.48-2.51.48Z"/><path class="cls-2" d="M397.22,248.98c-.8,0-1.53-.15-2.21-.44s-1.25-.71-1.74-1.24c-.49-.53-.87-1.15-1.13-1.86-.27-.71-.4-1.47-.4-2.3v-.44c0-.81.13-1.58.39-2.29.26-.71.62-1.34,1.09-1.87.47-.53,1.04-.95,1.7-1.25.66-.3,1.4-.45,2.21-.45.89,0,1.68.19,2.36.58.68.39,1.22.96,1.63,1.73.41.77.63,1.74.67,2.9l-.86-1.01v-7.77h2.92v15.33h-2.31v-4.85h.5c-.04,1.16-.28,2.13-.71,2.91-.43.78-1,1.36-1.71,1.74-.71.39-1.51.58-2.4.58ZM397.87,246.52c.57,0,1.1-.13,1.58-.39.47-.26.86-.64,1.14-1.13.29-.5.43-1.08.43-1.75v-.84c0-.67-.15-1.24-.44-1.69-.29-.45-.68-.8-1.15-1.05-.48-.24-.99-.37-1.55-.37-.63,0-1.19.15-1.67.45-.48.3-.86.72-1.13,1.27s-.41,1.18-.41,1.91.14,1.36.42,1.9c.28.54.66.96,1.14,1.25s1.03.44,1.65.44Z"/><path class="cls-2" d="M209.18,267.42v-1.06h6.5v1.06h-6.5ZM211.84,275.13v-7.94h1.18v7.94h-1.18Z"/><path class="cls-2" d="M219.28,275.34c-.56,0-1.05-.1-1.48-.29-.42-.19-.78-.45-1.07-.76s-.51-.67-.66-1.06c-.15-.39-.22-.79-.22-1.2v-.22c0-.41.08-.81.23-1.21.15-.4.38-.75.67-1.07.3-.32.66-.57,1.08-.76.42-.19.91-.28,1.45-.28s1.03.09,1.45.28.78.44,1.08.76.52.67.67,1.07c.15.4.23.8.23,1.21v.22c0,.41-.07.81-.22,1.2-.15.39-.37.75-.66,1.06-.29.32-.65.57-1.07.76-.42.19-.92.29-1.48.29ZM219.28,274.31c.48,0,.89-.11,1.23-.32s.6-.5.78-.86c.18-.36.27-.76.27-1.21s-.09-.86-.28-1.22c-.18-.36-.45-.64-.79-.85-.34-.21-.75-.31-1.22-.31s-.87.1-1.21.31-.61.49-.79.85c-.18.36-.28.77-.28,1.22s.09.85.27,1.21c.18.36.44.65.78.86s.75.32,1.23.32Z"/><path class="cls-2" d="M230.13,275.34c-.56,0-1.05-.1-1.48-.29-.42-.19-.78-.45-1.07-.76s-.51-.67-.66-1.06c-.15-.39-.22-.79-.22-1.2v-.22c0-.41.08-.81.23-1.21.15-.4.38-.75.67-1.07.3-.32.66-.57,1.08-.76.42-.19.91-.28,1.45-.28s1.03.09,1.45.28.78.44,1.08.76.52.67.67,1.07c.15.4.23.8.23,1.21v.22c0,.41-.07.81-.22,1.2-.15.39-.37.75-.66,1.06-.29.32-.65.57-1.07.76-.42.19-.92.29-1.48.29ZM230.13,274.31c.48,0,.89-.11,1.23-.32s.6-.5.78-.86c.18-.36.27-.76.27-1.21s-.09-.86-.28-1.22c-.18-.36-.45-.64-.79-.85-.34-.21-.75-.31-1.22-.31s-.87.1-1.21.31-.61.49-.79.85c-.18.36-.28.77-.28,1.22s.09.85.27,1.21c.18.36.44.65.78.86s.75.32,1.23.32Z"/><path class="cls-2" d="M235.29,277.53v-8.81h.91v2.77l-.22-.02c.04-.69.19-1.25.44-1.69.25-.44.58-.76.99-.97.41-.21.85-.31,1.33-.31s.89.09,1.27.26.71.42.98.72c.27.3.48.66.62,1.06.14.4.22.82.22,1.27v.22c0,.45-.08.87-.23,1.27-.15.4-.37.75-.64,1.06-.28.3-.6.54-.98.72s-.8.26-1.25.26-.89-.1-1.31-.3-.76-.52-1.03-.97c-.27-.45-.43-1.04-.47-1.76l.53.96v4.26h-1.15ZM238.54,274.34c.43,0,.81-.1,1.13-.31.32-.2.57-.49.74-.85.18-.36.26-.78.26-1.25s-.09-.9-.26-1.26c-.18-.36-.42-.64-.74-.85-.32-.2-.7-.31-1.13-.31-.38,0-.74.09-1.07.26s-.59.42-.79.74c-.2.32-.29.71-.29,1.17v.55c0,.44.1.82.3,1.13s.46.55.79.72.68.25,1.06.25Z"/><path class="cls-2" d="M242.62,269.58v-.86h4.42v.86h-4.42ZM246.05,275.2c-.48,0-.89-.07-1.24-.2-.35-.14-.62-.37-.8-.7-.19-.33-.28-.78-.28-1.35v-6.17h1.1v6.31c0,.34.09.61.28.8.19.19.45.28.8.28h1.13v1.03h-.98Z"/><path class="cls-2" d="M248,269.63v-.91h2.14v.91h-2.14ZM249.3,267.69c-.26,0-.45-.07-.57-.2-.12-.14-.19-.31-.19-.52s.06-.38.19-.52c.12-.14.31-.2.57-.2s.45.07.57.2c.12.14.19.31.19.52s-.06.38-.19.52c-.12.14-.31.2-.57.2ZM248.98,275.13v-6.41h1.15v6.41h-1.15Z"/><path class="cls-2" d="M252.36,275.13v-6.41h.91v2.75h-.14c0-.62.08-1.15.25-1.59s.41-.77.74-1c.33-.23.74-.35,1.25-.35h.05c.5,0,.92.12,1.25.35s.58.57.74,1,.24.97.24,1.59h-.34c0-.62.08-1.15.25-1.59s.42-.77.75-1,.75-.35,1.25-.35h.05c.5,0,.92.12,1.26.35s.59.57.75,1c.16.44.25.97.25,1.59v3.66h-1.15v-3.91c0-.52-.13-.92-.38-1.21-.26-.28-.61-.43-1.07-.43s-.85.15-1.14.45c-.29.3-.43.72-.43,1.25v3.84h-1.15v-3.91c0-.52-.13-.92-.38-1.21-.26-.28-.61-.43-1.07-.43s-.85.15-1.14.45c-.29.3-.43.72-.43,1.25v3.84h-1.15Z"/><path class="cls-2" d="M263.31,269.63v-.91h2.14v.91h-2.14ZM264.62,267.69c-.26,0-.45-.07-.57-.2-.12-.14-.19-.31-.19-.52s.06-.38.19-.52c.12-.14.31-.2.57-.2s.45.07.57.2c.12.14.19.31.19.52s-.06.38-.19.52c-.12.14-.31.2-.57.2ZM264.29,275.13v-6.41h1.15v6.41h-1.15Z"/><path class="cls-2" d="M267.27,275.13v-1.28l3.49-4.19v.19l-.19-.29.16.07h-3.5v-.91h4.56v1.28l-3.49,4.19v-.17l.22.3-.17-.11h3.64v.91h-4.7Z"/><path class="cls-2" d="M276.2,275.34c-.56,0-1.04-.1-1.45-.29-.41-.19-.74-.45-1-.76s-.45-.67-.57-1.06-.19-.79-.19-1.2v-.22c0-.42.06-.82.19-1.21s.31-.75.57-1.06.58-.57.98-.76c.4-.19.86-.28,1.4-.28.7,0,1.27.15,1.72.45.45.3.79.69,1.01,1.16.22.47.33.98.33,1.51v.52h-5.69v-.86h4.85l-.26.47c0-.46-.07-.85-.22-1.18-.14-.33-.36-.59-.65-.77s-.65-.28-1.09-.28-.83.1-1.13.31c-.3.21-.52.49-.67.85-.15.36-.22.78-.22,1.25s.07.87.22,1.23c.15.36.38.65.69.86.31.21.71.32,1.19.32s.91-.11,1.23-.34c.32-.22.51-.48.57-.78h1.08c-.09.44-.26.82-.53,1.14-.26.32-.6.56-1,.73-.4.17-.85.25-1.36.25Z"/><path class="cls-2" d="M285.33,275.3c-.48,0-.89-.08-1.24-.25-.35-.16-.62-.4-.8-.71-.19-.31-.28-.69-.28-1.13s.1-.84.31-1.14c.2-.3.5-.53.89-.69s.86-.23,1.42-.23h1.74v.86h-1.79c-.46,0-.82.11-1.07.34-.25.22-.37.51-.37.86s.12.64.37.85c.25.22.6.32,1.07.32.27,0,.53-.05.78-.15.25-.1.45-.27.62-.5s.25-.56.27-.98l.31.46c-.04.46-.15.84-.33,1.15-.18.31-.43.54-.74.7-.32.16-.7.24-1.15.24ZM287.43,275.13v-1.92h-.19v-2.22c0-.44-.11-.77-.34-1-.23-.22-.56-.34-1-.34-.25,0-.5,0-.77.01-.26,0-.52.02-.76.02-.24,0-.45.02-.62.04v-1.01c.18-.02.36-.03.56-.04.2-.01.4-.02.61-.02.21,0,.41,0,.6,0,.66,0,1.19.08,1.61.23.42.16.72.41.92.76s.3.83.3,1.43v4.06h-.91Z"/><path class="cls-2" d="M290.45,275.13v-6.41h.91v2.75h-.14c0-.63.09-1.17.26-1.6.17-.44.43-.77.79-1,.35-.23.8-.34,1.33-.34h.05c.81,0,1.41.25,1.79.76.39.5.58,1.23.58,2.18v3.66h-1.15v-3.9c0-.5-.14-.89-.42-1.19-.28-.3-.66-.45-1.15-.45s-.91.16-1.22.47c-.31.31-.47.73-.47,1.25v3.83h-1.15Z"/><path class="cls-2" d="M300.81,275.34c-.46,0-.88-.08-1.26-.25-.38-.17-.72-.4-1-.71-.28-.3-.5-.66-.66-1.06-.16-.4-.23-.83-.23-1.3v-.22c0-.46.08-.88.23-1.28.15-.4.37-.75.64-1.06.28-.3.6-.54.98-.71.38-.17.8-.26,1.27-.26.49,0,.93.1,1.33.31.4.2.73.52.98.95.26.43.4.99.43,1.68l-.48-.77v-4.31h1.15v8.76h-.91v-2.84h.34c-.03.73-.18,1.32-.46,1.77-.27.45-.61.78-1.03.98-.41.2-.85.31-1.33.31ZM300.96,274.34c.39,0,.75-.09,1.07-.26.32-.18.58-.43.77-.76.19-.33.29-.72.29-1.17v-.55c0-.44-.1-.81-.29-1.12-.2-.31-.46-.54-.78-.71-.32-.16-.68-.25-1.06-.25-.42,0-.8.1-1.12.3s-.58.48-.76.84-.27.78-.27,1.27.09.91.28,1.28c.18.36.44.64.77.84.33.2.7.29,1.12.29Z"/><path class="cls-2" d="M311.88,275.34c-.55,0-1.03-.1-1.43-.29-.4-.19-.74-.45-1-.77-.26-.32-.46-.68-.59-1.07s-.2-.78-.2-1.18v-.22c0-.41.07-.81.2-1.2.13-.39.33-.75.6-1.06.27-.32.6-.57,1-.76s.87-.29,1.4-.29,1.02.1,1.45.3c.43.2.77.48,1.03.85.26.36.41.79.44,1.29h-1.1c-.06-.4-.24-.73-.55-1-.31-.27-.73-.4-1.26-.4-.46,0-.84.1-1.14.31-.3.21-.53.49-.68.85-.15.36-.23.77-.23,1.22s.08.84.23,1.21c.15.36.38.65.69.86.31.21.69.32,1.16.32.36,0,.67-.06.94-.19s.48-.3.64-.52c.16-.22.26-.46.29-.73h1.1c-.02.5-.17.94-.44,1.31-.27.37-.62.65-1.06.86-.44.2-.93.31-1.47.31Z"/><path class="cls-2" d="M319.36,275.34c-.56,0-1.05-.1-1.48-.29-.42-.19-.78-.45-1.07-.76s-.51-.67-.66-1.06c-.15-.39-.22-.79-.22-1.2v-.22c0-.41.08-.81.23-1.21.15-.4.38-.75.67-1.07.3-.32.66-.57,1.08-.76.42-.19.91-.28,1.45-.28s1.03.09,1.45.28.78.44,1.08.76.52.67.67,1.07c.15.4.23.8.23,1.21v.22c0,.41-.07.81-.22,1.2-.15.39-.37.75-.66,1.06-.29.32-.65.57-1.07.76-.42.19-.92.29-1.48.29ZM319.36,274.31c.48,0,.89-.11,1.23-.32s.6-.5.78-.86c.18-.36.27-.76.27-1.21s-.09-.86-.28-1.22c-.18-.36-.45-.64-.79-.85-.34-.21-.75-.31-1.22-.31s-.87.1-1.21.31-.61.49-.79.85c-.18.36-.28.77-.28,1.22s.09.85.27,1.21c.18.36.44.65.78.86s.75.32,1.23.32Z"/><path class="cls-2" d="M324.52,275.13v-6.41h.91v2.75h-.14c0-.63.09-1.17.26-1.6.17-.44.43-.77.79-1,.35-.23.8-.34,1.33-.34h.05c.81,0,1.41.25,1.79.76.39.5.58,1.23.58,2.18v3.66h-1.15v-3.9c0-.5-.14-.89-.42-1.19-.28-.3-.66-.45-1.15-.45s-.91.16-1.22.47c-.31.31-.47.73-.47,1.25v3.83h-1.15Z"/><path class="cls-2" d="M331.26,269.58v-.86h4.42v.86h-4.42ZM334.69,275.2c-.48,0-.89-.07-1.24-.2-.35-.14-.62-.37-.8-.7-.19-.33-.28-.78-.28-1.35v-6.17h1.1v6.31c0,.34.09.61.28.8.19.19.45.28.8.28h1.13v1.03h-.98Z"/><path class="cls-2" d="M336.64,269.63v-.91h2.14v.91h-2.14ZM337.95,267.69c-.26,0-.45-.07-.57-.2-.12-.14-.19-.31-.19-.52s.06-.38.19-.52c.12-.14.31-.2.57-.2s.45.07.57.2c.12.14.19.31.19.52s-.06.38-.19.52c-.12.14-.31.2-.57.2ZM337.62,275.13v-6.41h1.15v6.41h-1.15Z"/><path class="cls-2" d="M341.01,275.13v-6.41h.91v2.75h-.14c0-.63.09-1.17.26-1.6.17-.44.43-.77.79-1,.35-.23.8-.34,1.33-.34h.05c.81,0,1.41.25,1.79.76.39.5.58,1.23.58,2.18v3.66h-1.15v-3.9c0-.5-.14-.89-.42-1.19-.28-.3-.66-.45-1.15-.45s-.91.16-1.22.47c-.31.31-.47.73-.47,1.25v3.83h-1.15Z"/><path class="cls-2" d="M350.91,275.32c-.76,0-1.34-.25-1.75-.74s-.61-1.21-.61-2.15v-3.72h1.15v3.95c0,.5.14.9.41,1.18.27.28.64.43,1.1.43s.87-.15,1.18-.46c.3-.31.46-.73.46-1.27v-3.83h1.15v6.42h-.91v-2.75h.14c0,.63-.08,1.17-.25,1.6s-.42.77-.75,1-.75.34-1.27.34h-.05Z"/><path class="cls-2" d="M359.17,275.34c-.56,0-1.05-.1-1.48-.29-.42-.19-.78-.45-1.07-.76s-.51-.67-.66-1.06c-.15-.39-.22-.79-.22-1.2v-.22c0-.41.08-.81.23-1.21.15-.4.38-.75.67-1.07.3-.32.66-.57,1.08-.76.42-.19.91-.28,1.45-.28s1.03.09,1.45.28.78.44,1.08.76.52.67.67,1.07c.15.4.23.8.23,1.21v.22c0,.41-.07.81-.22,1.2-.15.39-.37.75-.66,1.06-.29.32-.65.57-1.07.76-.42.19-.92.29-1.48.29ZM359.17,274.31c.48,0,.89-.11,1.23-.32s.6-.5.78-.86c.18-.36.27-.76.27-1.21s-.09-.86-.28-1.22c-.18-.36-.45-.64-.79-.85-.34-.21-.75-.31-1.22-.31s-.87.1-1.21.31-.61.49-.79.85c-.18.36-.28.77-.28,1.22s.09.85.27,1.21c.18.36.44.65.78.86s.75.32,1.23.32Z"/><path class="cls-2" d="M366.55,275.32c-.76,0-1.34-.25-1.75-.74s-.61-1.21-.61-2.15v-3.72h1.15v3.95c0,.5.14.9.41,1.18.27.28.64.43,1.1.43s.87-.15,1.18-.46c.3-.31.46-.73.46-1.27v-3.83h1.15v6.42h-.91v-2.75h.14c0,.63-.08,1.17-.25,1.6s-.42.77-.75,1-.75.34-1.27.34h-.05Z"/><path class="cls-2" d="M373.97,275.32c-.84,0-1.49-.18-1.95-.54-.46-.36-.7-.85-.71-1.48h1.08c.02.25.14.48.38.7.24.22.64.33,1.21.33.51,0,.9-.1,1.18-.31.27-.2.41-.45.41-.75,0-.26-.1-.47-.3-.62-.2-.15-.52-.25-.97-.29l-.7-.07c-.61-.06-1.1-.25-1.49-.55-.38-.3-.58-.72-.58-1.27,0-.41.1-.76.31-1.05s.5-.52.86-.67c.37-.16.79-.23,1.27-.23.72,0,1.3.16,1.75.48.45.32.68.8.7,1.43h-1.08c0-.26-.13-.47-.35-.65-.23-.18-.57-.27-1.01-.27s-.79.09-1.02.28c-.23.18-.35.42-.35.7,0,.24.08.43.25.58s.43.24.81.28l.7.07c.69.07,1.24.26,1.66.57s.62.74.62,1.3c0,.4-.11.75-.34,1.06-.23.31-.54.55-.94.72s-.86.26-1.38.26Z"/><path class="cls-2" d="M377.49,267.28v-.91h2.04v.91h-2.04ZM378.37,275.13v-8.76h1.15v8.76h-1.15Z"/><path class="cls-2" d="M383.14,274.98l-2.29-6.26h1.18l2.2,6.26h-1.08ZM381.3,277.62v-1.03h.92c.27,0,.5-.03.69-.1.19-.07.34-.18.47-.34.12-.16.23-.37.31-.64l2.02-6.79h1.13l-2.14,7.09c-.13.42-.31.77-.54,1.04-.23.27-.51.46-.85.59s-.72.19-1.16.19h-.85ZM383.26,274.98v-.96h1.39v.96h-1.39Z"/><path class="cls-2" d="M390.36,269.63v-.91h2.14v.91h-2.14ZM391.67,267.69c-.26,0-.45-.07-.57-.2-.12-.14-.19-.31-.19-.52s.06-.38.19-.52c.12-.14.31-.2.57-.2s.45.07.57.2c.12.14.19.31.19.52s-.06.38-.19.52c-.12.14-.31.2-.57.2ZM391.35,275.13v-6.41h1.15v6.41h-1.15Z"/><path class="cls-2" d="M394.73,275.13v-6.41h.91v2.75h-.14c0-.62.08-1.15.25-1.59s.41-.77.74-1c.33-.23.74-.35,1.25-.35h.05c.5,0,.92.12,1.25.35s.58.57.74,1,.24.97.24,1.59h-.34c0-.62.08-1.15.25-1.59s.42-.77.75-1,.75-.35,1.25-.35h.05c.5,0,.92.12,1.26.35s.59.57.75,1c.16.44.25.97.25,1.59v3.66h-1.15v-3.91c0-.52-.13-.92-.38-1.21-.26-.28-.61-.43-1.07-.43s-.85.15-1.14.45c-.29.3-.43.72-.43,1.25v3.84h-1.15v-3.91c0-.52-.13-.92-.38-1.21-.26-.28-.61-.43-1.07-.43s-.85.15-1.14.45c-.29.3-.43.72-.43,1.25v3.84h-1.15Z"/><path class="cls-2" d="M406.35,277.53v-8.81h.91v2.77l-.22-.02c.04-.69.19-1.25.44-1.69.25-.44.58-.76.99-.97.41-.21.85-.31,1.33-.31s.89.09,1.27.26.71.42.98.72c.27.3.48.66.62,1.06.14.4.22.82.22,1.27v.22c0,.45-.08.87-.23,1.27-.15.4-.37.75-.64,1.06-.28.3-.6.54-.98.72s-.8.26-1.25.26-.89-.1-1.31-.3-.76-.52-1.03-.97c-.27-.45-.43-1.04-.47-1.76l.53.96v4.26h-1.15ZM409.6,274.34c.43,0,.81-.1,1.13-.31.32-.2.57-.49.74-.85.18-.36.26-.78.26-1.25s-.09-.9-.26-1.26c-.18-.36-.42-.64-.74-.85-.32-.2-.7-.31-1.13-.31-.38,0-.74.09-1.07.26s-.59.42-.79.74c-.2.32-.29.71-.29,1.17v.55c0,.44.1.82.3,1.13s.46.55.79.72.68.25,1.06.25Z"/><path class="cls-2" d="M414.61,275.13v-6.41h.91v2.64h-.05c0-.94.21-1.62.62-2.06.41-.44,1.03-.65,1.85-.65h.22v1.03h-.41c-.64,0-1.13.17-1.48.51-.34.34-.52.83-.52,1.47v3.47h-1.15Z"/><path class="cls-2" d="M422.41,275.34c-.56,0-1.05-.1-1.48-.29-.42-.19-.78-.45-1.07-.76s-.51-.67-.66-1.06c-.15-.39-.22-.79-.22-1.2v-.22c0-.41.08-.81.23-1.21.15-.4.38-.75.67-1.07.3-.32.66-.57,1.08-.76.42-.19.91-.28,1.45-.28s1.03.09,1.45.28.78.44,1.08.76.52.67.67,1.07c.15.4.23.8.23,1.21v.22c0,.41-.07.81-.22,1.2-.15.39-.37.75-.66,1.06-.29.32-.65.57-1.07.76-.42.19-.92.29-1.48.29ZM422.41,274.31c.48,0,.89-.11,1.23-.32s.6-.5.78-.86c.18-.36.27-.76.27-1.21s-.09-.86-.28-1.22c-.18-.36-.45-.64-.79-.85-.34-.21-.75-.31-1.22-.31s-.87.1-1.21.31-.61.49-.79.85c-.18.36-.28.77-.28,1.22s.09.85.27,1.21c.18.36.44.65.78.86s.75.32,1.23.32Z"/><path class="cls-2" d="M428.82,275.13l-2.18-6.41h1.2l2.14,6.41h-1.15ZM429.11,275.13v-.91h1.39v.91h-1.39ZM429.66,275.13l1.86-6.41h1.13l-1.9,6.41h-1.09Z"/><path class="cls-2" d="M436.77,275.34c-.56,0-1.04-.1-1.45-.29-.41-.19-.74-.45-1-.76s-.45-.67-.57-1.06-.19-.79-.19-1.2v-.22c0-.42.06-.82.19-1.21s.31-.75.57-1.06.58-.57.98-.76c.4-.19.86-.28,1.4-.28.7,0,1.27.15,1.72.45.45.3.79.69,1.01,1.16.22.47.33.98.33,1.51v.52h-5.69v-.86h4.85l-.26.47c0-.46-.07-.85-.22-1.18-.14-.33-.36-.59-.65-.77s-.65-.28-1.09-.28-.83.1-1.13.31c-.3.21-.52.49-.67.85-.15.36-.22.78-.22,1.25s.07.87.22,1.23c.15.36.38.65.69.86.31.21.71.32,1.19.32s.91-.11,1.23-.34c.32-.22.51-.48.57-.78h1.08c-.09.44-.26.82-.53,1.14-.26.32-.6.56-1,.73-.4.17-.85.25-1.36.25Z"/><path class="cls-2" d="M447.07,275.34c-.56,0-1.05-.1-1.48-.29-.42-.19-.78-.45-1.07-.76s-.51-.67-.66-1.06c-.15-.39-.22-.79-.22-1.2v-.22c0-.41.08-.81.23-1.21.15-.4.38-.75.67-1.07.3-.32.66-.57,1.08-.76.42-.19.91-.28,1.45-.28s1.03.09,1.45.28.78.44,1.08.76.52.67.67,1.07c.15.4.23.8.23,1.21v.22c0,.41-.07.81-.22,1.2-.15.39-.37.75-.66,1.06-.29.32-.65.57-1.07.76-.42.19-.92.29-1.48.29ZM447.07,274.31c.48,0,.89-.11,1.23-.32s.6-.5.78-.86c.18-.36.27-.76.27-1.21s-.09-.86-.28-1.22c-.18-.36-.45-.64-.79-.85-.34-.21-.75-.31-1.22-.31s-.87.1-1.21.31-.61.49-.79.85c-.18.36-.28.77-.28,1.22s.09.85.27,1.21c.18.36.44.65.78.86s.75.32,1.23.32Z"/><path class="cls-2" d="M454.45,275.32c-.76,0-1.34-.25-1.75-.74s-.61-1.21-.61-2.15v-3.72h1.15v3.95c0,.5.14.9.41,1.18.27.28.64.43,1.1.43s.87-.15,1.18-.46c.3-.31.46-.73.46-1.27v-3.83h1.15v6.42h-.91v-2.75h.14c0,.63-.08,1.17-.25,1.6s-.42.77-.75,1-.75.34-1.27.34h-.05Z"/><path class="cls-2" d="M459.77,275.13v-6.41h.91v2.64h-.05c0-.94.21-1.62.62-2.06.41-.44,1.03-.65,1.85-.65h.22v1.03h-.41c-.64,0-1.13.17-1.48.51-.34.34-.52.83-.52,1.47v3.47h-1.15Z"/><path class="cls-2" d="M468.45,275.13l-1.81-6.41h1.1l1.76,6.41h-1.06ZM468.71,275.13v-.91h1.33v.91h-1.33ZM469.3,275.13l1.3-6.19h1.56l1.51,6.19h-.98l-1.51-6.17h.38l-1.31,6.17h-.95ZM472.92,275.13v-.91h1.33v.91h-1.33ZM473.46,275.13l1.54-6.41h1.04l-1.57,6.41h-1.01Z"/><path class="cls-2" d="M480.21,275.34c-.56,0-1.04-.1-1.45-.29-.41-.19-.74-.45-1-.76s-.45-.67-.57-1.06-.19-.79-.19-1.2v-.22c0-.42.06-.82.19-1.21s.31-.75.57-1.06.58-.57.98-.76c.4-.19.86-.28,1.4-.28.7,0,1.27.15,1.72.45.45.3.79.69,1.01,1.16.22.47.33.98.33,1.51v.52h-5.69v-.86h4.85l-.26.47c0-.46-.07-.85-.22-1.18-.14-.33-.36-.59-.65-.77s-.65-.28-1.09-.28-.83.1-1.13.31c-.3.21-.52.49-.67.85-.15.36-.22.78-.22,1.25s.07.87.22,1.23c.15.36.38.65.69.86.31.21.71.32,1.19.32s.91-.11,1.23-.34c.32-.22.51-.48.57-.78h1.08c-.09.44-.26.82-.53,1.14-.26.32-.6.56-1,.73-.4.17-.85.25-1.36.25Z"/><path class="cls-2" d="M488.21,275.34c-.53,0-1-.12-1.41-.35s-.74-.57-.98-1.01c-.24-.44-.37-.98-.4-1.6h.31v2.75h-.91v-8.76h1.15v4.26l-.41.88c.03-.7.17-1.26.42-1.7.25-.44.57-.77.98-.98.4-.21.85-.32,1.34-.32.46,0,.87.09,1.25.26.38.17.7.41.97.71.27.3.48.65.62,1.04.14.4.22.82.22,1.28v.22c0,.46-.07.88-.22,1.28s-.36.75-.64,1.06c-.28.31-.61.55-1,.73-.39.18-.82.26-1.29.26ZM488.08,274.34c.43,0,.81-.1,1.13-.31.32-.21.57-.49.74-.86.18-.36.26-.79.26-1.27s-.09-.9-.27-1.26c-.18-.36-.43-.64-.75-.83-.32-.2-.69-.29-1.12-.29-.38,0-.74.09-1.07.26s-.59.42-.79.74c-.2.32-.29.71-.29,1.17v.55c0,.44.1.82.3,1.13s.46.55.79.72.68.25,1.06.25Z"/><path class="cls-2" d="M495.19,275.32c-.84,0-1.49-.18-1.95-.54-.46-.36-.7-.85-.71-1.48h1.08c.02.25.14.48.38.7.24.22.64.33,1.21.33.51,0,.9-.1,1.18-.31.27-.2.41-.45.41-.75,0-.26-.1-.47-.3-.62-.2-.15-.52-.25-.97-.29l-.7-.07c-.61-.06-1.1-.25-1.49-.55-.38-.3-.58-.72-.58-1.27,0-.41.1-.76.31-1.05s.5-.52.86-.67c.37-.16.79-.23,1.27-.23.72,0,1.3.16,1.75.48.45.32.68.8.7,1.43h-1.08c0-.26-.13-.47-.35-.65-.23-.18-.57-.27-1.01-.27s-.79.09-1.02.28c-.23.18-.35.42-.35.7,0,.24.08.43.25.58s.43.24.81.28l.7.07c.69.07,1.24.26,1.66.57s.62.74.62,1.3c0,.4-.11.75-.34,1.06-.23.31-.54.55-.94.72s-.86.26-1.38.26Z"/><path class="cls-2" d="M498.85,269.63v-.91h2.14v.91h-2.14ZM500.16,267.69c-.26,0-.45-.07-.57-.2-.12-.14-.19-.31-.19-.52s.06-.38.19-.52c.12-.14.31-.2.57-.2s.45.07.57.2c.12.14.19.31.19.52s-.06.38-.19.52c-.12.14-.31.2-.57.2ZM499.84,275.13v-6.41h1.15v6.41h-1.15Z"/><path class="cls-2" d="M502.29,269.58v-.86h4.42v.86h-4.42ZM505.72,275.2c-.48,0-.89-.07-1.24-.2-.35-.14-.62-.37-.8-.7-.19-.33-.28-.78-.28-1.35v-6.17h1.1v6.31c0,.34.09.61.28.8.19.19.45.28.8.28h1.13v1.03h-.98Z"/><path class="cls-2" d="M511.01,275.34c-.56,0-1.04-.1-1.45-.29-.41-.19-.74-.45-1-.76s-.45-.67-.57-1.06-.19-.79-.19-1.2v-.22c0-.42.06-.82.19-1.21s.31-.75.57-1.06.58-.57.98-.76c.4-.19.86-.28,1.4-.28.7,0,1.27.15,1.72.45.45.3.79.69,1.01,1.16.22.47.33.98.33,1.51v.52h-5.69v-.86h4.85l-.26.47c0-.46-.07-.85-.22-1.18-.14-.33-.36-.59-.65-.77s-.65-.28-1.09-.28-.83.1-1.13.31c-.3.21-.52.49-.67.85-.15.36-.22.78-.22,1.25s.07.87.22,1.23c.15.36.38.65.69.86.31.21.71.32,1.19.32s.91-.11,1.23-.34c.32-.22.51-.48.57-.78h1.08c-.09.44-.26.82-.53,1.14-.26.32-.6.56-1,.73-.4.17-.85.25-1.36.25Z"/><path class="cls-2" d="M517.65,269.65v-.86h4.02v.86h-4.02ZM518.53,275.13v-6.73c0-.71.19-1.24.56-1.57.38-.34.93-.5,1.66-.5h.79v.96h-.98c-.3,0-.52.08-.68.25s-.24.39-.24.68v6.92h-1.1Z"/><path class="cls-2" d="M525.82,275.34c-.56,0-1.05-.1-1.48-.29-.42-.19-.78-.45-1.07-.76s-.51-.67-.66-1.06c-.15-.39-.22-.79-.22-1.2v-.22c0-.41.08-.81.23-1.21.15-.4.38-.75.67-1.07.3-.32.66-.57,1.08-.76.42-.19.91-.28,1.45-.28s1.03.09,1.45.28.78.44,1.08.76.52.67.67,1.07c.15.4.23.8.23,1.21v.22c0,.41-.07.81-.22,1.2-.15.39-.37.75-.66,1.06-.29.32-.65.57-1.07.76-.42.19-.92.29-1.48.29ZM525.82,274.31c.48,0,.89-.11,1.23-.32s.6-.5.78-.86c.18-.36.27-.76.27-1.21s-.09-.86-.28-1.22c-.18-.36-.45-.64-.79-.85-.34-.21-.75-.31-1.22-.31s-.87.1-1.21.31-.61.49-.79.85c-.18.36-.28.77-.28,1.22s.09.85.27,1.21c.18.36.44.65.78.86s.75.32,1.23.32Z"/><path class="cls-2" d="M530.98,275.13v-6.41h.91v2.64h-.05c0-.94.21-1.62.62-2.06.41-.44,1.03-.65,1.85-.65h.22v1.03h-.41c-.64,0-1.13.17-1.48.51-.34.34-.52.83-.52,1.47v3.47h-1.15Z"/><path class="cls-2" d="M540.04,274.98l-2.29-6.26h1.18l2.2,6.26h-1.08ZM538.2,277.62v-1.03h.92c.27,0,.5-.03.69-.1.19-.07.34-.18.47-.34.12-.16.23-.37.31-.64l2.02-6.79h1.13l-2.14,7.09c-.13.42-.31.77-.54,1.04-.23.27-.51.46-.85.59s-.72.19-1.16.19h-.85ZM540.16,274.98v-.96h1.39v.96h-1.39Z"/><path class="cls-2" d="M548.03,275.34c-.56,0-1.05-.1-1.48-.29-.42-.19-.78-.45-1.07-.76s-.51-.67-.66-1.06c-.15-.39-.22-.79-.22-1.2v-.22c0-.41.08-.81.23-1.21.15-.4.38-.75.67-1.07.3-.32.66-.57,1.08-.76.42-.19.91-.28,1.45-.28s1.03.09,1.45.28.78.44,1.08.76.52.67.67,1.07c.15.4.23.8.23,1.21v.22c0,.41-.07.81-.22,1.2-.15.39-.37.75-.66,1.06-.29.32-.65.57-1.07.76-.42.19-.92.29-1.48.29ZM548.03,274.31c.48,0,.89-.11,1.23-.32s.6-.5.78-.86c.18-.36.27-.76.27-1.21s-.09-.86-.28-1.22c-.18-.36-.45-.64-.79-.85-.34-.21-.75-.31-1.22-.31s-.87.1-1.21.31-.61.49-.79.85c-.18.36-.28.77-.28,1.22s.09.85.27,1.21c.18.36.44.65.78.86s.75.32,1.23.32Z"/><path class="cls-2" d="M555.41,275.32c-.76,0-1.34-.25-1.75-.74s-.61-1.21-.61-2.15v-3.72h1.15v3.95c0,.5.14.9.41,1.18.27.28.64.43,1.1.43s.87-.15,1.18-.46c.3-.31.46-.73.46-1.27v-3.83h1.15v6.42h-.91v-2.75h.14c0,.63-.08,1.17-.25,1.6s-.42.77-.75,1-.75.34-1.27.34h-.05Z"/><path class="cls-2" d="M560.86,277.01l-.92-.35,1.12-3.1.95.36-1.14,3.08Z"/><path class="cls-2" d="M567.62,275.13l-1.81-6.41h1.1l1.76,6.41h-1.06ZM567.89,275.13v-.91h1.33v.91h-1.33ZM568.48,275.13l1.3-6.19h1.56l1.51,6.19h-.98l-1.51-6.17h.38l-1.31,6.17h-.95ZM572.1,275.13v-.91h1.33v.91h-1.33ZM572.64,275.13l1.54-6.41h1.04l-1.57,6.41h-1.01Z"/><path class="cls-2" d="M579.38,275.34c-.56,0-1.04-.1-1.45-.29-.41-.19-.74-.45-1-.76s-.45-.67-.57-1.06-.19-.79-.19-1.2v-.22c0-.42.06-.82.19-1.21s.31-.75.57-1.06.58-.57.98-.76c.4-.19.86-.28,1.4-.28.7,0,1.27.15,1.72.45.45.3.79.69,1.01,1.16.22.47.33.98.33,1.51v.52h-5.69v-.86h4.85l-.26.47c0-.46-.07-.85-.22-1.18-.14-.33-.36-.59-.65-.77s-.65-.28-1.09-.28-.83.1-1.13.31c-.3.21-.52.49-.67.85-.15.36-.22.78-.22,1.25s.07.87.22,1.23c.15.36.38.65.69.86.31.21.71.32,1.19.32s.91-.11,1.23-.34c.32-.22.51-.48.57-.78h1.08c-.09.44-.26.82-.53,1.14-.26.32-.6.56-1,.73-.4.17-.85.25-1.36.25Z"/><path class="cls-2" d="M588.96,275.32c-.76,0-1.34-.25-1.75-.74s-.61-1.21-.61-2.15v-3.72h1.15v3.95c0,.5.14.9.41,1.18.27.28.64.43,1.1.43s.87-.15,1.18-.46c.3-.31.46-.73.46-1.27v-3.83h1.15v6.42h-.91v-2.75h.14c0,.63-.08,1.17-.25,1.6s-.42.77-.75,1-.75.34-1.27.34h-.05Z"/><path class="cls-2" d="M596.38,275.32c-.84,0-1.49-.18-1.95-.54-.46-.36-.7-.85-.71-1.48h1.08c.02.25.14.48.38.7.24.22.64.33,1.21.33.51,0,.9-.1,1.18-.31.27-.2.41-.45.41-.75,0-.26-.1-.47-.3-.62-.2-.15-.52-.25-.97-.29l-.7-.07c-.61-.06-1.1-.25-1.49-.55-.38-.3-.58-.72-.58-1.27,0-.41.1-.76.31-1.05s.5-.52.86-.67c.37-.16.79-.23,1.27-.23.72,0,1.3.16,1.75.48.45.32.68.8.7,1.43h-1.08c0-.26-.13-.47-.35-.65-.23-.18-.57-.27-1.01-.27s-.79.09-1.02.28c-.23.18-.35.42-.35.7,0,.24.08.43.25.58s.43.24.81.28l.7.07c.69.07,1.24.26,1.66.57s.62.74.62,1.3c0,.4-.11.75-.34,1.06-.23.31-.54.55-.94.72s-.86.26-1.38.26Z"/><path class="cls-2" d="M603.43,275.34c-.56,0-1.04-.1-1.45-.29-.41-.19-.74-.45-1-.76s-.45-.67-.57-1.06-.19-.79-.19-1.2v-.22c0-.42.06-.82.19-1.21s.31-.75.57-1.06.58-.57.98-.76c.4-.19.86-.28,1.4-.28.7,0,1.27.15,1.72.45.45.3.79.69,1.01,1.16.22.47.33.98.33,1.51v.52h-5.69v-.86h4.85l-.26.47c0-.46-.07-.85-.22-1.18-.14-.33-.36-.59-.65-.77s-.65-.28-1.09-.28-.83.1-1.13.31c-.3.21-.52.49-.67.85-.15.36-.22.78-.22,1.25s.07.87.22,1.23c.15.36.38.65.69.86.31.21.71.32,1.19.32s.91-.11,1.23-.34c.32-.22.51-.48.57-.78h1.08c-.09.44-.26.82-.53,1.14-.26.32-.6.56-1,.73-.4.17-.85.25-1.36.25Z"/><path class="cls-2" d="M212.72,289.74c-.55,0-1.03-.1-1.43-.29-.4-.19-.74-.45-1-.77-.26-.32-.46-.68-.59-1.07s-.2-.78-.2-1.18v-.22c0-.41.07-.81.2-1.2.13-.39.33-.75.6-1.06.27-.32.6-.57,1-.76s.87-.29,1.4-.29,1.02.1,1.45.3c.43.2.77.48,1.03.85.26.36.41.79.44,1.29h-1.11c-.05-.4-.24-.73-.55-1-.31-.27-.73-.4-1.26-.4-.46,0-.84.1-1.14.31s-.53.49-.68.85c-.15.36-.23.77-.23,1.22s.08.84.23,1.21.38.65.69.86.69.32,1.16.32c.36,0,.67-.06.94-.19s.48-.3.64-.52c.16-.22.26-.46.29-.73h1.11c-.03.5-.17.94-.44,1.31-.27.37-.62.65-1.05.86-.44.2-.93.31-1.47.31Z"/><path class="cls-2" d="M220.19,289.74c-.56,0-1.05-.1-1.48-.29-.42-.19-.78-.45-1.07-.76s-.51-.67-.66-1.06c-.15-.39-.22-.79-.22-1.2v-.22c0-.41.08-.81.23-1.21.15-.4.38-.75.67-1.07.3-.32.66-.57,1.08-.76.42-.19.91-.28,1.45-.28s1.03.09,1.45.28c.42.19.78.44,1.08.76s.52.67.67,1.07c.15.4.23.8.23,1.21v.22c0,.41-.07.81-.22,1.2-.15.39-.37.75-.66,1.06-.29.32-.65.57-1.07.76-.42.19-.92.29-1.48.29ZM220.19,288.71c.48,0,.89-.11,1.23-.32s.6-.5.78-.86c.18-.36.27-.76.27-1.21s-.09-.86-.28-1.22c-.18-.36-.45-.64-.79-.85-.34-.21-.75-.31-1.22-.31s-.87.1-1.21.31-.61.49-.79.85c-.18.36-.28.77-.28,1.22s.09.85.27,1.21c.18.36.44.65.78.86s.75.32,1.23.32Z"/><path class="cls-2" d="M228.3,289.74c-.56,0-1.05-.1-1.48-.29-.42-.19-.78-.45-1.07-.76s-.51-.67-.66-1.06c-.15-.39-.22-.79-.22-1.2v-.22c0-.41.08-.81.23-1.21.15-.4.38-.75.67-1.07.3-.32.66-.57,1.08-.76.42-.19.91-.28,1.45-.28s1.03.09,1.45.28c.42.19.78.44,1.08.76s.52.67.67,1.07c.15.4.23.8.23,1.21v.22c0,.41-.07.81-.22,1.2-.15.39-.37.75-.66,1.06-.29.32-.65.57-1.07.76-.42.19-.92.29-1.48.29ZM228.3,288.71c.48,0,.89-.11,1.23-.32s.6-.5.78-.86c.18-.36.27-.76.27-1.21s-.09-.86-.28-1.22c-.18-.36-.45-.64-.79-.85-.34-.21-.75-.31-1.22-.31s-.87.1-1.21.31-.61.49-.79.85c-.18.36-.28.77-.28,1.22s.09.85.27,1.21c.18.36.44.65.78.86s.75.32,1.23.32Z"/><path class="cls-2" d="M233.46,289.53v-8.76h1.15v8.76h-1.15ZM237.88,289.53l-2.41-2.99h-1.06l2.94-3.42h1.21l-2.66,3.08.08-.61,3.23,3.94h-1.33Z"/><path class="cls-2" d="M239.67,284.03v-.91h2.14v.91h-2.14ZM240.98,282.09c-.26,0-.45-.07-.57-.2-.12-.14-.19-.31-.19-.52s.06-.38.19-.52.31-.2.57-.2.45.07.57.2.19.31.19.52-.06.38-.19.52c-.12.14-.31.2-.57.2ZM240.65,289.53v-6.41h1.15v6.41h-1.15Z"/><path class="cls-2" d="M246.76,289.74c-.56,0-1.04-.1-1.45-.29-.41-.19-.74-.45-1-.76s-.45-.67-.57-1.06c-.12-.39-.19-.79-.19-1.2v-.22c0-.42.06-.82.19-1.21.12-.39.31-.75.57-1.06s.58-.57.98-.76c.4-.19.86-.28,1.4-.28.7,0,1.27.15,1.72.45.45.3.79.69,1.01,1.16.22.47.33.98.33,1.51v.52h-5.69v-.86h4.85l-.26.47c0-.46-.07-.85-.22-1.18-.14-.33-.36-.59-.65-.77-.29-.18-.65-.28-1.09-.28s-.83.1-1.13.31-.52.49-.67.85c-.15.36-.22.78-.22,1.25s.07.87.22,1.23c.15.36.38.65.69.86.31.21.71.32,1.19.32s.91-.11,1.23-.34c.32-.22.51-.48.57-.78h1.08c-.09.44-.26.82-.53,1.14-.26.32-.6.56-1,.73-.4.17-.85.25-1.36.25Z"/><path class="cls-2" d="M253.48,289.72c-.84,0-1.49-.18-1.95-.54-.46-.36-.7-.85-.71-1.48h1.08c.02.25.14.48.38.7.24.22.64.33,1.21.33.51,0,.9-.1,1.18-.31.27-.2.41-.45.41-.75,0-.26-.1-.47-.3-.62-.2-.15-.52-.25-.97-.29l-.7-.07c-.61-.06-1.1-.25-1.49-.55s-.58-.72-.58-1.27c0-.41.1-.76.31-1.05s.5-.52.86-.67.79-.23,1.27-.23c.72,0,1.3.16,1.75.48.45.32.68.8.7,1.43h-1.08c0-.26-.13-.47-.35-.65-.23-.18-.57-.27-1.01-.27s-.79.09-1.02.28c-.23.18-.35.42-.35.7,0,.24.08.43.25.58.16.14.43.24.81.28l.7.07c.69.07,1.24.26,1.66.57.42.31.62.74.62,1.3,0,.4-.11.75-.34,1.06-.23.31-.54.55-.94.72s-.86.26-1.38.26Z"/><path class="cls-2" d="M257.46,289.53v-1.46h1.39v1.46h-1.39Z"/><path class="cls-2" d="M265.44,286.12l-2.78-5.35h1.22l2.35,4.58-.46-.13h1.42l-.48.13,2.21-4.58h1.15l-2.62,5.35h-2.02ZM265.88,289.53v-3.65h1.15v3.65h-1.15Z"/><path class="cls-2" d="M273.67,289.74c-.56,0-1.05-.1-1.48-.29-.42-.19-.78-.45-1.07-.76s-.51-.67-.66-1.06c-.15-.39-.22-.79-.22-1.2v-.22c0-.41.08-.81.23-1.21.15-.4.38-.75.67-1.07.3-.32.66-.57,1.08-.76.42-.19.91-.28,1.45-.28s1.03.09,1.45.28c.42.19.78.44,1.08.76s.52.67.67,1.07c.15.4.23.8.23,1.21v.22c0,.41-.07.81-.22,1.2-.15.39-.37.75-.66,1.06-.29.32-.65.57-1.07.76-.42.19-.92.29-1.48.29ZM273.67,288.71c.48,0,.89-.11,1.23-.32s.6-.5.78-.86c.18-.36.27-.76.27-1.21s-.09-.86-.28-1.22c-.18-.36-.45-.64-.79-.85-.34-.21-.75-.31-1.22-.31s-.87.1-1.21.31-.61.49-.79.85c-.18.36-.28.77-.28,1.22s.09.85.27,1.21c.18.36.44.65.78.86s.75.32,1.23.32Z"/><path class="cls-2" d="M281.06,289.72c-.76,0-1.34-.25-1.75-.74s-.61-1.21-.61-2.15v-3.72h1.15v3.95c0,.5.14.9.41,1.18.27.28.64.43,1.1.43s.87-.15,1.18-.46c.3-.31.46-.73.46-1.27v-3.83h1.15v6.42h-.91v-2.75h.14c0,.63-.08,1.17-.25,1.6-.17.44-.42.77-.75,1-.33.23-.75.34-1.27.34h-.05Z"/><path class="cls-2" d="M291.85,289.74c-.55,0-1.03-.1-1.43-.29-.4-.19-.74-.45-1-.77-.26-.32-.46-.68-.59-1.07s-.2-.78-.2-1.18v-.22c0-.41.07-.81.2-1.2.13-.39.33-.75.6-1.06.27-.32.6-.57,1-.76s.87-.29,1.4-.29,1.02.1,1.45.3c.43.2.77.48,1.03.85.26.36.41.79.44,1.29h-1.1c-.06-.4-.24-.73-.55-1-.31-.27-.73-.4-1.26-.4-.46,0-.84.1-1.14.31-.3.21-.53.49-.68.85-.15.36-.23.77-.23,1.22s.08.84.23,1.21.38.65.69.86c.31.21.69.32,1.16.32.36,0,.67-.06.94-.19s.48-.3.64-.52c.16-.22.26-.46.29-.73h1.1c-.02.5-.17.94-.44,1.31-.27.37-.62.65-1.06.86-.44.2-.93.31-1.47.31Z"/><path class="cls-2" d="M298.15,289.7c-.48,0-.89-.08-1.24-.25-.35-.16-.62-.4-.8-.71-.19-.31-.28-.69-.28-1.13s.1-.84.31-1.14c.2-.3.5-.53.89-.69s.86-.23,1.42-.23h1.74v.86h-1.79c-.46,0-.82.11-1.07.34-.25.22-.37.51-.37.86s.12.64.37.85c.25.22.6.32,1.07.32.27,0,.53-.05.78-.15.25-.1.45-.27.62-.5.16-.24.25-.56.27-.98l.31.46c-.04.46-.15.84-.33,1.15-.18.31-.43.54-.74.7-.32.16-.7.24-1.15.24ZM300.25,289.53v-1.92h-.19v-2.22c0-.44-.11-.77-.34-1-.23-.22-.56-.34-1-.34-.25,0-.5,0-.77.01-.26,0-.52.02-.76.02-.24,0-.45.02-.62.04v-1.01c.18-.02.36-.03.56-.04.2-.01.4-.02.61-.02s.41,0,.6,0c.66,0,1.19.08,1.61.23s.72.41.92.76c.2.35.3.83.3,1.43v4.06h-.91Z"/><path class="cls-2" d="M303.28,289.53v-6.41h.91v2.75h-.14c0-.63.09-1.17.26-1.6.17-.44.43-.77.79-1,.35-.23.8-.34,1.33-.34h.05c.81,0,1.41.25,1.79.76s.58,1.23.58,2.18v3.66h-1.15v-3.9c0-.5-.14-.89-.42-1.19-.28-.3-.66-.45-1.15-.45s-.91.16-1.22.47c-.31.31-.47.73-.47,1.25v3.83h-1.15Z"/><path class="cls-2" d="M315.47,289.7c-.48,0-.89-.08-1.24-.25-.35-.16-.62-.4-.8-.71-.19-.31-.28-.69-.28-1.13s.1-.84.31-1.14c.2-.3.5-.53.89-.69s.86-.23,1.42-.23h1.74v.86h-1.79c-.46,0-.82.11-1.07.34-.25.22-.37.51-.37.86s.12.64.37.85c.25.22.6.32,1.07.32.27,0,.53-.05.78-.15.25-.1.45-.27.62-.5.16-.24.25-.56.27-.98l.31.46c-.04.46-.15.84-.33,1.15-.18.31-.43.54-.74.7-.32.16-.7.24-1.15.24ZM317.57,289.53v-1.92h-.19v-2.22c0-.44-.11-.77-.34-1-.23-.22-.56-.34-1-.34-.25,0-.5,0-.77.01-.26,0-.52.02-.76.02-.24,0-.45.02-.62.04v-1.01c.18-.02.36-.03.56-.04.2-.01.4-.02.61-.02s.41,0,.6,0c.66,0,1.19.08,1.61.23s.72.41.92.76c.2.35.3.83.3,1.43v4.06h-.91Z"/><path class="cls-2" d="M323.34,289.74c-.55,0-1.03-.1-1.43-.29-.4-.19-.74-.45-1-.77-.26-.32-.46-.68-.59-1.07s-.2-.78-.2-1.18v-.22c0-.41.07-.81.2-1.2.13-.39.33-.75.6-1.06.27-.32.6-.57,1-.76s.87-.29,1.4-.29,1.02.1,1.45.3c.43.2.77.48,1.03.85.26.36.41.79.44,1.29h-1.1c-.06-.4-.24-.73-.55-1-.31-.27-.73-.4-1.26-.4-.46,0-.84.1-1.14.31-.3.21-.53.49-.68.85-.15.36-.23.77-.23,1.22s.08.84.23,1.21.38.65.69.86c.31.21.69.32,1.16.32.36,0,.67-.06.94-.19s.48-.3.64-.52c.16-.22.26-.46.29-.73h1.1c-.02.5-.17.94-.44,1.31-.27.37-.62.65-1.06.86-.44.2-.93.31-1.47.31Z"/><path class="cls-2" d="M330.61,289.74c-.55,0-1.03-.1-1.43-.29-.4-.19-.74-.45-1-.77-.26-.32-.46-.68-.59-1.07s-.2-.78-.2-1.18v-.22c0-.41.07-.81.2-1.2.13-.39.33-.75.6-1.06.27-.32.6-.57,1-.76s.87-.29,1.4-.29,1.02.1,1.45.3c.43.2.77.48,1.03.85.26.36.41.79.44,1.29h-1.1c-.06-.4-.24-.73-.55-1-.31-.27-.73-.4-1.26-.4-.46,0-.84.1-1.14.31-.3.21-.53.49-.68.85-.15.36-.23.77-.23,1.22s.08.84.23,1.21.38.65.69.86c.31.21.69.32,1.16.32.36,0,.67-.06.94-.19s.48-.3.64-.52c.16-.22.26-.46.29-.73h1.1c-.02.5-.17.94-.44,1.31-.27.37-.62.65-1.06.86-.44.2-.93.31-1.47.31Z"/><path class="cls-2" d="M337.86,289.74c-.56,0-1.04-.1-1.45-.29-.41-.19-.74-.45-1-.76s-.45-.67-.57-1.06c-.12-.39-.19-.79-.19-1.2v-.22c0-.42.06-.82.19-1.21.12-.39.31-.75.57-1.06s.58-.57.98-.76c.4-.19.86-.28,1.4-.28.7,0,1.27.15,1.72.45.45.3.79.69,1.01,1.16.22.47.33.98.33,1.51v.52h-5.69v-.86h4.85l-.26.47c0-.46-.07-.85-.22-1.18-.14-.33-.36-.59-.65-.77-.29-.18-.65-.28-1.09-.28s-.83.1-1.13.31-.52.49-.67.85c-.15.36-.22.78-.22,1.25s.07.87.22,1.23c.15.36.38.65.69.86.31.21.71.32,1.19.32s.91-.11,1.23-.34c.32-.22.51-.48.57-.78h1.08c-.09.44-.26.82-.53,1.14-.26.32-.6.56-1,.73-.4.17-.85.25-1.36.25Z"/><path class="cls-2" d="M342.48,291.93v-8.81h.91v2.77l-.22-.02c.04-.69.19-1.25.44-1.69.25-.44.58-.76.99-.97.41-.21.85-.31,1.33-.31s.89.09,1.27.26c.38.18.71.42.98.72.27.3.48.66.62,1.06.14.4.22.82.22,1.27v.22c0,.45-.08.87-.23,1.27-.15.4-.37.75-.64,1.06-.28.3-.6.54-.98.72s-.8.26-1.25.26-.89-.1-1.31-.3-.76-.52-1.03-.97c-.27-.45-.43-1.04-.47-1.76l.53.96v4.26h-1.15ZM345.74,288.74c.43,0,.81-.1,1.13-.31.32-.2.57-.49.74-.85.18-.36.26-.78.26-1.25s-.09-.9-.26-1.26c-.18-.36-.42-.64-.74-.85-.32-.2-.7-.31-1.13-.31-.38,0-.74.09-1.07.26-.33.17-.59.42-.79.74s-.29.71-.29,1.17v.55c0,.44.1.82.3,1.13.2.31.46.55.79.72s.68.25,1.06.25Z"/><path class="cls-2" d="M349.81,283.98v-.86h4.42v.86h-4.42ZM353.25,289.6c-.48,0-.89-.07-1.24-.2-.35-.14-.62-.37-.8-.7-.19-.33-.28-.78-.28-1.35v-6.17h1.1v6.31c0,.34.09.61.28.8.19.19.45.28.8.28h1.13v1.03h-.98Z"/><path class="cls-2" d="M360.37,289.7c-.48,0-.89-.08-1.24-.25-.35-.16-.62-.4-.8-.71-.19-.31-.28-.69-.28-1.13s.1-.84.31-1.14c.2-.3.5-.53.89-.69s.86-.23,1.42-.23h1.74v.86h-1.79c-.46,0-.82.11-1.07.34-.25.22-.37.51-.37.86s.12.64.37.85c.25.22.6.32,1.07.32.27,0,.53-.05.78-.15.25-.1.45-.27.62-.5.16-.24.25-.56.27-.98l.31.46c-.04.46-.15.84-.33,1.15-.18.31-.43.54-.74.7-.32.16-.7.24-1.15.24ZM362.47,289.53v-1.92h-.19v-2.22c0-.44-.11-.77-.34-1-.23-.22-.56-.34-1-.34-.25,0-.5,0-.77.01-.26,0-.52.02-.76.02-.24,0-.45.02-.62.04v-1.01c.18-.02.36-.03.56-.04.2-.01.4-.02.61-.02s.41,0,.6,0c.66,0,1.19.08,1.61.23s.72.41.92.76c.2.35.3.83.3,1.43v4.06h-.91Z"/><path class="cls-2" d="M364.68,281.68v-.91h2.04v.91h-2.04ZM365.57,289.53v-8.76h1.15v8.76h-1.15Z"/><path class="cls-2" d="M368.11,281.68v-.91h2.04v.91h-2.04ZM369,289.53v-8.76h1.15v8.76h-1.15Z"/><path class="cls-2" d="M377.85,289.74c-.55,0-1.03-.1-1.43-.29-.4-.19-.74-.45-1-.77-.26-.32-.46-.68-.59-1.07s-.2-.78-.2-1.18v-.22c0-.41.07-.81.2-1.2.13-.39.33-.75.6-1.06.27-.32.6-.57,1-.76s.87-.29,1.4-.29,1.02.1,1.45.3c.43.2.77.48,1.03.85.26.36.41.79.44,1.29h-1.1c-.06-.4-.24-.73-.55-1-.31-.27-.73-.4-1.26-.4-.46,0-.84.1-1.14.31-.3.21-.53.49-.68.85-.15.36-.23.77-.23,1.22s.08.84.23,1.21.38.65.69.86c.31.21.69.32,1.16.32.36,0,.67-.06.94-.19s.48-.3.64-.52c.16-.22.26-.46.29-.73h1.1c-.02.5-.17.94-.44,1.31-.27.37-.62.65-1.06.86-.44.2-.93.31-1.47.31Z"/><path class="cls-2" d="M385.32,289.74c-.56,0-1.05-.1-1.48-.29-.42-.19-.78-.45-1.07-.76s-.51-.67-.66-1.06c-.15-.39-.22-.79-.22-1.2v-.22c0-.41.08-.81.23-1.21.15-.4.38-.75.67-1.07.3-.32.66-.57,1.08-.76.42-.19.91-.28,1.45-.28s1.03.09,1.45.28c.42.19.78.44,1.08.76s.52.67.67,1.07c.15.4.23.8.23,1.21v.22c0,.41-.07.81-.22,1.2-.15.39-.37.75-.66,1.06-.29.32-.65.57-1.07.76-.42.19-.92.29-1.48.29ZM385.32,288.71c.48,0,.89-.11,1.23-.32s.6-.5.78-.86c.18-.36.27-.76.27-1.21s-.09-.86-.28-1.22c-.18-.36-.45-.64-.79-.85-.34-.21-.75-.31-1.22-.31s-.87.1-1.21.31-.61.49-.79.85c-.18.36-.28.77-.28,1.22s.09.85.27,1.21c.18.36.44.65.78.86s.75.32,1.23.32Z"/><path class="cls-2" d="M393.43,289.74c-.56,0-1.05-.1-1.48-.29-.42-.19-.78-.45-1.07-.76s-.51-.67-.66-1.06c-.15-.39-.22-.79-.22-1.2v-.22c0-.41.08-.81.23-1.21.15-.4.38-.75.67-1.07.3-.32.66-.57,1.08-.76.42-.19.91-.28,1.45-.28s1.03.09,1.45.28c.42.19.78.44,1.08.76s.52.67.67,1.07c.15.4.23.8.23,1.21v.22c0,.41-.07.81-.22,1.2-.15.39-.37.75-.66,1.06-.29.32-.65.57-1.07.76-.42.19-.92.29-1.48.29ZM393.43,288.71c.48,0,.89-.11,1.23-.32s.6-.5.78-.86c.18-.36.27-.76.27-1.21s-.09-.86-.28-1.22c-.18-.36-.45-.64-.79-.85-.34-.21-.75-.31-1.22-.31s-.87.1-1.21.31-.61.49-.79.85c-.18.36-.28.77-.28,1.22s.09.85.27,1.21c.18.36.44.65.78.86s.75.32,1.23.32Z"/><path class="cls-2" d="M398.59,289.53v-8.76h1.15v8.76h-1.15ZM403.01,289.53l-2.41-2.99h-1.06l2.94-3.42h1.21l-2.66,3.08.08-.61,3.23,3.94h-1.33Z"/><path class="cls-2" d="M404.8,284.03v-.91h2.14v.91h-2.14ZM406.11,282.09c-.26,0-.45-.07-.57-.2-.12-.14-.19-.31-.19-.52s.06-.38.19-.52.31-.2.57-.2.45.07.57.2.19.31.19.52-.06.38-.19.52c-.12.14-.31.2-.57.2ZM405.78,289.53v-6.41h1.15v6.41h-1.15Z"/><path class="cls-2" d="M411.89,289.74c-.56,0-1.04-.1-1.45-.29-.41-.19-.74-.45-1-.76s-.45-.67-.57-1.06c-.12-.39-.19-.79-.19-1.2v-.22c0-.42.06-.82.19-1.21.12-.39.31-.75.57-1.06s.58-.57.98-.76c.4-.19.86-.28,1.4-.28.7,0,1.27.15,1.72.45.45.3.79.69,1.01,1.16.22.47.33.98.33,1.51v.52h-5.69v-.86h4.85l-.26.47c0-.46-.07-.85-.22-1.18-.14-.33-.36-.59-.65-.77-.29-.18-.65-.28-1.09-.28s-.83.1-1.13.31-.52.49-.67.85c-.15.36-.22.78-.22,1.25s.07.87.22,1.23c.15.36.38.65.69.86.31.21.71.32,1.19.32s.91-.11,1.23-.34c.32-.22.51-.48.57-.78h1.08c-.09.44-.26.82-.53,1.14-.26.32-.6.56-1,.73-.4.17-.85.25-1.36.25Z"/><path class="cls-2" d="M418.61,289.72c-.84,0-1.49-.18-1.95-.54-.46-.36-.7-.85-.71-1.48h1.08c.02.25.14.48.38.7.24.22.64.33,1.21.33.51,0,.9-.1,1.18-.31.27-.2.41-.45.41-.75,0-.26-.1-.47-.3-.62-.2-.15-.52-.25-.97-.29l-.7-.07c-.61-.06-1.1-.25-1.49-.55s-.58-.72-.58-1.27c0-.41.1-.76.31-1.05s.5-.52.86-.67.79-.23,1.27-.23c.72,0,1.3.16,1.75.48.45.32.68.8.7,1.43h-1.08c0-.26-.13-.47-.35-.65-.23-.18-.57-.27-1.01-.27s-.79.09-1.02.28c-.23.18-.35.42-.35.7,0,.24.08.43.25.58.16.14.43.24.81.28l.7.07c.69.07,1.24.26,1.66.57.42.31.62.74.62,1.3,0,.4-.11.75-.34,1.06-.23.31-.54.55-.94.72s-.86.26-1.38.26Z"/><path class="cls-2" d="M428.63,289.74c-.56,0-1.05-.1-1.48-.29-.42-.19-.78-.45-1.07-.76s-.51-.67-.66-1.06c-.15-.39-.22-.79-.22-1.2v-.22c0-.41.08-.81.23-1.21.15-.4.38-.75.67-1.07.3-.32.66-.57,1.08-.76.42-.19.91-.28,1.45-.28s1.03.09,1.45.28c.42.19.78.44,1.08.76s.52.67.67,1.07c.15.4.23.8.23,1.21v.22c0,.41-.07.81-.22,1.2-.15.39-.37.75-.66,1.06-.29.32-.65.57-1.07.76-.42.19-.92.29-1.48.29ZM428.63,288.71c.48,0,.89-.11,1.23-.32s.6-.5.78-.86c.18-.36.27-.76.27-1.21s-.09-.86-.28-1.22c-.18-.36-.45-.64-.79-.85-.34-.21-.75-.31-1.22-.31s-.87.1-1.21.31-.61.49-.79.85c-.18.36-.28.77-.28,1.22s.09.85.27,1.21c.18.36.44.65.78.86s.75.32,1.23.32Z"/><path class="cls-2" d="M433.79,289.53v-6.41h.91v2.64h-.05c0-.94.21-1.62.62-2.06.41-.44,1.03-.65,1.85-.65h.22v1.03h-.41c-.64,0-1.13.17-1.48.51-.34.34-.52.83-.52,1.47v3.47h-1.15Z"/><path class="cls-2" d="M444.19,289.74c-.55,0-1.03-.1-1.43-.29-.4-.19-.74-.45-1-.77-.26-.32-.46-.68-.59-1.07s-.2-.78-.2-1.18v-.22c0-.41.07-.81.2-1.2.13-.39.33-.75.6-1.06.27-.32.6-.57,1-.76s.87-.29,1.4-.29,1.02.1,1.45.3c.43.2.77.48,1.03.85.26.36.41.79.44,1.29h-1.1c-.06-.4-.24-.73-.55-1-.31-.27-.73-.4-1.26-.4-.46,0-.84.1-1.14.31-.3.21-.53.49-.68.85-.15.36-.23.77-.23,1.22s.08.84.23,1.21.38.65.69.86c.31.21.69.32,1.16.32.36,0,.67-.06.94-.19s.48-.3.64-.52c.16-.22.26-.46.29-.73h1.1c-.02.5-.17.94-.44,1.31-.27.37-.62.65-1.06.86-.44.2-.93.31-1.47.31Z"/><path class="cls-2" d="M448.72,289.53v-8.76h1.15v5.23h-.29c0-.63.08-1.18.25-1.64s.42-.81.76-1.06c.34-.25.78-.37,1.32-.37h.05c.77,0,1.35.25,1.74.76s.59,1.23.59,2.18v3.66h-1.15v-3.9c0-.52-.15-.92-.44-1.21s-.67-.43-1.13-.43c-.51,0-.92.17-1.23.51s-.46.79-.46,1.34v3.7h-1.15Z"/><path class="cls-2" d="M459.35,289.74c-.56,0-1.05-.1-1.48-.29-.42-.19-.78-.45-1.07-.76s-.51-.67-.66-1.06c-.15-.39-.22-.79-.22-1.2v-.22c0-.41.08-.81.23-1.21.15-.4.38-.75.67-1.07.3-.32.66-.57,1.08-.76.42-.19.91-.28,1.45-.28s1.03.09,1.45.28c.42.19.78.44,1.08.76s.52.67.67,1.07c.15.4.23.8.23,1.21v.22c0,.41-.07.81-.22,1.2-.15.39-.37.75-.66,1.06-.29.32-.65.57-1.07.76-.42.19-.92.29-1.48.29ZM459.35,288.71c.48,0,.89-.11,1.23-.32s.6-.5.78-.86c.18-.36.27-.76.27-1.21s-.09-.86-.28-1.22c-.18-.36-.45-.64-.79-.85-.34-.21-.75-.31-1.22-.31s-.87.1-1.21.31-.61.49-.79.85c-.18.36-.28.77-.28,1.22s.09.85.27,1.21c.18.36.44.65.78.86s.75.32,1.23.32Z"/><path class="cls-2" d="M467.46,289.74c-.56,0-1.05-.1-1.48-.29-.42-.19-.78-.45-1.07-.76s-.51-.67-.66-1.06c-.15-.39-.22-.79-.22-1.2v-.22c0-.41.08-.81.23-1.21.15-.4.38-.75.67-1.07.3-.32.66-.57,1.08-.76.42-.19.91-.28,1.45-.28s1.03.09,1.45.28c.42.19.78.44,1.08.76s.52.67.67,1.07c.15.4.23.8.23,1.21v.22c0,.41-.07.81-.22,1.2-.15.39-.37.75-.66,1.06-.29.32-.65.57-1.07.76-.42.19-.92.29-1.48.29ZM467.46,288.71c.48,0,.89-.11,1.23-.32s.6-.5.78-.86c.18-.36.27-.76.27-1.21s-.09-.86-.28-1.22c-.18-.36-.45-.64-.79-.85-.34-.21-.75-.31-1.22-.31s-.87.1-1.21.31-.61.49-.79.85c-.18.36-.28.77-.28,1.22s.09.85.27,1.21c.18.36.44.65.78.86s.75.32,1.23.32Z"/><path class="cls-2" d="M474.72,289.72c-.84,0-1.49-.18-1.95-.54-.46-.36-.7-.85-.71-1.48h1.08c.02.25.14.48.38.7.24.22.64.33,1.21.33.51,0,.9-.1,1.18-.31.27-.2.41-.45.41-.75,0-.26-.1-.47-.3-.62-.2-.15-.52-.25-.97-.29l-.7-.07c-.61-.06-1.1-.25-1.49-.55s-.58-.72-.58-1.27c0-.41.1-.76.31-1.05s.5-.52.86-.67.79-.23,1.27-.23c.72,0,1.3.16,1.75.48.45.32.68.8.7,1.43h-1.08c0-.26-.13-.47-.35-.65-.23-.18-.57-.27-1.01-.27s-.79.09-1.02.28c-.23.18-.35.42-.35.7,0,.24.08.43.25.58.16.14.43.24.81.28l.7.07c.69.07,1.24.26,1.66.57.42.31.62.74.62,1.3,0,.4-.11.75-.34,1.06-.23.31-.54.55-.94.72s-.86.26-1.38.26Z"/><path class="cls-2" d="M481.78,289.74c-.56,0-1.04-.1-1.45-.29-.41-.19-.74-.45-1-.76s-.45-.67-.57-1.06c-.12-.39-.19-.79-.19-1.2v-.22c0-.42.06-.82.19-1.21.12-.39.31-.75.57-1.06s.58-.57.98-.76c.4-.19.86-.28,1.4-.28.7,0,1.27.15,1.72.45.45.3.79.69,1.01,1.16.22.47.33.98.33,1.51v.52h-5.69v-.86h4.85l-.26.47c0-.46-.07-.85-.22-1.18-.14-.33-.36-.59-.65-.77-.29-.18-.65-.28-1.09-.28s-.83.1-1.13.31-.52.49-.67.85c-.15.36-.22.78-.22,1.25s.07.87.22,1.23c.15.36.38.65.69.86.31.21.71.32,1.19.32s.91-.11,1.23-.34c.32-.22.51-.48.57-.78h1.08c-.09.44-.26.82-.53,1.14-.26.32-.6.56-1,.73-.4.17-.85.25-1.36.25Z"/><path class="cls-2" d="M492.08,289.74c-.56,0-1.05-.1-1.48-.29-.42-.19-.78-.45-1.07-.76s-.51-.67-.66-1.06c-.15-.39-.22-.79-.22-1.2v-.22c0-.41.08-.81.23-1.21.15-.4.38-.75.67-1.07.3-.32.66-.57,1.08-.76.42-.19.91-.28,1.45-.28s1.03.09,1.45.28c.42.19.78.44,1.08.76s.52.67.67,1.07c.15.4.23.8.23,1.21v.22c0,.41-.07.81-.22,1.2-.15.39-.37.75-.66,1.06-.29.32-.65.57-1.07.76-.42.19-.92.29-1.48.29ZM492.08,288.71c.48,0,.89-.11,1.23-.32s.6-.5.78-.86c.18-.36.27-.76.27-1.21s-.09-.86-.28-1.22c-.18-.36-.45-.64-.79-.85-.34-.21-.75-.31-1.22-.31s-.87.1-1.21.31-.61.49-.79.85c-.18.36-.28.77-.28,1.22s.09.85.27,1.21c.18.36.44.65.78.86s.75.32,1.23.32Z"/><path class="cls-2" d="M497.24,289.53v-6.41h.91v2.75h-.14c0-.63.09-1.17.26-1.6.17-.44.43-.77.79-1,.35-.23.8-.34,1.33-.34h.05c.81,0,1.41.25,1.79.76s.58,1.23.58,2.18v3.66h-1.15v-3.9c0-.5-.14-.89-.42-1.19-.28-.3-.66-.45-1.15-.45s-.91.16-1.22.47c-.31.31-.47.73-.47,1.25v3.83h-1.15Z"/><path class="cls-2" d="M504.11,281.68v-.91h2.04v.91h-2.04ZM505,289.53v-8.76h1.15v8.76h-1.15Z"/><path class="cls-2" d="M509.76,289.38l-2.29-6.26h1.18l2.2,6.26h-1.08ZM507.92,292.02v-1.03h.92c.27,0,.5-.03.69-.1.19-.07.34-.18.47-.34.12-.16.23-.37.31-.64l2.02-6.79h1.13l-2.14,7.09c-.13.42-.31.77-.54,1.04-.23.27-.51.46-.85.59s-.72.19-1.16.19h-.85ZM509.88,289.38v-.96h1.39v.96h-1.39Z"/><path class="cls-2" d="M519.76,289.72c-.84,0-1.49-.18-1.95-.54-.46-.36-.7-.85-.71-1.48h1.08c.02.25.14.48.38.7.24.22.64.33,1.21.33.51,0,.9-.1,1.18-.31.27-.2.41-.45.41-.75,0-.26-.1-.47-.3-.62-.2-.15-.52-.25-.97-.29l-.7-.07c-.61-.06-1.1-.25-1.49-.55s-.58-.72-.58-1.27c0-.41.1-.76.31-1.05s.5-.52.86-.67.79-.23,1.27-.23c.72,0,1.3.16,1.75.48.45.32.68.8.7,1.43h-1.08c0-.26-.13-.47-.35-.65-.23-.18-.57-.27-1.01-.27s-.79.09-1.02.28c-.23.18-.35.42-.35.7,0,.24.08.43.25.58.16.14.43.24.81.28l.7.07c.69.07,1.24.26,1.66.57.42.31.62.74.62,1.3,0,.4-.11.75-.34,1.06-.23.31-.54.55-.94.72s-.86.26-1.38.26Z"/><path class="cls-2" d="M524.09,291.93v-8.81h.91v2.77l-.22-.02c.04-.69.19-1.25.44-1.69.25-.44.58-.76.99-.97.41-.21.85-.31,1.33-.31s.89.09,1.27.26c.38.18.71.42.98.72.27.3.48.66.62,1.06.14.4.22.82.22,1.27v.22c0,.45-.08.87-.23,1.27-.15.4-.37.75-.64,1.06-.28.3-.6.54-.98.72s-.8.26-1.25.26-.89-.1-1.31-.3-.76-.52-1.03-.97c-.27-.45-.43-1.04-.47-1.76l.53.96v4.26h-1.15ZM527.34,288.74c.43,0,.81-.1,1.13-.31.32-.2.57-.49.74-.85.18-.36.26-.78.26-1.25s-.09-.9-.26-1.26c-.18-.36-.42-.64-.74-.85-.32-.2-.7-.31-1.13-.31-.38,0-.74.09-1.07.26-.33.17-.59.42-.79.74s-.29.71-.29,1.17v.55c0,.44.1.82.3,1.13.2.31.46.55.79.72s.68.25,1.06.25Z"/><path class="cls-2" d="M535.08,289.74c-.56,0-1.04-.1-1.45-.29-.41-.19-.74-.45-1-.76s-.45-.67-.57-1.06c-.12-.39-.19-.79-.19-1.2v-.22c0-.42.06-.82.19-1.21.12-.39.31-.75.57-1.06s.58-.57.98-.76c.4-.19.86-.28,1.4-.28.7,0,1.27.15,1.72.45.45.3.79.69,1.01,1.16.22.47.33.98.33,1.51v.52h-5.69v-.86h4.85l-.26.47c0-.46-.07-.85-.22-1.18-.14-.33-.36-.59-.65-.77-.29-.18-.65-.28-1.09-.28s-.83.1-1.13.31-.52.49-.67.85c-.15.36-.22.78-.22,1.25s.07.87.22,1.23c.15.36.38.65.69.86.31.21.71.32,1.19.32s.91-.11,1.23-.34c.32-.22.51-.48.57-.78h1.08c-.09.44-.26.82-.53,1.14-.26.32-.6.56-1,.73-.4.17-.85.25-1.36.25Z"/><path class="cls-2" d="M542.45,289.74c-.55,0-1.03-.1-1.43-.29-.4-.19-.74-.45-1-.77-.26-.32-.46-.68-.59-1.07s-.2-.78-.2-1.18v-.22c0-.41.07-.81.2-1.2.13-.39.33-.75.6-1.06.27-.32.6-.57,1-.76s.87-.29,1.4-.29,1.02.1,1.45.3c.43.2.77.48,1.03.85.26.36.41.79.44,1.29h-1.1c-.06-.4-.24-.73-.55-1-.31-.27-.73-.4-1.26-.4-.46,0-.84.1-1.14.31-.3.21-.53.49-.68.85-.15.36-.23.77-.23,1.22s.08.84.23,1.21.38.65.69.86c.31.21.69.32,1.16.32.36,0,.67-.06.94-.19s.48-.3.64-.52c.16-.22.26-.46.29-.73h1.1c-.02.5-.17.94-.44,1.31-.27.37-.62.65-1.06.86-.44.2-.93.31-1.47.31Z"/><path class="cls-2" d="M546.3,284.03v-.91h2.14v.91h-2.14ZM547.61,282.09c-.26,0-.45-.07-.57-.2-.12-.14-.19-.31-.19-.52s.06-.38.19-.52.31-.2.57-.2.45.07.57.2.19.31.19.52-.06.38-.19.52c-.12.14-.31.2-.57.2ZM547.28,289.53v-6.41h1.15v6.41h-1.15Z"/><path class="cls-2" d="M549.95,283.98v-.86h3.71v.86h-3.71ZM550.84,289.53v-6.8c0-.71.19-1.24.56-1.57s.93-.5,1.66-.5h.72v.96h-.91c-.3,0-.52.08-.68.25s-.24.39-.24.68v7h-1.1ZM554.3,284.03v-.91h2.09v.91h-2.09ZM555.56,282.09c-.26,0-.45-.07-.57-.2-.12-.14-.19-.31-.19-.52s.06-.38.19-.52.31-.2.57-.2.45.07.57.2.19.31.19.52-.06.38-.19.52c-.12.14-.31.2-.57.2ZM555.24,289.53v-6.41h1.15v6.41h-1.15Z"/><path class="cls-2" d="M561.37,289.74c-.55,0-1.03-.1-1.43-.29-.4-.19-.74-.45-1-.77-.26-.32-.46-.68-.59-1.07s-.2-.78-.2-1.18v-.22c0-.41.07-.81.2-1.2.13-.39.33-.75.6-1.06.27-.32.6-.57,1-.76s.87-.29,1.4-.29,1.02.1,1.45.3c.43.2.77.48,1.03.85.26.36.41.79.44,1.29h-1.1c-.06-.4-.24-.73-.55-1-.31-.27-.73-.4-1.26-.4-.46,0-.84.1-1.14.31-.3.21-.53.49-.68.85-.15.36-.23.77-.23,1.22s.08.84.23,1.21.38.65.69.86c.31.21.69.32,1.16.32.36,0,.67-.06.94-.19s.48-.3.64-.52c.16-.22.26-.46.29-.73h1.1c-.02.5-.17.94-.44,1.31-.27.37-.62.65-1.06.86-.44.2-.93.31-1.47.31Z"/><path class="cls-2" d="M571.58,289.74c-.56,0-1.05-.1-1.48-.29-.42-.19-.78-.45-1.07-.76s-.51-.67-.66-1.06c-.15-.39-.22-.79-.22-1.2v-.22c0-.41.08-.81.23-1.21.15-.4.38-.75.67-1.07.3-.32.66-.57,1.08-.76.42-.19.91-.28,1.45-.28s1.03.09,1.45.28c.42.19.78.44,1.08.76s.52.67.67,1.07c.15.4.23.8.23,1.21v.22c0,.41-.07.81-.22,1.2-.15.39-.37.75-.66,1.06-.29.32-.65.57-1.07.76-.42.19-.92.29-1.48.29ZM571.58,288.71c.48,0,.89-.11,1.23-.32s.6-.5.78-.86c.18-.36.27-.76.27-1.21s-.09-.86-.28-1.22c-.18-.36-.45-.64-.79-.85-.34-.21-.75-.31-1.22-.31s-.87.1-1.21.31-.61.49-.79.85c-.18.36-.28.77-.28,1.22s.09.85.27,1.21c.18.36.44.65.78.86s.75.32,1.23.32Z"/><path class="cls-2" d="M576.74,289.53v-6.41h.91v2.75h-.14c0-.63.09-1.17.26-1.6.17-.44.43-.77.79-1,.35-.23.8-.34,1.33-.34h.05c.81,0,1.41.25,1.79.76s.58,1.23.58,2.18v3.66h-1.15v-3.9c0-.5-.14-.89-.42-1.19-.28-.3-.66-.45-1.15-.45s-.91.16-1.22.47c-.31.31-.47.73-.47,1.25v3.83h-1.15Z"/><path class="cls-2" d="M587.15,289.74c-.56,0-1.04-.1-1.45-.29-.41-.19-.74-.45-1-.76s-.45-.67-.57-1.06c-.12-.39-.19-.79-.19-1.2v-.22c0-.42.06-.82.19-1.21.12-.39.31-.75.57-1.06s.58-.57.98-.76c.4-.19.86-.28,1.4-.28.7,0,1.27.15,1.72.45.45.3.79.69,1.01,1.16.22.47.33.98.33,1.51v.52h-5.69v-.86h4.85l-.26.47c0-.46-.07-.85-.22-1.18-.14-.33-.36-.59-.65-.77-.29-.18-.65-.28-1.09-.28s-.83.1-1.13.31-.52.49-.67.85c-.15.36-.22.78-.22,1.25s.07.87.22,1.23c.15.36.38.65.69.86.31.21.71.32,1.19.32s.91-.11,1.23-.34c.32-.22.51-.48.57-.78h1.08c-.09.44-.26.82-.53,1.14-.26.32-.6.56-1,.73-.4.17-.85.25-1.36.25Z"/><path class="cls-2" d="M593.87,289.72c-.84,0-1.49-.18-1.95-.54-.46-.36-.7-.85-.71-1.48h1.08c.02.25.14.48.38.7.24.22.64.33,1.21.33.51,0,.9-.1,1.18-.31.27-.2.41-.45.41-.75,0-.26-.1-.47-.3-.62-.2-.15-.52-.25-.97-.29l-.7-.07c-.61-.06-1.1-.25-1.49-.55s-.58-.72-.58-1.27c0-.41.1-.76.31-1.05s.5-.52.86-.67.79-.23,1.27-.23c.72,0,1.3.16,1.75.48.45.32.68.8.7,1.43h-1.08c0-.26-.13-.47-.35-.65-.23-.18-.57-.27-1.01-.27s-.79.09-1.02.28c-.23.18-.35.42-.35.7,0,.24.08.43.25.58.16.14.43.24.81.28l.7.07c.69.07,1.24.26,1.66.57.42.31.62.74.62,1.3,0,.4-.11.75-.34,1.06-.23.31-.54.55-.94.72s-.86.26-1.38.26Z"/><path class="cls-2" d="M597.85,289.53v-1.46h1.39v1.46h-1.39Z"/><path class="cls-2" d="M211.84,300.52l-2.78-5.35h1.22l2.35,4.58-.46-.13h1.42l-.48.13,2.21-4.58h1.15l-2.62,5.35h-2.02ZM212.27,303.93v-3.65h1.15v3.65h-1.15Z"/><path class="cls-2" d="M220.07,304.14c-.56,0-1.05-.1-1.48-.29-.42-.19-.78-.45-1.07-.76s-.51-.67-.66-1.06c-.15-.39-.22-.79-.22-1.2v-.22c0-.41.08-.81.23-1.21.15-.4.38-.75.67-1.07.3-.32.66-.57,1.08-.76.42-.19.91-.28,1.45-.28s1.03.09,1.45.28c.42.19.78.44,1.08.76s.52.67.67,1.07c.15.4.23.8.23,1.21v.22c0,.41-.07.81-.22,1.2-.15.39-.37.75-.66,1.06-.29.32-.65.57-1.07.76-.42.19-.92.29-1.48.29ZM220.07,303.11c.48,0,.89-.11,1.23-.32s.6-.5.78-.86c.18-.36.27-.76.27-1.21s-.09-.86-.28-1.22c-.18-.36-.45-.64-.79-.85-.34-.21-.75-.31-1.22-.31s-.87.1-1.21.31-.61.49-.79.85c-.18.36-.28.77-.28,1.22s.09.85.27,1.21c.18.36.44.65.78.86s.75.32,1.23.32Z"/><path class="cls-2" d="M227.45,304.12c-.76,0-1.34-.25-1.75-.74s-.61-1.21-.61-2.15v-3.72h1.15v3.95c0,.5.14.9.41,1.18.27.28.64.43,1.1.43s.87-.15,1.18-.46c.3-.31.46-.73.46-1.27v-3.83h1.15v6.42h-.91v-2.75h.14c0,.63-.08,1.17-.25,1.6-.17.44-.42.77-.75,1-.33.23-.75.34-1.27.34h-.05Z"/><path class="cls-2" d="M238.25,304.14c-.55,0-1.03-.1-1.43-.29-.4-.19-.74-.45-1-.77-.26-.32-.46-.68-.59-1.07s-.2-.78-.2-1.18v-.22c0-.41.07-.81.2-1.2.13-.39.33-.75.6-1.06.27-.32.6-.57,1-.76s.87-.29,1.4-.29,1.02.1,1.45.3c.43.2.77.48,1.03.85.26.36.41.79.44,1.29h-1.1c-.06-.4-.24-.73-.55-1-.31-.27-.73-.4-1.26-.4-.46,0-.84.1-1.14.31-.3.21-.53.49-.68.85-.15.36-.23.77-.23,1.22s.08.84.23,1.21.38.65.69.86c.31.21.69.32,1.16.32.36,0,.67-.06.94-.19s.48-.3.64-.52c.16-.22.26-.46.29-.73h1.1c-.02.5-.17.94-.44,1.31-.27.37-.62.65-1.06.86-.44.2-.93.31-1.47.31Z"/><path class="cls-2" d="M244.55,304.09c-.48,0-.89-.08-1.24-.25-.35-.16-.62-.4-.8-.71-.19-.31-.28-.69-.28-1.13s.1-.84.31-1.14c.2-.3.5-.53.89-.69s.86-.23,1.42-.23h1.74v.86h-1.79c-.46,0-.82.11-1.07.34-.25.22-.37.51-.37.86s.12.64.37.85c.25.22.6.32,1.07.32.27,0,.53-.05.78-.15.25-.1.45-.27.62-.5.16-.24.25-.56.27-.98l.31.46c-.04.46-.15.84-.33,1.15-.18.31-.43.54-.74.7-.32.16-.7.24-1.15.24ZM246.65,303.93v-1.92h-.19v-2.22c0-.44-.11-.77-.34-1-.23-.22-.56-.34-1-.34-.25,0-.5,0-.77.01-.26,0-.52.02-.76.02-.24,0-.45.02-.62.04v-1.01c.18-.02.36-.03.56-.04.2-.01.4-.02.61-.02s.41,0,.6,0c.66,0,1.19.08,1.61.23s.72.41.92.76c.2.35.3.83.3,1.43v4.06h-.91Z"/><path class="cls-2" d="M249.67,303.93v-6.41h.91v2.75h-.14c0-.63.09-1.17.26-1.6.17-.44.43-.77.79-1,.35-.23.8-.34,1.33-.34h.05c.81,0,1.41.25,1.79.76s.58,1.23.58,2.18v3.66h-1.15v-3.9c0-.5-.14-.89-.42-1.19-.28-.3-.66-.45-1.15-.45s-.91.16-1.22.47c-.31.31-.47.73-.47,1.25v3.83h-1.15Z"/><path class="cls-2" d="M262.84,304.14c-.55,0-1.03-.1-1.43-.29-.4-.19-.74-.45-1-.77-.26-.32-.46-.68-.59-1.07s-.2-.78-.2-1.18v-.22c0-.41.07-.81.2-1.2.13-.39.33-.75.6-1.06.27-.32.6-.57,1-.76s.87-.29,1.4-.29,1.02.1,1.45.3c.43.2.77.48,1.03.85.26.36.41.79.44,1.29h-1.1c-.06-.4-.24-.73-.55-1-.31-.27-.73-.4-1.26-.4-.46,0-.84.1-1.14.31-.3.21-.53.49-.68.85-.15.36-.23.77-.23,1.22s.08.84.23,1.21.38.65.69.86c.31.21.69.32,1.16.32.36,0,.67-.06.94-.19s.48-.3.64-.52c.16-.22.26-.46.29-.73h1.1c-.02.5-.17.94-.44,1.31-.27.37-.62.65-1.06.86-.44.2-.93.31-1.47.31Z"/><path class="cls-2" d="M267.36,303.93v-8.76h1.15v5.23h-.29c0-.63.08-1.18.25-1.64s.42-.81.76-1.06c.34-.25.78-.37,1.32-.37h.05c.77,0,1.35.25,1.74.76s.59,1.23.59,2.18v3.66h-1.15v-3.9c0-.52-.15-.92-.44-1.21s-.67-.43-1.13-.43c-.51,0-.92.17-1.23.51s-.46.79-.46,1.34v3.7h-1.15Z"/><path class="cls-2" d="M276.82,304.09c-.48,0-.89-.08-1.24-.25-.35-.16-.62-.4-.8-.71-.19-.31-.28-.69-.28-1.13s.1-.84.31-1.14c.2-.3.5-.53.89-.69s.86-.23,1.42-.23h1.74v.86h-1.79c-.46,0-.82.11-1.07.34-.25.22-.37.51-.37.86s.12.64.37.85c.25.22.6.32,1.07.32.27,0,.53-.05.78-.15.25-.1.45-.27.62-.5.16-.24.25-.56.27-.98l.31.46c-.04.46-.15.84-.33,1.15-.18.31-.43.54-.74.7-.32.16-.7.24-1.15.24ZM278.92,303.93v-1.92h-.19v-2.22c0-.44-.11-.77-.34-1-.23-.22-.56-.34-1-.34-.25,0-.5,0-.77.01-.26,0-.52.02-.76.02-.24,0-.45.02-.62.04v-1.01c.18-.02.36-.03.56-.04.2-.01.4-.02.61-.02s.41,0,.6,0c.66,0,1.19.08,1.61.23s.72.41.92.76c.2.35.3.83.3,1.43v4.06h-.91Z"/><path class="cls-2" d="M281.94,303.93v-6.41h.91v2.75h-.14c0-.63.09-1.17.26-1.6.17-.44.43-.77.79-1,.35-.23.8-.34,1.33-.34h.05c.81,0,1.41.25,1.79.76s.58,1.23.58,2.18v3.66h-1.15v-3.9c0-.5-.14-.89-.42-1.19-.28-.3-.66-.45-1.15-.45s-.91.16-1.22.47c-.31.31-.47.73-.47,1.25v3.83h-1.15Z"/><path class="cls-2" d="M292.05,306.42c-.3,0-.59-.01-.89-.04s-.59-.06-.86-.1v-.97c.29.04.59.07.91.1.32.03.61.04.89.04.58,0,1.05-.08,1.4-.23.35-.16.6-.4.76-.73.16-.33.23-.76.23-1.28v-1.22l.38-.91c-.02.65-.16,1.19-.41,1.61-.25.43-.57.75-.97.96-.4.21-.83.32-1.31.32-.45,0-.86-.09-1.23-.26s-.69-.41-.96-.71c-.27-.3-.48-.65-.62-1.05-.15-.4-.22-.81-.22-1.25v-.22c0-.45.08-.87.23-1.25.15-.39.36-.73.64-1.01.27-.29.6-.51.98-.67s.8-.24,1.25-.24c.54,0,1.01.11,1.42.34.41.23.73.56.97,1,.24.44.37.97.39,1.6h-.34s0-2.72,0-2.72h.91v5.65c0,.77-.12,1.39-.35,1.87-.24.48-.61.83-1.13,1.05-.52.22-1.2.34-2.06.34ZM292.39,302.92c.38,0,.73-.08,1.05-.25.32-.17.57-.41.76-.73.19-.32.28-.69.28-1.13v-.55c0-.43-.1-.8-.29-1.09s-.45-.52-.76-.67c-.31-.15-.65-.23-1.02-.23-.42,0-.78.1-1.1.29-.32.19-.57.46-.74.81-.18.35-.26.76-.26,1.23s.09.88.27,1.24c.18.35.43.62.74.81.32.19.68.28,1.09.28Z"/><path class="cls-2" d="M300.45,304.14c-.56,0-1.04-.1-1.45-.29-.41-.19-.74-.45-1-.76s-.45-.67-.57-1.06c-.12-.39-.19-.79-.19-1.2v-.22c0-.42.06-.82.19-1.21.12-.39.31-.75.57-1.06s.58-.57.98-.76c.4-.19.86-.28,1.4-.28.7,0,1.27.15,1.72.45.45.3.79.69,1.01,1.16.22.47.33.98.33,1.51v.52h-5.69v-.86h4.85l-.26.47c0-.46-.07-.85-.22-1.18-.14-.33-.36-.59-.65-.77-.29-.18-.65-.28-1.09-.28s-.83.1-1.13.31-.52.49-.67.85c-.15.36-.22.78-.22,1.25s.07.87.22,1.23c.15.36.38.65.69.86.31.21.71.32,1.19.32s.91-.11,1.23-.34c.32-.22.51-.48.57-.78h1.08c-.09.44-.26.82-.53,1.14-.26.32-.6.56-1,.73-.4.17-.85.25-1.36.25Z"/><path class="cls-2" d="M306.87,298.38v-.86h4.42v.86h-4.42ZM310.3,304c-.48,0-.89-.07-1.24-.2-.35-.14-.62-.37-.8-.7-.19-.33-.28-.78-.28-1.35v-6.17h1.1v6.31c0,.34.09.61.28.8.19.19.45.28.8.28h1.13v1.03h-.98Z"/><path class="cls-2" d="M312.91,303.93v-8.76h1.15v5.23h-.29c0-.63.08-1.18.25-1.64s.42-.81.76-1.06c.34-.25.78-.37,1.32-.37h.05c.77,0,1.35.25,1.74.76s.59,1.23.59,2.18v3.66h-1.15v-3.9c0-.52-.15-.92-.44-1.21s-.67-.43-1.13-.43c-.51,0-.92.17-1.23.51s-.46.79-.46,1.34v3.7h-1.15Z"/><path class="cls-2" d="M323.32,304.14c-.56,0-1.04-.1-1.45-.29-.41-.19-.74-.45-1-.76s-.45-.67-.57-1.06c-.12-.39-.19-.79-.19-1.2v-.22c0-.42.06-.82.19-1.21.12-.39.31-.75.57-1.06s.58-.57.98-.76c.4-.19.86-.28,1.4-.28.7,0,1.27.15,1.72.45.45.3.79.69,1.01,1.16.22.47.33.98.33,1.51v.52h-5.69v-.86h4.85l-.26.47c0-.46-.07-.85-.22-1.18-.14-.33-.36-.59-.65-.77-.29-.18-.65-.28-1.09-.28s-.83.1-1.13.31-.52.49-.67.85c-.15.36-.22.78-.22,1.25s.07.87.22,1.23c.15.36.38.65.69.86.31.21.71.32,1.19.32s.91-.11,1.23-.34c.32-.22.51-.48.57-.78h1.08c-.09.44-.26.82-.53,1.14-.26.32-.6.56-1,.73-.4.17-.85.25-1.36.25Z"/><path class="cls-2" d="M330.04,304.12c-.84,0-1.49-.18-1.95-.54-.46-.36-.7-.85-.71-1.48h1.08c.02.25.14.48.38.7.24.22.64.33,1.21.33.51,0,.9-.1,1.18-.31.27-.2.41-.45.41-.75,0-.26-.1-.47-.3-.62-.2-.15-.52-.25-.97-.29l-.7-.07c-.61-.06-1.1-.25-1.49-.55s-.58-.72-.58-1.27c0-.41.1-.76.31-1.05s.5-.52.86-.67.79-.23,1.27-.23c.72,0,1.3.16,1.75.48.45.32.68.8.7,1.43h-1.08c0-.26-.13-.47-.35-.65-.23-.18-.57-.27-1.01-.27s-.79.09-1.02.28c-.23.18-.35.42-.35.7,0,.24.08.43.25.58.16.14.43.24.81.28l.7.07c.69.07,1.24.26,1.66.57.42.31.62.74.62,1.3,0,.4-.11.75-.34,1.06-.23.31-.54.55-.94.72s-.86.26-1.38.26Z"/><path class="cls-2" d="M337.09,304.14c-.56,0-1.04-.1-1.45-.29-.41-.19-.74-.45-1-.76s-.45-.67-.57-1.06c-.12-.39-.19-.79-.19-1.2v-.22c0-.42.06-.82.19-1.21.12-.39.31-.75.57-1.06s.58-.57.98-.76c.4-.19.86-.28,1.4-.28.7,0,1.27.15,1.72.45.45.3.79.69,1.01,1.16.22.47.33.98.33,1.51v.52h-5.69v-.86h4.85l-.26.47c0-.46-.07-.85-.22-1.18-.14-.33-.36-.59-.65-.77-.29-.18-.65-.28-1.09-.28s-.83.1-1.13.31-.52.49-.67.85c-.15.36-.22.78-.22,1.25s.07.87.22,1.23c.15.36.38.65.69.86.31.21.71.32,1.19.32s.91-.11,1.23-.34c.32-.22.51-.48.57-.78h1.08c-.09.44-.26.82-.53,1.14-.26.32-.6.56-1,.73-.4.17-.85.25-1.36.25Z"/><path class="cls-2" d="M346.55,304.12c-.84,0-1.49-.18-1.95-.54-.46-.36-.7-.85-.71-1.48h1.08c.02.25.14.48.38.7.24.22.64.33,1.21.33.51,0,.9-.1,1.18-.31.27-.2.41-.45.41-.75,0-.26-.1-.47-.3-.62-.2-.15-.52-.25-.97-.29l-.7-.07c-.61-.06-1.1-.25-1.49-.55s-.58-.72-.58-1.27c0-.41.1-.76.31-1.05s.5-.52.86-.67.79-.23,1.27-.23c.72,0,1.3.16,1.75.48.45.32.68.8.7,1.43h-1.08c0-.26-.13-.47-.35-.65-.23-.18-.57-.27-1.01-.27s-.79.09-1.02.28c-.23.18-.35.42-.35.7,0,.24.08.43.25.58.16.14.43.24.81.28l.7.07c.69.07,1.24.26,1.66.57.42.31.62.74.62,1.3,0,.4-.11.75-.34,1.06-.23.31-.54.55-.94.72s-.86.26-1.38.26Z"/><path class="cls-2" d="M353.61,304.14c-.56,0-1.04-.1-1.45-.29-.41-.19-.74-.45-1-.76s-.45-.67-.57-1.06c-.12-.39-.19-.79-.19-1.2v-.22c0-.42.06-.82.19-1.21.12-.39.31-.75.57-1.06s.58-.57.98-.76c.4-.19.86-.28,1.4-.28.7,0,1.27.15,1.72.45.45.3.79.69,1.01,1.16.22.47.33.98.33,1.51v.52h-5.69v-.86h4.85l-.26.47c0-.46-.07-.85-.22-1.18-.14-.33-.36-.59-.65-.77-.29-.18-.65-.28-1.09-.28s-.83.1-1.13.31-.52.49-.67.85c-.15.36-.22.78-.22,1.25s.07.87.22,1.23c.15.36.38.65.69.86.31.21.71.32,1.19.32s.91-.11,1.23-.34c.32-.22.51-.48.57-.78h1.08c-.09.44-.26.82-.53,1.14-.26.32-.6.56-1,.73-.4.17-.85.25-1.36.25Z"/><path class="cls-2" d="M357.29,298.38v-.86h4.42v.86h-4.42ZM360.72,304c-.48,0-.89-.07-1.24-.2-.35-.14-.62-.37-.8-.7-.19-.33-.28-.78-.28-1.35v-6.17h1.1v6.31c0,.34.09.61.28.8.19.19.45.28.8.28h1.13v1.03h-.98Z"/><path class="cls-2" d="M362.4,298.38v-.86h4.42v.86h-4.42ZM365.83,304c-.48,0-.89-.07-1.24-.2-.35-.14-.62-.37-.8-.7-.19-.33-.28-.78-.28-1.35v-6.17h1.1v6.31c0,.34.09.61.28.8.19.19.45.28.8.28h1.13v1.03h-.98Z"/><path class="cls-2" d="M367.78,298.43v-.91h2.14v.91h-2.14ZM369.09,296.49c-.26,0-.45-.07-.57-.2-.12-.14-.19-.31-.19-.52s.06-.38.19-.52.31-.2.57-.2.45.07.57.2.19.31.19.52-.06.38-.19.52c-.12.14-.31.2-.57.2ZM368.76,303.93v-6.41h1.15v6.41h-1.15Z"/><path class="cls-2" d="M372.15,303.93v-6.41h.91v2.75h-.14c0-.63.09-1.17.26-1.6.17-.44.43-.77.79-1,.35-.23.8-.34,1.33-.34h.05c.81,0,1.41.25,1.79.76s.58,1.23.58,2.18v3.66h-1.15v-3.9c0-.5-.14-.89-.42-1.19-.28-.3-.66-.45-1.15-.45s-.91.16-1.22.47c-.31.31-.47.73-.47,1.25v3.83h-1.15Z"/><path class="cls-2" d="M382.25,306.42c-.3,0-.59-.01-.89-.04s-.59-.06-.86-.1v-.97c.29.04.59.07.91.1.32.03.61.04.89.04.58,0,1.05-.08,1.4-.23.35-.16.6-.4.76-.73.16-.33.23-.76.23-1.28v-1.22l.38-.91c-.02.65-.16,1.19-.41,1.61-.25.43-.57.75-.97.96-.4.21-.83.32-1.31.32-.45,0-.86-.09-1.23-.26s-.69-.41-.96-.71c-.27-.3-.48-.65-.62-1.05-.15-.4-.22-.81-.22-1.25v-.22c0-.45.08-.87.23-1.25.15-.39.36-.73.64-1.01.27-.29.6-.51.98-.67s.8-.24,1.25-.24c.54,0,1.01.11,1.42.34.41.23.73.56.97,1,.24.44.37.97.39,1.6h-.34s0-2.72,0-2.72h.91v5.65c0,.77-.12,1.39-.35,1.87-.24.48-.61.83-1.13,1.05-.52.22-1.2.34-2.06.34ZM382.6,302.92c.38,0,.73-.08,1.05-.25.32-.17.57-.41.76-.73.19-.32.28-.69.28-1.13v-.55c0-.43-.1-.8-.29-1.09s-.45-.52-.76-.67c-.31-.15-.65-.23-1.02-.23-.42,0-.78.1-1.1.29-.32.19-.57.46-.74.81-.18.35-.26.76-.26,1.23s.09.88.27,1.24c.18.35.43.62.74.81.32.19.68.28,1.09.28Z"/><path class="cls-2" d="M390.03,304.12c-.84,0-1.49-.18-1.95-.54-.46-.36-.7-.85-.71-1.48h1.08c.02.25.14.48.38.7.24.22.64.33,1.21.33.51,0,.9-.1,1.18-.31.27-.2.41-.45.41-.75,0-.26-.1-.47-.3-.62-.2-.15-.52-.25-.97-.29l-.7-.07c-.61-.06-1.1-.25-1.49-.55s-.58-.72-.58-1.27c0-.41.1-.76.31-1.05s.5-.52.86-.67.79-.23,1.27-.23c.72,0,1.3.16,1.75.48.45.32.68.8.7,1.43h-1.08c0-.26-.13-.47-.35-.65-.23-.18-.57-.27-1.01-.27s-.79.09-1.02.28c-.23.18-.35.42-.35.7,0,.24.08.43.25.58.16.14.43.24.81.28l.7.07c.69.07,1.24.26,1.66.57.42.31.62.74.62,1.3,0,.4-.11.75-.34,1.06-.23.31-.54.55-.94.72s-.86.26-1.38.26Z"/><path class="cls-2" d="M398.87,304.09c-.48,0-.89-.08-1.24-.25-.35-.16-.62-.4-.8-.71-.19-.31-.28-.69-.28-1.13s.1-.84.31-1.14c.2-.3.5-.53.89-.69s.86-.23,1.42-.23h1.74v.86h-1.79c-.46,0-.82.11-1.07.34-.25.22-.37.51-.37.86s.12.64.37.85c.25.22.6.32,1.07.32.27,0,.53-.05.78-.15.25-.1.45-.27.62-.5.16-.24.25-.56.27-.98l.31.46c-.04.46-.15.84-.33,1.15-.18.31-.43.54-.74.7-.32.16-.7.24-1.15.24ZM400.97,303.93v-1.92h-.19v-2.22c0-.44-.11-.77-.34-1-.23-.22-.56-.34-1-.34-.25,0-.5,0-.77.01-.26,0-.52.02-.76.02-.24,0-.45.02-.62.04v-1.01c.18-.02.36-.03.56-.04.2-.01.4-.02.61-.02s.41,0,.6,0c.66,0,1.19.08,1.61.23s.72.41.92.76c.2.35.3.83.3,1.43v4.06h-.91Z"/><path class="cls-2" d="M403.06,298.38v-.86h4.42v.86h-4.42ZM406.49,304c-.48,0-.89-.07-1.24-.2-.35-.14-.62-.37-.8-.7-.19-.33-.28-.78-.28-1.35v-6.17h1.1v6.31c0,.34.09.61.28.8.19.19.45.28.8.28h1.13v1.03h-.98Z"/><path class="cls-2" d="M413.62,304.09c-.48,0-.89-.08-1.24-.25-.35-.16-.62-.4-.8-.71-.19-.31-.28-.69-.28-1.13s.1-.84.31-1.14c.2-.3.5-.53.89-.69s.86-.23,1.42-.23h1.74v.86h-1.79c-.46,0-.82.11-1.07.34-.25.22-.37.51-.37.86s.12.64.37.85c.25.22.6.32,1.07.32.27,0,.53-.05.78-.15.25-.1.45-.27.62-.5.16-.24.25-.56.27-.98l.31.46c-.04.46-.15.84-.33,1.15-.18.31-.43.54-.74.7-.32.16-.7.24-1.15.24ZM415.72,303.93v-1.92h-.19v-2.22c0-.44-.11-.77-.34-1-.23-.22-.56-.34-1-.34-.25,0-.5,0-.77.01-.26,0-.52.02-.76.02-.24,0-.45.02-.62.04v-1.01c.18-.02.36-.03.56-.04.2-.01.4-.02.61-.02s.41,0,.6,0c.66,0,1.19.08,1.61.23s.72.41.92.76c.2.35.3.83.3,1.43v4.06h-.91Z"/><path class="cls-2" d="M418.74,303.93v-6.41h.91v2.75h-.14c0-.63.09-1.17.26-1.6.17-.44.43-.77.79-1,.35-.23.8-.34,1.33-.34h.05c.81,0,1.41.25,1.79.76s.58,1.23.58,2.18v3.66h-1.15v-3.9c0-.5-.14-.89-.42-1.19-.28-.3-.66-.45-1.15-.45s-.91.16-1.22.47c-.31.31-.47.73-.47,1.25v3.83h-1.15Z"/><path class="cls-2" d="M427.78,303.78l-2.29-6.26h1.18l2.2,6.26h-1.08ZM425.94,306.42v-1.03h.92c.27,0,.5-.03.69-.1.19-.07.34-.18.47-.34.12-.16.23-.37.31-.64l2.02-6.79h1.13l-2.14,7.09c-.13.42-.31.77-.54,1.04-.23.27-.51.46-.85.59s-.72.19-1.16.19h-.85ZM427.9,303.78v-.96h1.39v.96h-1.39Z"/><path class="cls-2" d="M434.74,298.38v-.86h4.42v.86h-4.42ZM438.17,304c-.48,0-.89-.07-1.24-.2-.35-.14-.62-.37-.8-.7-.19-.33-.28-.78-.28-1.35v-6.17h1.1v6.31c0,.34.09.61.28.8.19.19.45.28.8.28h1.13v1.03h-.98Z"/><path class="cls-2" d="M440.11,298.43v-.91h2.14v.91h-2.14ZM441.42,296.49c-.26,0-.45-.07-.57-.2-.12-.14-.19-.31-.19-.52s.06-.38.19-.52.31-.2.57-.2.45.07.57.2.19.31.19.52-.06.38-.19.52c-.12.14-.31.2-.57.2ZM441.1,303.93v-6.41h1.15v6.41h-1.15Z"/><path class="cls-2" d="M444.48,303.93v-6.41h.91v2.75h-.14c0-.62.08-1.15.25-1.59.16-.44.41-.77.74-1,.33-.23.74-.35,1.25-.35h.05c.5,0,.92.12,1.25.35s.58.57.74,1c.16.44.24.97.24,1.59h-.34c0-.62.08-1.15.25-1.59.17-.44.42-.77.75-1s.75-.35,1.25-.35h.05c.5,0,.92.12,1.26.35s.59.57.75,1c.16.44.25.97.25,1.59v3.66h-1.15v-3.91c0-.52-.13-.92-.38-1.21-.26-.28-.61-.43-1.07-.43s-.85.15-1.14.45-.43.72-.43,1.25v3.84h-1.15v-3.91c0-.52-.13-.92-.38-1.21-.26-.28-.61-.43-1.07-.43s-.85.15-1.14.45c-.29.3-.43.72-.43,1.25v3.84h-1.15Z"/><path class="cls-2" d="M458.82,304.14c-.56,0-1.04-.1-1.45-.29-.41-.19-.74-.45-1-.76s-.45-.67-.57-1.06c-.12-.39-.19-.79-.19-1.2v-.22c0-.42.06-.82.19-1.21.12-.39.31-.75.57-1.06s.58-.57.98-.76c.4-.19.86-.28,1.4-.28.7,0,1.27.15,1.72.45.45.3.79.69,1.01,1.16.22.47.33.98.33,1.51v.52h-5.69v-.86h4.85l-.26.47c0-.46-.07-.85-.22-1.18-.14-.33-.36-.59-.65-.77-.29-.18-.65-.28-1.09-.28s-.83.1-1.13.31-.52.49-.67.85c-.15.36-.22.78-.22,1.25s.07.87.22,1.23c.15.36.38.65.69.86.31.21.71.32,1.19.32s.91-.11,1.23-.34c.32-.22.51-.48.57-.78h1.08c-.09.44-.26.82-.53,1.14-.26.32-.6.56-1,.73-.4.17-.85.25-1.36.25Z"/><path class="cls-2" d="M463.12,303.93v-1.46h1.39v1.46h-1.39Z"/><path class="cls-1" d="M398.38,350.64c-.78,0-1.43-.12-1.96-.37-.53-.25-.94-.59-1.22-1.03s-.42-.93-.42-1.48h1.67c0,.23.06.46.19.68.13.22.33.4.62.53.28.14.66.2,1.12.2.42,0,.76-.06,1.04-.18.28-.12.49-.28.62-.47.14-.2.2-.42.2-.67,0-.31-.13-.56-.4-.75-.26-.19-.67-.31-1.22-.35l-.77-.06c-.84-.07-1.51-.33-2.01-.79s-.75-1.05-.75-1.79c0-.56.13-1.04.4-1.45.26-.4.63-.72,1.11-.94.48-.22,1.04-.33,1.67-.33s1.24.12,1.72.35c.48.23.85.56,1.12.98.26.42.4.91.4,1.48h-1.67c0-.24-.06-.46-.17-.67-.12-.2-.29-.37-.52-.49-.23-.12-.52-.19-.87-.19s-.62.06-.84.17c-.22.11-.39.26-.5.46-.11.19-.17.4-.17.62,0,.27.1.51.3.71.2.2.52.32.95.35l.77.07c.62.05,1.17.18,1.64.4.47.22.84.51,1.1.88.26.37.39.81.39,1.33,0,.55-.14,1.04-.43,1.46-.29.42-.7.75-1.23.98-.53.23-1.16.35-1.88.35Z"/><path class="cls-1" d="M406.26,350.64c-.56,0-1.05-.1-1.47-.29s-.77-.45-1.04-.77-.48-.69-.62-1.09-.21-.81-.21-1.22v-.23c0-.43.07-.85.21-1.25s.35-.76.62-1.08c.28-.32.62-.57,1.03-.76s.88-.28,1.42-.28c.71,0,1.29.15,1.77.46.48.31.83.71,1.07,1.21.24.5.36,1.04.36,1.61v.6h-5.77v-1.02h4.73l-.52.5c0-.42-.06-.77-.18-1.07-.12-.3-.3-.52-.55-.68s-.55-.24-.92-.24-.68.08-.94.25-.45.41-.58.73c-.13.32-.2.69-.2,1.13,0,.41.06.77.19,1.09s.32.56.59.74c.26.18.6.27,1.01.27s.74-.08,1-.25.42-.37.49-.61h1.54c-.1.45-.28.84-.55,1.18-.27.34-.62.6-1.04.78-.42.18-.9.28-1.43.28Z"/><path class="cls-1" d="M409.95,345.12v-1.22h4.61v1.22h-4.61ZM413.62,350.49c-.6,0-1.09-.08-1.48-.23-.39-.16-.68-.42-.87-.79-.19-.37-.29-.87-.29-1.51v-5.9h1.57v6.01c-.01.32.07.57.25.74.17.17.42.26.74.26h1.02v1.43h-.94Z"/><path class="cls-1" d="M415.12,345.12v-1.22h4.61v1.22h-4.61ZM418.79,350.49c-.6,0-1.09-.08-1.48-.23-.39-.16-.68-.42-.87-.79-.19-.37-.29-.87-.29-1.51v-5.9h1.57v6.01c-.01.32.07.57.25.74.17.17.42.26.74.26h1.02v1.43h-.94Z"/><path class="cls-1" d="M420.53,345.14v-1.25h2.58v1.25h-2.58ZM422.06,343.11c-.33,0-.57-.09-.73-.26-.16-.17-.23-.39-.23-.65s.08-.48.23-.65.4-.25.73-.25.57.08.72.25c.15.17.23.38.23.65s-.08.48-.23.65c-.15.17-.39.26-.72.26ZM421.44,350.41v-6.52h1.67v6.52h-1.67Z"/><path class="cls-1" d="M425.03,350.41v-6.52h1.32v2.8h-.12c0-.66.09-1.22.26-1.66.18-.44.44-.78.79-1,.35-.22.78-.34,1.3-.34h.07c.78,0,1.36.25,1.76.75.4.5.6,1.25.6,2.24v3.73h-1.67v-3.88c0-.4-.11-.72-.34-.97-.23-.25-.54-.37-.94-.37s-.74.13-.99.38c-.25.25-.38.59-.38,1.01v3.83h-1.67Z"/><path class="cls-1" d="M435.35,352.98c-.31,0-.63-.01-.95-.04-.32-.02-.63-.06-.91-.1v-1.39c.29.03.6.06.92.09.33.03.64.04.92.04.54,0,.97-.06,1.3-.19.33-.13.58-.33.73-.61.16-.28.23-.63.23-1.05v-1.28l.36-.82c-.02.6-.15,1.11-.37,1.53-.22.42-.53.74-.91.96-.38.22-.83.33-1.33.33-.45,0-.85-.08-1.22-.25s-.68-.4-.94-.7-.46-.64-.61-1.04-.22-.83-.22-1.28v-.25c0-.46.07-.88.22-1.28s.36-.74.63-1.04c.27-.3.6-.52.97-.68.38-.16.79-.24,1.25-.24.54,0,1,.12,1.4.35.4.23.71.57.93,1.01.22.44.35.98.37,1.62l-.29.05v-2.82h1.32v5.75c0,.79-.14,1.43-.41,1.92-.27.49-.69.85-1.25,1.07-.56.23-1.29.34-2.17.34ZM435.83,349.03c.32,0,.61-.07.88-.22.26-.14.48-.35.64-.62.16-.27.24-.6.24-.98v-.42c0-.37-.08-.68-.25-.94-.16-.26-.38-.45-.64-.58s-.55-.2-.86-.2c-.35,0-.66.08-.93.25-.27.16-.48.39-.63.69s-.23.65-.23,1.06.08.75.23,1.04c.15.3.36.52.63.68.27.16.58.24.93.24Z"/><path class="cls-1" d="M443.37,350.61c-.9,0-1.6-.19-2.11-.57s-.77-.91-.8-1.58h1.5c.02.22.15.43.37.61.22.18.58.28,1.06.28.4,0,.72-.07.95-.22s.35-.34.35-.59c0-.22-.09-.39-.27-.52s-.49-.21-.92-.25l-.58-.06c-.73-.08-1.29-.29-1.68-.62-.39-.34-.59-.78-.59-1.34,0-.45.11-.82.34-1.13.22-.3.53-.53.93-.69.4-.16.85-.23,1.36-.23.8,0,1.45.18,1.94.53.5.35.76.87.78,1.55h-1.5c-.02-.22-.13-.42-.34-.58s-.51-.24-.9-.24c-.35,0-.62.07-.82.2-.19.14-.29.31-.29.53s.08.37.23.48c.16.11.41.19.76.23l.58.06c.77.08,1.37.29,1.81.64.44.34.65.81.65,1.39,0,.43-.12.81-.35,1.12s-.57.56-.99.74-.92.26-1.5.26Z"/><path class="cls-1" d="M249.1,350.41v-8.82h1.71v8.82h-1.71ZM250.3,347.48v-1.38h2.23c.31,0,.58-.06.81-.19.23-.13.41-.31.53-.54s.19-.5.19-.79-.06-.57-.19-.8c-.13-.23-.31-.41-.53-.54-.23-.13-.5-.19-.81-.19h-2.23v-1.45h2.05c.7,0,1.31.1,1.83.31.52.21.91.52,1.19.95.28.42.42.96.42,1.6v.19c0,.65-.14,1.18-.43,1.6s-.68.73-1.19.94c-.51.21-1.12.31-1.82.31h-2.05ZM254.45,350.41l-2.69-3.82h1.91l2.77,3.82h-1.99Z"/><path class="cls-1" d="M260.41,350.64c-.56,0-1.05-.1-1.47-.29s-.77-.45-1.04-.77c-.28-.32-.48-.69-.62-1.09-.14-.4-.21-.81-.21-1.22v-.23c0-.43.07-.85.21-1.25.14-.4.35-.76.62-1.08.28-.32.62-.57,1.03-.76s.88-.28,1.42-.28c.7,0,1.29.15,1.77.46.48.31.83.71,1.07,1.21s.36,1.04.36,1.61v.6h-5.77v-1.02h4.73l-.52.5c0-.42-.06-.77-.18-1.07s-.3-.52-.55-.68-.55-.24-.92-.24-.68.08-.94.25-.45.41-.58.73c-.13.32-.2.69-.2,1.13,0,.41.06.77.19,1.09.13.32.32.56.59.74.26.18.6.27,1.01.27s.74-.08,1-.25.42-.37.49-.61h1.54c-.1.45-.28.84-.55,1.18s-.62.6-1.04.78c-.42.18-.9.28-1.43.28Z"/><path class="cls-1" d="M264.01,352.87v-1.43h.5c.3,0,.52-.08.68-.24s.24-.39.24-.68v-6.62h1.61v6.53c0,.6-.09,1.08-.28,1.43s-.47.61-.85.77c-.38.16-.89.24-1.51.24h-.4ZM264.49,345.14v-1.25h2.56v1.25h-2.56ZM265.98,343.07c-.32,0-.56-.09-.71-.26-.16-.17-.23-.39-.23-.65s.08-.48.23-.65.39-.25.71-.25.57.08.72.25c.16.17.23.38.23.65s-.08.48-.23.65c-.16.17-.4.26-.72.26Z"/><path class="cls-1" d="M271.83,350.64c-.56,0-1.05-.1-1.47-.29s-.77-.45-1.04-.77c-.28-.32-.48-.69-.62-1.09-.14-.4-.21-.81-.21-1.22v-.23c0-.43.07-.85.21-1.25.14-.4.35-.76.62-1.08.28-.32.62-.57,1.03-.76s.88-.28,1.42-.28c.7,0,1.29.15,1.77.46.48.31.83.71,1.07,1.21s.36,1.04.36,1.61v.6h-5.77v-1.02h4.73l-.52.5c0-.42-.06-.77-.18-1.07s-.3-.52-.55-.68-.55-.24-.92-.24-.68.08-.94.25-.45.41-.58.73c-.13.32-.2.69-.2,1.13,0,.41.06.77.19,1.09.13.32.32.56.59.74.26.18.6.27,1.01.27s.74-.08,1-.25.42-.37.49-.61h1.54c-.1.45-.28.84-.55,1.18s-.62.6-1.04.78c-.42.18-.9.28-1.43.28Z"/><path class="cls-1" d="M279.25,350.64c-.57,0-1.06-.1-1.47-.29s-.76-.45-1.03-.77c-.28-.32-.48-.68-.62-1.08-.14-.4-.2-.81-.2-1.22v-.23c0-.44.07-.86.21-1.27s.35-.76.63-1.08c.28-.32.63-.57,1.04-.76s.89-.28,1.43-.28,1.08.11,1.52.33c.45.22.81.53,1.07.92.27.39.42.85.45,1.37h-1.62c-.04-.34-.18-.62-.43-.84-.24-.22-.58-.34-1-.34-.37,0-.67.09-.92.26-.24.18-.43.42-.55.73-.12.31-.18.66-.18,1.06s.06.73.17,1.04c.12.31.3.56.54.73.24.18.56.26.94.26.29,0,.54-.05.74-.16.21-.1.37-.25.5-.43.12-.18.2-.39.23-.62h1.62c-.03.53-.19.99-.46,1.39s-.64.71-1.09.93c-.45.22-.96.34-1.54.34Z"/><path class="cls-1" d="M282.83,345.12v-1.22h4.61v1.22h-4.61ZM286.51,350.49c-.6,0-1.09-.08-1.48-.23-.39-.16-.68-.42-.87-.79-.19-.37-.29-.87-.29-1.51v-5.9h1.57v6.01c-.01.32.07.57.25.74.17.17.42.26.74.26h1.02v1.43h-.94Z"/><path class="cls-1" d="M544.52,350.41l2.99-8.76h2.78l3.07,8.76h-1.75l-2.6-7.6.61.26h-1.5l.62-.26-2.52,7.6h-1.7ZM546.6,348.08l.54-1.44h3.55l.53,1.44h-4.62Z"/><path class="cls-1" d="M557.32,350.64c-.57,0-1.06-.1-1.47-.29-.41-.19-.76-.45-1.03-.77-.28-.32-.48-.68-.62-1.08-.14-.4-.2-.81-.2-1.22v-.23c0-.44.07-.86.21-1.27.14-.4.35-.76.63-1.08.28-.32.63-.57,1.04-.76s.89-.28,1.43-.28,1.08.11,1.52.33c.45.22.81.53,1.07.92.27.39.42.85.45,1.37h-1.62c-.04-.34-.18-.62-.43-.84-.24-.22-.58-.34-1-.34-.37,0-.67.09-.92.26-.24.18-.43.42-.55.73s-.18.66-.18,1.06.06.73.17,1.04.3.56.54.73c.24.18.56.26.94.26.29,0,.54-.05.74-.16.21-.1.38-.25.5-.43.12-.18.2-.39.23-.62h1.62c-.03.53-.19.99-.46,1.39s-.64.71-1.09.93c-.45.22-.97.34-1.54.34Z"/><path class="cls-1" d="M564.64,350.64c-.57,0-1.06-.1-1.47-.29-.41-.19-.76-.45-1.03-.77-.28-.32-.48-.68-.62-1.08-.14-.4-.21-.81-.21-1.22v-.23c0-.44.07-.86.21-1.27.14-.4.35-.76.63-1.08.28-.32.63-.57,1.04-.76s.89-.28,1.43-.28,1.08.11,1.52.33c.45.22.81.53,1.07.92.27.39.42.85.45,1.37h-1.62c-.04-.34-.18-.62-.43-.84-.24-.22-.58-.34-1-.34-.37,0-.67.09-.92.26-.24.18-.43.42-.55.73-.12.31-.18.66-.18,1.06s.06.73.17,1.04c.12.31.3.56.54.73.24.18.56.26.94.26.29,0,.54-.05.74-.16.21-.1.37-.25.5-.43s.2-.39.23-.62h1.62c-.03.53-.19.99-.46,1.39-.28.4-.64.71-1.09.93-.45.22-.97.34-1.54.34Z"/><path class="cls-1" d="M571.98,350.64c-.56,0-1.05-.1-1.47-.29s-.77-.45-1.04-.77-.48-.69-.62-1.09-.21-.81-.21-1.22v-.23c0-.43.07-.85.21-1.25s.35-.76.62-1.08c.28-.32.62-.57,1.03-.76s.88-.28,1.42-.28c.71,0,1.29.15,1.77.46.48.31.83.71,1.07,1.21.24.5.36,1.04.36,1.61v.6h-5.77v-1.02h4.73l-.52.5c0-.42-.06-.77-.18-1.07-.12-.3-.3-.52-.55-.68s-.55-.24-.92-.24-.68.08-.94.25-.45.41-.58.73c-.13.32-.2.69-.2,1.13,0,.41.06.77.19,1.09s.32.56.59.74c.26.18.6.27,1.01.27s.74-.08,1-.25.42-.37.49-.61h1.54c-.1.45-.28.84-.55,1.18-.27.34-.62.6-1.04.78-.42.18-.9.28-1.43.28Z"/><path class="cls-1" d="M576.51,352.81v-8.92h1.32v2.81h-.2c.03-.68.17-1.23.41-1.68.24-.45.57-.78.98-1,.41-.22.86-.33,1.37-.33.46,0,.88.08,1.25.25.37.17.69.4.96.71.27.3.47.66.62,1.06.14.4.22.84.22,1.3v.25c0,.47-.07.91-.21,1.31-.14.4-.34.76-.61,1.07-.27.31-.59.55-.97.72s-.8.26-1.26.26c-.49,0-.93-.1-1.34-.31-.4-.2-.73-.52-.98-.95-.25-.43-.39-.98-.42-1.66l.53.8v4.3h-1.67ZM579.96,349.22c.36,0,.67-.09.94-.26.27-.18.48-.42.63-.74.15-.32.23-.67.23-1.07s-.08-.78-.23-1.08c-.15-.3-.36-.54-.63-.71-.27-.17-.58-.26-.94-.26-.33,0-.63.07-.91.22s-.5.36-.67.64c-.17.28-.26.62-.26,1.01v.48c0,.38.09.7.26.96.18.26.4.47.68.61.28.14.58.22.89.22Z"/><path class="cls-1" d="M584.06,345.12v-1.22h4.61v1.22h-4.61ZM587.73,350.49c-.6,0-1.09-.08-1.48-.23-.39-.16-.68-.42-.87-.79-.19-.37-.29-.87-.29-1.51v-5.9h1.57v6.01c-.01.32.07.57.25.74.17.17.42.26.74.26h1.02v1.43h-.94Z"/></g></svg>