<svg id="Ebene_2" xmlns="http://www.w3.org/2000/svg" viewBox="0 0 356.47 500"><defs><style>.cls-1{fill:#d2d929;}.cls-1,.cls-2{stroke-width:0px;}.cls-2{fill:#025d53;}</style></defs><g id="Ebene_1-2"><rect class="cls-1" width="356.47" height="500" rx="11.46" ry="11.46"/><rect class="cls-2" x="148.11" y="60.62" width="162.17" height="15" rx="7.5" ry="7.5"/><rect class="cls-2" x="148.11" y="184.3" width="162.17" height="15" rx="7.5" ry="7.5"/><rect class="cls-2" x="148.11" y="307.97" width="162.17" height="15" rx="7.5" ry="7.5"/><rect class="cls-2" x="148.11" y="431.65" width="162.17" height="15" rx="7.5" ry="7.5"/><path class="cls-1" d="M123.65,72.53c0,19.63-15.91,35.54-35.54,35.54s-35.54-15.91-35.54-35.54,15.91-35.54,35.54-35.54c1.79,0,4.72-1.26,5.26.39,5.13,15.57,26.47,25,30.15,32.07.47.91.13,2.05.13,3.09Z"/><path class="cls-2" d="M88.11,115.1c-5.88,0-11.41-1.12-16.58-3.35-5.17-2.23-9.67-5.26-13.5-9.09s-6.86-8.33-9.09-13.5c-2.23-5.17-3.35-10.7-3.35-16.58,0-5.32,1.03-10.52,3.08-15.63,2.06-5.1,4.93-9.66,8.61-13.66,3.69-4,8.11-7.23,13.29-9.67,5.17-2.44,10.84-3.67,17.01-3.67,1.49,0,3.01.07,4.57.21.77.07,1.55.17,2.33.29,1.33.21,2.23,1.43,2.14,2.77-.17,2.34.15,4.58.95,6.72,1.06,2.83,2.66,5.19,4.78,7.07s4.66,3.17,7.6,3.88c1.72.41,3.47.53,5.25.33,1.64-.18,2.96,1.26,2.74,2.89-.39,2.84.24,5.59,1.89,8.25,2.02,3.25,4.87,5.17,8.54,5.76,1.19.19,2.13,1.14,2.19,2.35,0,0,0,.01,0,.02.04.67.05,1.4.05,2.18,0,5.81-1.12,11.29-3.35,16.42s-5.26,9.64-9.09,13.5-8.33,6.91-13.5,9.14-10.7,3.35-16.58,3.35ZM81.73,64.08c1.77,0,3.28-.62,4.52-1.86s1.86-2.75,1.86-4.52-.62-3.28-1.86-4.52c-1.24-1.24-2.75-1.86-4.52-1.86s-3.28.62-4.52,1.86-1.86,2.75-1.86,4.52.62,3.28,1.86,4.52c1.24,1.24,2.75,1.86,4.52,1.86ZM73.22,85.34c1.77,0,3.28-.62,4.52-1.86s1.86-2.75,1.86-4.52-.62-3.28-1.86-4.52-2.75-1.86-4.52-1.86-3.28.62-4.52,1.86-1.86,2.75-1.86,4.52.62,3.28,1.86,4.52,2.75,1.86,4.52,1.86ZM100.86,89.59c1.2,0,2.21-.41,3.03-1.22.81-.81,1.22-1.82,1.22-3.03s-.41-2.21-1.22-3.03-1.82-1.22-3.03-1.22-2.21.41-3.03,1.22-1.22,1.82-1.22,3.03.41,2.21,1.22,3.03,1.82,1.22,3.03,1.22ZM88.11,106.6c8.65,0,16.32-2.98,23.01-8.93,6.24-5.55,9.85-12.51,10.83-20.89.12-1.05-.37-2.08-1.31-2.57-2.85-1.47-5.13-3.36-6.86-5.67-1.72-2.29-2.96-4.82-3.73-7.57-.24-.88-.98-1.54-1.87-1.72-4.81-.97-8.99-3.22-12.52-6.76-3.43-3.43-5.7-7.46-6.83-12.09-.28-1.17-1.35-1.98-2.56-1.94-4.78.14-9.04,1.17-12.78,3.08-4.29,2.2-7.87,5.01-10.74,8.45s-5.03,7.18-6.48,11.21-2.18,7.83-2.18,11.37c0,9.43,3.31,17.45,9.94,24.08,6.63,6.63,14.65,9.94,24.08,9.94Z"/><path class="cls-1" d="M123.65,193.03c0,19.63-15.91,35.54-35.54,35.54s-35.54-15.91-35.54-35.54,15.91-35.54,35.54-35.54c1.79,0,4.72-1.26,5.26.39,5.13,15.57,26.47,25,30.15,32.07.47.91.13,2.05.13,3.09Z"/><path class="cls-2" d="M88.11,235.6c-5.88,0-11.41-1.12-16.58-3.35-5.17-2.23-9.67-5.26-13.5-9.09s-6.86-8.33-9.09-13.5c-2.23-5.17-3.35-10.7-3.35-16.58,0-5.32,1.03-10.52,3.08-15.63,2.06-5.1,4.93-9.66,8.61-13.66,3.69-4,8.11-7.23,13.29-9.67,5.17-2.44,10.84-3.67,17.01-3.67,1.49,0,3.01.07,4.57.21.77.07,1.55.17,2.33.29,1.33.21,2.23,1.43,2.14,2.77-.17,2.34.15,4.58.95,6.72,1.06,2.83,2.66,5.19,4.78,7.07s4.66,3.17,7.6,3.88c1.72.41,3.47.53,5.25.33,1.64-.18,2.96,1.26,2.74,2.89-.39,2.84.24,5.59,1.89,8.25,2.02,3.25,4.87,5.17,8.54,5.76,1.19.19,2.13,1.14,2.19,2.35,0,0,0,.01,0,.02.04.67.05,1.4.05,2.18,0,5.81-1.12,11.29-3.35,16.42s-5.26,9.64-9.09,13.5-8.33,6.91-13.5,9.14-10.7,3.35-16.58,3.35ZM81.73,184.58c1.77,0,3.28-.62,4.52-1.86s1.86-2.75,1.86-4.52-.62-3.28-1.86-4.52c-1.24-1.24-2.75-1.86-4.52-1.86s-3.28.62-4.52,1.86-1.86,2.75-1.86,4.52.62,3.28,1.86,4.52c1.24,1.24,2.75,1.86,4.52,1.86ZM73.22,205.84c1.77,0,3.28-.62,4.52-1.86s1.86-2.75,1.86-4.52-.62-3.28-1.86-4.52-2.75-1.86-4.52-1.86-3.28.62-4.52,1.86-1.86,2.75-1.86,4.52.62,3.28,1.86,4.52,2.75,1.86,4.52,1.86ZM100.86,210.09c1.2,0,2.21-.41,3.03-1.22.81-.81,1.22-1.82,1.22-3.03s-.41-2.21-1.22-3.03-1.82-1.22-3.03-1.22-2.21.41-3.03,1.22-1.22,1.82-1.22,3.03.41,2.21,1.22,3.03,1.82,1.22,3.03,1.22ZM88.11,227.1c8.65,0,16.32-2.98,23.01-8.93,6.24-5.55,9.85-12.51,10.83-20.89.12-1.05-.37-2.08-1.31-2.57-2.85-1.47-5.13-3.36-6.86-5.67-1.72-2.29-2.96-4.82-3.73-7.57-.24-.88-.98-1.54-1.87-1.72-4.81-.97-8.99-3.22-12.52-6.76-3.43-3.43-5.7-7.46-6.83-12.09-.28-1.17-1.35-1.98-2.56-1.94-4.78.14-9.04,1.17-12.78,3.08-4.29,2.2-7.87,5.01-10.74,8.45s-5.03,7.18-6.48,11.21-2.18,7.83-2.18,11.37c0,9.43,3.31,17.45,9.94,24.08,6.63,6.63,14.65,9.94,24.08,9.94Z"/><path class="cls-1" d="M123.65,313.53c0,19.63-15.91,35.54-35.54,35.54s-35.54-15.91-35.54-35.54,15.91-35.54,35.54-35.54c1.79,0,4.72-1.26,5.26.39,5.13,15.57,26.47,25,30.15,32.07.47.91.13,2.05.13,3.09Z"/><path class="cls-2" d="M88.11,356.11c-5.88,0-11.41-1.12-16.58-3.35-5.17-2.23-9.67-5.26-13.5-9.09s-6.86-8.33-9.09-13.5c-2.23-5.17-3.35-10.7-3.35-16.58,0-5.32,1.03-10.52,3.08-15.63,2.06-5.1,4.93-9.66,8.61-13.66,3.69-4,8.11-7.23,13.29-9.67,5.17-2.44,10.84-3.67,17.01-3.67,1.49,0,3.01.07,4.57.21.77.07,1.55.17,2.33.29,1.33.21,2.23,1.43,2.14,2.77-.17,2.34.15,4.58.95,6.72,1.06,2.83,2.66,5.19,4.78,7.07s4.66,3.17,7.6,3.88c1.72.41,3.47.53,5.25.33,1.64-.18,2.96,1.26,2.74,2.89-.39,2.84.24,5.59,1.89,8.25,2.02,3.25,4.87,5.17,8.54,5.76,1.19.19,2.13,1.14,2.19,2.35,0,0,0,.01,0,.02.04.67.05,1.4.05,2.18,0,5.81-1.12,11.29-3.35,16.42s-5.26,9.64-9.09,13.5-8.33,6.91-13.5,9.14-10.7,3.35-16.58,3.35ZM81.73,305.08c1.77,0,3.28-.62,4.52-1.86s1.86-2.75,1.86-4.52-.62-3.28-1.86-4.52c-1.24-1.24-2.75-1.86-4.52-1.86s-3.28.62-4.52,1.86-1.86,2.75-1.86,4.52.62,3.28,1.86,4.52c1.24,1.24,2.75,1.86,4.52,1.86ZM73.22,326.34c1.77,0,3.28-.62,4.52-1.86s1.86-2.75,1.86-4.52-.62-3.28-1.86-4.52-2.75-1.86-4.52-1.86-3.28.62-4.52,1.86-1.86,2.75-1.86,4.52.62,3.28,1.86,4.52,2.75,1.86,4.52,1.86ZM100.86,330.6c1.2,0,2.21-.41,3.03-1.22.81-.81,1.22-1.82,1.22-3.03s-.41-2.21-1.22-3.03-1.82-1.22-3.03-1.22-2.21.41-3.03,1.22-1.22,1.82-1.22,3.03.41,2.21,1.22,3.03,1.82,1.22,3.03,1.22ZM88.11,347.6c8.65,0,16.32-2.98,23.01-8.93,6.24-5.55,9.85-12.51,10.83-20.89.12-1.05-.37-2.08-1.31-2.57-2.85-1.47-5.13-3.36-6.86-5.67-1.72-2.29-2.96-4.82-3.73-7.57-.24-.88-.98-1.54-1.87-1.72-4.81-.97-8.99-3.22-12.52-6.76-3.43-3.43-5.7-7.46-6.83-12.09-.28-1.17-1.35-1.98-2.56-1.94-4.78.14-9.04,1.17-12.78,3.08-4.29,2.2-7.87,5.01-10.74,8.45s-5.03,7.18-6.48,11.21-2.18,7.83-2.18,11.37c0,9.43,3.31,17.45,9.94,24.08,6.63,6.63,14.65,9.94,24.08,9.94Z"/><path class="cls-1" d="M123.65,434.04c0,19.63-15.91,35.54-35.54,35.54s-35.54-15.91-35.54-35.54,15.91-35.54,35.54-35.54c1.79,0,4.72-1.26,5.26.39,5.13,15.57,26.47,25,30.15,32.07.47.91.13,2.05.13,3.09Z"/><path class="cls-2" d="M88.11,476.61c-5.88,0-11.41-1.12-16.58-3.35-5.17-2.23-9.67-5.26-13.5-9.09s-6.86-8.33-9.09-13.5c-2.23-5.17-3.35-10.7-3.35-16.58,0-5.32,1.03-10.52,3.08-15.63,2.06-5.1,4.93-9.66,8.61-13.66,3.69-4,8.11-7.23,13.29-9.67,5.17-2.44,10.84-3.67,17.01-3.67,1.49,0,3.01.07,4.57.21.77.07,1.55.17,2.33.29,1.33.21,2.23,1.43,2.14,2.77-.17,2.34.15,4.58.95,6.72,1.06,2.83,2.66,5.19,4.78,7.07s4.66,3.17,7.6,3.88c1.72.41,3.47.53,5.25.33,1.64-.18,2.96,1.26,2.74,2.89-.39,2.84.24,5.59,1.89,8.25,2.02,3.25,4.87,5.17,8.54,5.76,1.19.19,2.13,1.14,2.19,2.35,0,0,0,.01,0,.02.04.67.05,1.4.05,2.18,0,5.81-1.12,11.29-3.35,16.42s-5.26,9.64-9.09,13.5-8.33,6.91-13.5,9.14-10.7,3.35-16.58,3.35ZM81.73,425.59c1.77,0,3.28-.62,4.52-1.86s1.86-2.75,1.86-4.52-.62-3.28-1.86-4.52c-1.24-1.24-2.75-1.86-4.52-1.86s-3.28.62-4.52,1.86-1.86,2.75-1.86,4.52.62,3.28,1.86,4.52c1.24,1.24,2.75,1.86,4.52,1.86ZM73.22,446.85c1.77,0,3.28-.62,4.52-1.86s1.86-2.75,1.86-4.52-.62-3.28-1.86-4.52-2.75-1.86-4.52-1.86-3.28.62-4.52,1.86-1.86,2.75-1.86,4.52.62,3.28,1.86,4.52,2.75,1.86,4.52,1.86ZM100.86,451.1c1.2,0,2.21-.41,3.03-1.22.81-.81,1.22-1.82,1.22-3.03s-.41-2.21-1.22-3.03-1.82-1.22-3.03-1.22-2.21.41-3.03,1.22-1.22,1.82-1.22,3.03.41,2.21,1.22,3.03,1.82,1.22,3.03,1.22ZM88.11,468.11c8.65,0,16.32-2.98,23.01-8.93,6.24-5.55,9.85-12.51,10.83-20.89.12-1.05-.37-2.08-1.31-2.57-2.85-1.47-5.13-3.36-6.86-5.67-1.72-2.29-2.96-4.82-3.73-7.57-.24-.88-.98-1.54-1.87-1.72-4.81-.97-8.99-3.22-12.52-6.76-3.43-3.43-5.7-7.46-6.83-12.09-.28-1.17-1.35-1.98-2.56-1.94-4.78.14-9.04,1.17-12.78,3.08-4.29,2.2-7.87,5.01-10.74,8.45s-5.03,7.18-6.48,11.21-2.18,7.83-2.18,11.37c0,9.43,3.31,17.45,9.94,24.08,6.63,6.63,14.65,9.94,24.08,9.94Z"/></g></svg>