<?xml version="1.0" encoding="UTF-8"?><svg id="Ebene_2" xmlns="http://www.w3.org/2000/svg" viewBox="0 0 135.54 135.54"><defs><style>.cls-1{fill:#f7f6e8;}.cls-1,.cls-2{stroke-width:0px;}.cls-2{fill:#9fc131;}</style></defs><g id="Ebene_1-2"><circle class="cls-2" cx="67.77" cy="67.77" r="67.77"/><path class="cls-1" d="M50.05,42.18c-1.64,0-3.03.57-4.18,1.72-1.15,1.15-1.72,2.54-1.72,4.18s.57,3.03,1.72,4.18c1.15,1.15,2.54,1.72,4.18,1.72s3.03-.57,4.18-1.72,1.72-2.54,1.72-4.18-.57-3.03-1.72-4.18-2.54-1.72-4.18-1.72ZM50.05,81.55c-1.64,0-3.03.57-4.18,1.72-1.15,1.15-1.72,2.54-1.72,4.18s.57,3.03,1.72,4.18c1.15,1.15,2.54,1.72,4.18,1.72s3.03-.57,4.18-1.72,1.72-2.54,1.72-4.18-.57-3.03-1.72-4.18-2.54-1.72-4.18-1.72ZM36.27,30.37h62.99c1.12,0,2.05.38,2.81,1.13s1.13,1.69,1.13,2.81v27.56c0,1.12-.38,2.05-1.13,2.81s-1.69,1.13-2.81,1.13h-62.99c-1.12,0-2.05-.38-2.81-1.13-.75-.75-1.13-1.69-1.13-2.81v-27.56c0-1.12.38-2.05,1.13-2.81.75-.75,1.69-1.13,2.81-1.13ZM40.21,38.24v19.69h55.12v-19.69h-55.12ZM36.27,69.74h62.99c1.12,0,2.05.38,2.81,1.13s1.13,1.69,1.13,2.81v27.56c0,1.12-.38,2.05-1.13,2.81s-1.69,1.13-2.81,1.13h-62.99c-1.12,0-2.05-.38-2.81-1.13-.75-.75-1.13-1.69-1.13-2.81v-27.56c0-1.12.38-2.05,1.13-2.81.75-.75,1.69-1.13,2.81-1.13ZM40.21,77.61v19.69h55.12v-19.69h-55.12ZM40.21,38.24v19.69-19.69ZM40.21,77.61v19.69-19.69Z"/></g></svg>