<?xml version="1.0" encoding="UTF-8"?><svg id="Ebene_2" xmlns="http://www.w3.org/2000/svg" viewBox="0 0 135.54 135.54"><defs><style>.cls-1{fill:#f7f6e8;}.cls-1,.cls-2{stroke-width:0px;}.cls-2{fill:#9fc131;}</style></defs><g id="Ebene_1-2"><circle class="cls-2" cx="67.77" cy="67.77" r="67.77"/><path class="cls-1" d="M53.6,99.66v-7.09h7.09v-7.09h-21.26c-1.95,0-3.62-.69-5-2.08s-2.08-3.06-2.08-5v-35.43c0-1.95.69-3.62,2.08-5s3.06-2.08,5-2.08h56.69c1.95,0,3.62.69,5,2.08s2.08,3.06,2.08,5v35.43c0,1.95-.69,3.62-2.08,5s-3.06,2.08-5,2.08h-21.26v7.09h7.09v7.09h-28.35ZM39.42,78.4h56.69v-35.43h-56.69v35.43ZM39.42,78.4v-35.43,35.43Z"/></g></svg>