<?xml version="1.0" encoding="UTF-8"?><svg id="Ebene_2" xmlns="http://www.w3.org/2000/svg" viewBox="0 0 135.54 135.54"><defs><style>.cls-1{fill:#f7f6e8;}.cls-1,.cls-2{stroke-width:0px;}.cls-2{fill:#9fc131;}</style></defs><g id="Ebene_1-2"><circle class="cls-2" cx="67.77" cy="67.77" r="67.77"/><path class="cls-1" d="M50.05,74.86c1,0,1.85-.34,2.52-1.02s1.02-1.52,1.02-2.52-.34-1.85-1.02-2.52-1.52-1.02-2.52-1.02-1.85.34-2.52,1.02c-.68.68-1.02,1.52-1.02,2.52s.34,1.85,1.02,2.52c.68.68,1.52,1.02,2.52,1.02ZM50.05,60.68c1,0,1.85-.34,2.52-1.02s1.02-1.52,1.02-2.52-.34-1.85-1.02-2.52-1.52-1.02-2.52-1.02-1.85.34-2.52,1.02c-.68.68-1.02,1.52-1.02,2.52s.34,1.85,1.02,2.52c.68.68,1.52,1.02,2.52,1.02ZM57.14,74.86h31.89v-7.09h-31.89v7.09ZM57.14,60.68h31.89v-7.09h-31.89v7.09ZM53.6,99.66v-7.09h-14.17c-1.95,0-3.62-.69-5-2.08s-2.08-3.06-2.08-5v-42.52c0-1.95.69-3.62,2.08-5s3.06-2.08,5-2.08h56.69c1.95,0,3.62.69,5,2.08s2.08,3.06,2.08,5v42.52c0,1.95-.69,3.62-2.08,5s-3.06,2.08-5,2.08h-14.17v7.09h-28.35ZM39.42,85.49h56.69v-42.52h-56.69v42.52ZM39.42,85.49v-42.52,42.52Z"/></g></svg>