<?xml version="1.0" encoding="UTF-8"?><svg id="Ebene_2" xmlns="http://www.w3.org/2000/svg" viewBox="0 0 135.54 135.54"><defs><style>.cls-1{fill:#f7f6e8;}.cls-1,.cls-2{stroke-width:0px;}.cls-2{fill:#9fc131;}</style></defs><g id="Ebene_1-2"><circle class="cls-2" cx="67.77" cy="67.77" r="67.77"/><path class="cls-1" d="M42,87.1c-2.68,0-4.97-.94-6.85-2.82-1.88-1.88-2.82-4.16-2.82-6.85v-6.44h9.66v6.44h9.66v-28.99h9.66v28.99c0,2.68-.94,4.97-2.82,6.85s-4.16,2.82-6.85,2.82h-9.66ZM77.43,87.1c-1.83,0-3.36-.62-4.59-1.85s-1.85-2.76-1.85-4.59v-6.44h9.66v3.22h12.88v-6.44h-16.11c-1.83,0-3.36-.62-4.59-1.85s-1.85-2.76-1.85-4.59v-9.66c0-1.83.62-3.36,1.85-4.59s2.76-1.85,4.59-1.85h19.33c1.83,0,3.36.62,4.59,1.85s1.85,2.76,1.85,4.59v6.44h-9.66v-3.22h-12.88v6.44h16.11c1.83,0,3.36.62,4.59,1.85s1.85,2.76,1.85,4.59v9.66c0,1.83-.62,3.36-1.85,4.59s-2.76,1.85-4.59,1.85h-19.33Z"/></g></svg>