<?xml version="1.0" encoding="UTF-8"?><svg id="Ebene_2" xmlns="http://www.w3.org/2000/svg" viewBox="0 0 135.54 135.54"><defs><style>.cls-1{fill:#f7f6e8;}.cls-1,.cls-2{stroke-width:0px;}.cls-2{fill:#9fc131;}</style></defs><g id="Ebene_1-2"><circle class="cls-2" cx="67.77" cy="67.77" r="67.77"/><path class="cls-1" d="M67.77,104.15c-5.03,0-9.75-.95-14.17-2.86s-8.27-4.5-11.54-7.77c-3.27-3.27-5.86-7.12-7.77-11.54s-2.86-9.14-2.86-14.17c0-4.54.88-8.99,2.63-13.35,1.76-4.36,4.21-8.25,7.36-11.67s6.93-6.18,11.36-8.27,9.27-3.13,14.53-3.13c1.27,0,2.57.06,3.91.18,1.33.12,2.7.33,4.09.64-.55,2.73-.36,5.3.55,7.72s2.27,4.44,4.09,6.04,3.98,2.71,6.5,3.32,5.1.45,7.77-.45c-1.57,3.57-1.35,6.99.68,10.27s5.04,4.97,9.04,5.09c.06.67.11,1.29.14,1.86s.05,1.2.05,1.86c0,4.97-.95,9.64-2.86,14.04s-4.5,8.24-7.77,11.54-7.12,5.9-11.54,7.81-9.14,2.86-14.17,2.86ZM62.32,60.55c1.51,0,2.8-.53,3.86-1.59s1.59-2.35,1.59-3.86-.53-2.8-1.59-3.86-2.35-1.59-3.86-1.59-2.8.53-3.86,1.59-1.59,2.35-1.59,3.86.53,2.8,1.59,3.86,2.35,1.59,3.86,1.59ZM55.05,78.72c1.51,0,2.8-.53,3.86-1.59s1.59-2.35,1.59-3.86-.53-2.8-1.59-3.86-2.35-1.59-3.86-1.59-2.8.53-3.86,1.59-1.59,2.35-1.59,3.86.53,2.8,1.59,3.86,2.35,1.59,3.86,1.59ZM78.67,82.35c1.03,0,1.89-.35,2.59-1.04s1.04-1.56,1.04-2.59-.35-1.89-1.04-2.59-1.56-1.04-2.59-1.04-1.89.35-2.59,1.04-1.04,1.56-1.04,2.59.35,1.89,1.04,2.59,1.56,1.04,2.59,1.04ZM67.77,96.88c7.39,0,13.94-2.54,19.67-7.63s8.86-11.57,9.4-19.44c-3.03-1.33-5.41-3.15-7.13-5.45-1.73-2.3-2.89-4.88-3.5-7.72-4.66-.67-8.66-2.66-11.99-6s-5.39-7.33-6.18-11.99c-4.84-.12-9.1.76-12.76,2.63s-6.72,4.28-9.18,7.22-4.3,6.13-5.54,9.58-1.86,6.69-1.86,9.72c0,8.05,2.83,14.91,8.49,20.58,5.66,5.66,12.52,8.49,20.58,8.49Z"/></g></svg>