<?xml version="1.0" encoding="UTF-8"?><svg id="Ebene_2" xmlns="http://www.w3.org/2000/svg" viewBox="0 0 135.54 135.54"><defs><style>.cls-1{fill:#f7f6e8;}.cls-1,.cls-2{stroke-width:0px;}.cls-2{fill:#9fc131;}</style></defs><g id="Ebene_1-2"><circle class="cls-2" cx="67.77" cy="67.77" r="67.77"/><path class="cls-1" d="M35.56,48.44v-16.11h16.11v6.44h-9.66v9.66h-6.44ZM93.54,48.44v-9.66h-9.66v-6.44h16.11v16.11h-6.44ZM35.56,103.2v-16.11h6.44v9.66h9.66v6.44h-16.11ZM83.88,103.2v-6.44h9.66v-9.66h6.44v16.11h-16.11ZM51.66,87.1h32.21v-38.65h-32.21v38.65ZM51.66,93.54c-1.77,0-3.29-.63-4.55-1.89s-1.89-2.78-1.89-4.55v-38.65c0-1.77.63-3.29,1.89-4.55s2.78-1.89,4.55-1.89h32.21c1.77,0,3.29.63,4.55,1.89s1.89,2.78,1.89,4.55v38.65c0,1.77-.63,3.29-1.89,4.55s-2.78,1.89-4.55,1.89h-32.21ZM58.11,61.33h19.33v-6.44h-19.33v6.44ZM58.11,70.99h19.33v-6.44h-19.33v6.44ZM58.11,80.65h19.33v-6.44h-19.33v6.44ZM51.66,87.1v-38.65,38.65Z"/></g></svg>