<?xml version="1.0" encoding="utf-8"?>
<!-- Generator: Adobe Illustrator 27.1.1, SVG Export Plug-In . SVG Version: 6.00 Build 0)  -->
<svg version="1.1" id="Ebene_2_00000019675717120869858170000003877052915304419752_"
     xmlns="http://www.w3.org/2000/svg" xmlns:xlink="http://www.w3.org/1999/xlink" x="0px" y="0px" viewBox="0 0 149.9 155"
     style="enable-background:new 0 0 149.9 155;" xml:space="preserve">
<style type="text/css">
	.st0{fill:#845021;}
	.st1{fill:#B8773B;}
	.st2{fill:#5F3210;}
</style>
  <rect x="55.1" y="5.2" class="st0" width="9.9" height="4.8"/>
  <rect x="50" y="9.9" class="st0" width="10" height="5.2"/>
  <rect x="40" y="15.1" class="st0" width="15" height="5"/>
  <rect x="35" y="20" class="st0" width="20" height="5"/>
  <rect x="24.9" y="25" class="st0" width="25.1" height="5.1"/>
  <rect x="19.9" y="30" class="st0" width="25.1" height="5.2"/>
  <rect x="14.9" y="35.2" class="st0" width="10" height="5.3"/>
  <rect x="14.9" y="40.5" class="st0" width="5" height="4.6"/>
  <rect x="9.9" y="45.1" class="st0" width="10.1" height="9.9"/>
  <rect x="9.9" y="50.1" class="st0" width="15.1" height="15.2"/>
  <rect x="5" y="60.1" class="st0" width="14.9" height="34.8"/>
  <rect x="5" y="94.9" class="st0" width="19.9" height="5.1"/>
  <rect x="9.9" y="100" class="st0" width="15.1" height="9.9"/>
  <rect x="9.9" y="109.9" class="st0" width="20.1" height="5.2"/>
  <rect x="9.9" y="115.1" class="st0" width="25.1" height="5"/>
  <rect x="14.9" y="120" class="st0" width="25.1" height="5"/>
  <rect x="19.9" y="125" class="st0" width="25.1" height="5"/>
  <rect x="24.9" y="130" class="st0" width="30.2" height="5.2"/>
  <rect x="35" y="135.2" class="st0" width="55.1" height="4.8"/>
  <rect x="45" y="139.9" class="st0" width="55" height="5.2"/>
  <rect x="55.1" y="145.1" class="st0" width="35" height="5"/>
  <rect x="64.9" y="5.2" class="st1" width="20.1" height="4.8"/>
  <rect x="59.9" y="9.9" class="st1" width="15.1" height="5.2"/>
  <rect x="55" y="15.1" class="st1" width="14.9" height="5"/>
  <rect x="85" y="15.1" class="st1" width="15.1" height="20.1"/>
  <rect x="50" y="25" class="st1" width="20.1" height="10.2"/>
  <rect x="40" y="35.2" class="st1" width="65.1" height="5.3"/>
  <rect x="40" y="35.2" class="st1" width="8.2" height="9.9"/>
  <rect x="45" y="40.5" class="st1" width="40" height="4.6"/>
  <rect x="40" y="45.1" class="st1" width="39.9" height="5"/>
  <rect x="40" y="50.1" class="st1" width="40" height="5"/>
  <rect x="24.9" y="55" class="st1" width="80.2" height="5.1"/>
  <rect x="55" y="17.8" class="st1" width="14.9" height="7.2"/>
  <rect x="99.3" y="15.1" class="st1" width="5.8" height="5"/>
  <rect x="80" y="9.9" class="st1" width="20.1" height="5.2"/>
  <rect x="80" y="30" class="st1" width="25.1" height="5.2"/>
  <rect x="45" y="30" class="st1" width="5" height="5.2"/>
  <rect x="95.1" y="34.2" class="st1" width="10" height="11"/>
  <rect x="100.1" y="44" class="st1" width="5" height="12.2"/>
  <rect x="24.9" y="60.1" class="st1" width="25.1" height="7.7"/>
  <rect x="59.9" y="58.8" class="st1" width="45.2" height="6.4"/>
  <rect x="64.9" y="65.2" class="st1" width="45" height="4.7"/>
  <rect x="19.9" y="65.2" class="st1" width="30.1" height="4.7"/>
  <rect x="19.9" y="69.9" class="st1" width="35.1" height="5.2"/>
  <rect x="19.9" y="75.2" class="st1" width="35.1" height="5"/>
  <rect x="19.9" y="80.1" class="st1" width="70.1" height="4.9"/>
  <rect x="95.1" y="80.1" class="st1" width="50" height="4.9"/>
  <rect x="140.1" y="75.2" class="st1" width="5.1" height="5.1"/>
  <rect x="64.9" y="75.2" class="st1" width="60" height="5.1"/>
  <rect x="64.9" y="69.9" class="st1" width="55.2" height="5.2"/>
  <rect x="29.9" y="83.1" class="st1" width="55.1" height="26.8"/>
  <rect x="24.9" y="100" class="st1" width="5" height="9.9"/>
  <rect x="76" y="105.2" class="st1" width="44.1" height="10.6"/>
  <rect x="85" y="100" class="st1" width="29.9" height="5.2"/>
  <rect x="85" y="94.9" class="st1" width="5" height="5.1"/>
  <rect x="100" y="83.7" class="st1" width="45.2" height="11.2"/>
  <rect x="100" y="90" class="st1" width="45.1" height="4.9"/>
  <rect x="100.1" y="94.9" class="st1" width="29.9" height="5.1"/>
  <rect x="134.9" y="94.5" class="st1" width="10.3" height="5.5"/>
  <rect x="140" y="97.2" class="st1" width="5.1" height="7.9"/>
  <rect x="134.9" y="105.2" class="st1" width="5.2" height="4.8"/>
  <rect x="120" y="105.2" class="st1" width="5" height="9.9"/>
  <rect x="130" y="109.9" class="st1" width="10.1" height="5.2"/>
  <rect x="64.9" y="115.1" class="st1" width="70.1" height="5"/>
  <rect x="59.9" y="120" class="st1" width="75.2" height="5"/>
  <rect x="105.1" y="125" class="st1" width="24.9" height="5"/>
  <rect x="105.1" y="129.5" class="st1" width="19.9" height="5.7"/>
  <rect x="100.1" y="135.2" class="st1" width="20.1" height="4.8"/>
  <rect x="100.1" y="139.9" class="st1" width="5" height="5.2"/>
  <rect x="55.1" y="130" class="st1" width="29.9" height="5.2"/>
  <rect x="45" y="123.3" class="st1" width="45" height="6.7"/>
  <rect x="40" y="109.9" class="st1" width="5" height="15.2"/>
  <rect x="29.9" y="109.9" class="st1" width="11.1" height="5.2"/>
  <rect x="35" y="115.1" class="st1" width="6.1" height="4.9"/>
  <rect x="59.9" y="109.9" class="st1" width="16.2" height="5.2"/>
  <rect x="19.9" y="85" class="st2" width="10" height="10"/>
  <rect x="25" y="92.4" class="st2" width="5" height="7.6"/>
  <rect x="45" y="109.9" class="st2" width="14.8" height="15.2"/>
  <rect x="56.9" y="115.1" class="st2" width="8.1" height="5"/>
  <rect x="85" y="130" class="st2" width="20.1" height="5.2"/>
  <rect x="90" y="125" class="st2" width="15.1" height="6.8"/>
  <rect x="90" y="134.7" class="st2" width="10.1" height="5.3"/>
  <rect x="130" y="94.9" class="st2" width="5" height="15"/>
  <rect x="114.9" y="100" class="st2" width="25.1" height="5.2"/>
  <rect x="125" y="104.9" class="st2" width="5" height="10.1"/>
  <rect x="90" y="80.1" class="st2" width="5" height="19.9"/>
  <rect x="85" y="85" class="st2" width="15" height="9.9"/>
  <rect x="91.9" y="90.1" class="st2" width="8.2" height="9.9"/>
  <rect x="50" y="60.1" class="st2" width="9.9" height="9.8"/>
  <rect x="55" y="65.2" class="st2" width="9.9" height="14.9"/>
  <rect x="85" y="40.5" class="st2" width="10.1" height="14.5"/>
  <rect x="80" y="45.1" class="st2" width="20.1" height="9.9"/>
  <rect x="75" y="9.9" class="st2" width="5" height="25.3"/>
  <rect x="70" y="15.1" class="st2" width="15" height="15"/>
  <rect x="70" y="28.8" class="st2" width="6.2" height="6.4"/>
  <rect x="24.9" y="35.2" class="st2" width="15.1" height="19.8"/>
  <rect x="19.9" y="40.5" class="st2" width="9.6" height="9.5"/>
  <rect x="114.9" y="50.1" class="st1" width="5" height="5"/>
  <rect x="114.9" y="25" class="st1" width="5" height="5"/>
  <rect x="130" y="15.1" class="st1" width="5" height="5"/>
  <rect x="85" y="5.2" width="15.1" height="4.8"/>
  <rect x="100.1" y="9.9" width="5" height="5.2"/>
  <rect x="105.1" y="15.1" width="4.8" height="5"/>
  <rect x="100.1" y="20" width="5" height="10.1"/>
  <rect x="109.9" y="25" width="5" height="5"/>
  <rect x="114.9" y="20" width="5" height="5"/>
  <rect x="120" y="25" width="5" height="5"/>
  <rect x="114.9" y="30" width="5" height="5.2"/>
  <rect x="114.9" y="45.1" width="5.1" height="5"/>
  <rect x="109.9" y="50.1" width="5" height="5"/>
  <rect x="114.9" y="55" width="5.1" height="5.1"/>
  <rect x="120" y="50.1" width="5" height="5"/>
  <rect x="130" y="9.9" width="5" height="5.2"/>
  <rect x="125" y="15.1" width="5" height="5"/>
  <rect x="130" y="20" width="5" height="5"/>
  <rect x="135" y="15.1" width="5" height="5"/>
  <rect x="105.1" y="30" width="4.8" height="35.2"/>
  <rect x="109.9" y="65.2" width="10.1" height="4.7"/>
  <rect x="120" y="69.9" width="5" height="5.2"/>
  <rect x="125" y="75.2" width="15.1" height="4.9"/>
  <rect x="140" y="69.9" width="5.1" height="5.2"/>
  <rect x="145.1" y="75.2" width="4.7" height="30"/>
  <rect x="140.1" y="105.2" width="5.1" height="9.9"/>
  <rect x="135" y="115.1" width="5" height="9.9"/>
  <rect x="130" y="125" width="5" height="5"/>
  <rect x="125" y="130" width="5" height="5.2"/>
  <rect x="120" y="135.2" width="5" height="4.8"/>
  <rect x="105.1" y="139.9" width="14.9" height="5.2"/>
  <rect x="90.1" y="145.1" width="15.1" height="5"/>
  <rect x="55.1" y="150.1" width="35" height="5"/>
  <rect x="45" y="145.1" width="10" height="5"/>
  <rect x="35" y="139.9" width="10.1" height="5.2"/>
  <rect x="24.9" y="135.2" width="10.1" height="4.7"/>
  <rect x="19.9" y="130" width="5" height="5.2"/>
  <rect x="14.9" y="125" width="5" height="5"/>
  <rect x="9.9" y="120" width="5" height="5"/>
  <rect x="5" y="100" width="4.8" height="20"/>
  <rect y="60.1" width="5" height="39.9"/>
  <rect x="5" y="45.1" width="4.8" height="15"/>
  <rect x="9.9" y="35.2" width="5" height="9.9"/>
  <rect x="14.9" y="30" width="5" height="5.2"/>
  <rect x="19.9" y="25" width="5" height="5.1"/>
  <rect x="24.8" y="20" width="10.2" height="5"/>
  <rect x="35" y="15.1" width="5" height="5"/>
  <rect x="40" y="9.9" width="10" height="5.2"/>
  <rect x="50" y="5.2" width="5" height="4.8"/>
  <rect x="55.1" y="0" width="29.9" height="5.2"/>
</svg>
