<svg id="Ebene_2" xmlns="http://www.w3.org/2000/svg" width="841" height="595" viewBox="0 0 841.89 595.28"><defs><style>.cls-1{letter-spacing:-.01em;}.cls-2{letter-spacing:0em;}.cls-3,.cls-4{font-family:Sora-SemiBold, Sora;font-weight:600;}.cls-3,.cls-5{font-size:12px;}.cls-3,.cls-6{fill:#f7f6e8;}.cls-7{letter-spacing:-.01em;}.cls-8{letter-spacing:0em;}.cls-9{letter-spacing:0em;}.cls-10{letter-spacing:0em;}.cls-11{letter-spacing:0em;}.cls-4{font-size:20px;}.cls-4,.cls-5,.cls-12{fill:#0d2a3e;}.cls-13{letter-spacing:0em;}.cls-14{letter-spacing:0em;}.cls-5{font-family:Sora-Regular, Sora;}.cls-6,.cls-12,.cls-15,.cls-16,.cls-17,.cls-18{stroke-width:0px;}.cls-15{fill:#d3d926;}.cls-16{fill:#015d53;}.cls-17{fill:#9fc131;}.cls-18{fill:#e5e3d3;}</style></defs><g id="Ebene_1-2"><rect class="cls-17" width="841.89" height="595.28" rx="17.83" ry="17.83"/><path class="cls-6" d="M13.62,0h424.29C445.43,0,451.53,6.1,451.53,13.62v567.55c0,7.78-6.32,14.1-14.1,14.1H10.51c-5.8,0-10.51-4.71-10.51-10.51V13.62C0,6.1,6.1,0,13.62,0Z"/><rect class="cls-17" x="15.98" y="541.29" width="130.92" height="40.33" rx="6.68" ry="6.68"/><rect class="cls-16" x="308.76" y="541.29" width="130.92" height="40.33" rx="6.68" ry="6.68"/><rect class="cls-15" x="162.37" y="541.29" width="130.92" height="40.33" rx="6.68" ry="6.68"/><text class="cls-3" transform="translate(50.32 565.99)"><tspan class="cls-13" x="0" y="0">R</tspan><tspan x="8.52" y="0">eject all</tspan></text><text class="cls-3" transform="translate(199.27 565.99)"><tspan class="cls-11" x="0" y="0">A</tspan><tspan x="9.18" y="0">ccept all</tspan></text><text class="cls-3" transform="translate(361.66 565.99)"><tspan x="0" y="0">S</tspan><tspan class="cls-10" x="8.09" y="0">a</tspan><tspan class="cls-7" x="15.06" y="0">v</tspan><tspan x="21.92" y="0">e</tspan></text><text class="cls-4" transform="translate(14.38 34.68)"><tspan x="0" y="0">Cookie Settings</tspan></text><text class="cls-5" transform="translate(15.62 52.98)"><tspan x="0" y="0">Select the ca</tspan><tspan class="cls-9" x="78.55" y="0">t</tspan><tspan x="83.62" y="0">egories of cookies </tspan><tspan class="cls-14" x="198.27" y="0">y</tspan><tspan x="204.72" y="0">ou </tspan><tspan class="cls-9" x="223.1" y="0">w</tspan><tspan x="233.23" y="0">ant </tspan><tspan class="cls-9" x="255.66" y="0">t</tspan><tspan class="cls-8" x="260.72" y="0">o accept</tspan></text><rect class="cls-18" x="17.59" y="66.23" width="420.49" height="35.55" rx="5.99" ry="5.99"/><path class="cls-12" d="M32.44,87.71l-6-6,1.4-1.4,4.6,4.6,4.6-4.6,1.4,1.4-6,6Z"/><text class="cls-5" transform="translate(50.24 87.71)"><tspan class="cls-1" x="0" y="0">R</tspan><tspan x="8.28" y="0">equi</tspan><tspan class="cls-2" x="35.12" y="0">r</tspan><tspan x="39.97" y="0">ed Cookies</tspan></text><rect class="cls-6" x="385.43" y="72.7" width="45.41" height="22.62" rx="11.31" ry="11.31"/><circle class="cls-18" cx="418.92" cy="84.01" r="7.34"/><rect class="cls-18" x="17.59" y="112.98" width="420.49" height="35.55" rx="5.99" ry="5.99"/><path class="cls-12" d="M32.44,134.46l-6-6,1.4-1.4,4.6,4.6,4.6-4.6,1.4,1.4-6,6Z"/><text class="cls-5" transform="translate(50.24 134.46)"><tspan class="cls-1" x="0" y="0">R</tspan><tspan x="8.28" y="0">equi</tspan><tspan class="cls-2" x="35.12" y="0">r</tspan><tspan x="39.97" y="0">ed Cookies</tspan></text><rect class="cls-6" x="385.43" y="119.45" width="45.41" height="22.62" rx="11.31" ry="11.31"/><circle class="cls-18" cx="418.92" cy="130.76" r="7.34"/></g></svg>